<?xml version="1.0" standalone="no"?>
<!DOCTYPE svg PUBLIC "-//W3C//DTD SVG 1.1//EN" "http://www.w3.org/Graphics/SVG/1.1/DTD/svg11.dtd" >
<svg xmlns="http://www.w3.org/2000/svg">
<metadata></metadata>
<defs>
<font id="butchregular" horiz-adv-x="860" >
<font-face units-per-em="2048" ascent="1638" descent="-410" />
<missing-glyph horiz-adv-x="512" />
<glyph horiz-adv-x="0" />
<glyph horiz-adv-x="682" />
<glyph unicode=" "  horiz-adv-x="512" />
<glyph unicode="&#x09;" horiz-adv-x="512" />
<glyph unicode="&#xa0;" horiz-adv-x="512" />
<glyph unicode="!" horiz-adv-x="544" d="M0 -266q6 105 117 92q75 2 116.5 -33.5t28.5 -91.5q-8 -34 -36.5 -69.5t-55.5 -39.5q-63 -10 -118 37t-52 105zM206 185q12 75 43.5 176t41.5 143q14 65 43.5 188t46 201t35.5 184t25 204.5t1 193.5q-2 28 -7 82t-7 81q57 -19 91 -85t24 -138q-110 -738 -148 -946 q-14 -71 -36.5 -149.5t-55.5 -182t-51 -164.5q-9 12 -21.5 26t-17.5 21.5t-6 14.5q-13 75 -1 150z" />
<glyph unicode="&#x22;" d="M72 1427q49 84 233 408q6 1 15 4l12 4q5 -14 15.5 -38.5t16 -38.5t10 -37.5t-2.5 -36.5q-13 -43 -62.5 -118.5t-62.5 -100.5q-20 -41 -62 -52t-112 6zM385 1331q95 162 260 438q93 -13 98 -14q51 -13 32 -49q-4 -7 -9 -14q-26 -33 -92 -121t-105 -135q-5 -7 -17 -24 t-19 -25t-22 -21t-30.5 -19.5t-40 -11t-55.5 -4.5z" />
<glyph unicode="#" horiz-adv-x="1353" d="M66 1030q49 16 99 20t97.5 -3.5t88.5 -17.5t90 -25q15 -5 22 -7q72 104 49.5 135t-229.5 109q28 6 63 14q-12 9 -33 24t-30 21q3 2 9 6.5t9 6.5q19 -8 66 -28t73 -30q82 -33 144 -61q13 18 34 54t41 62t46 46q24 17 61 32.5t93 34t85 29.5q-89 -122 -237 -328 q131 -64 141 -69q33 23 80.5 65.5t81.5 70.5t94.5 57.5t134.5 43.5q-201 -191 -252 -239q-32 -29 -26 -52.5t53 -48.5q156 -78 280 -168q-68 1 -125.5 19t-90 38.5t-79.5 53.5t-77 49q-38 -24 -59.5 -40t-32.5 -31.5t-9 -27t19 -25.5t43 -26.5t71 -31.5q97 -42 248 -133 q8 -4 12 -12.5t7 -22t6 -21.5q-361 114 -488 154l-88 -55q11 21 11.5 39t-10 31.5t-25.5 24.5t-38.5 21.5t-44.5 18l-49 17.5t-46 18q-79 -68 -91 -80q-5 1 -15 2t-15 2q13 35 45 125q-49 22 -153.5 69.5t-153.5 69.5zM551 958q25 -12 79.5 -36t84.5 -39q20 25 29 35.5 t20.5 28t16 23t6.5 18t1 16t-10 13.5t-16 13t-27.5 12.5t-34 14t-45.5 16.5q-19 -21 -56 -62t-48 -53z" />
<glyph unicode="$" horiz-adv-x="903" d="M-41 -82q215 -73 270 -86q12 -3 32 15.5t28 37.5q42 115 61 211q14 70 27.5 146.5t30 176t24.5 146.5q13 56 5 109t-48 108q-53 73 -87 138t-53.5 135.5t-10.5 141.5t47 140q33 61 82 112.5t120 111.5q34 29 51 47t32.5 50.5t19.5 74.5q9 108 61 342q4 16 11.5 32 t19 35.5t16.5 30.5q-6 -104 -14.5 -288.5t-9.5 -211.5q33 -3 71.5 -3h72.5t69 -22.5t61 -68.5q-28 12 -73.5 33t-57.5 26l-6 -18q59 -46 117 -96q-6 -9 -13 -23q-85 63 -120 82q-75 41 -103 23t-39 -113q-2 -11 -69 -569q-13 -96 49 -150q137 -127 187 -288.5t1 -327.5 q-85 -285 -360 -416q-49 -22 -75 -56t-54 -96q-7 -16 -17.5 -30.5t-26 -33.5t-22.5 -28q-18 18 -22 21q10 25 33 82t36 88q-46 -10 -128 29.5t-149 98.5t-77 101zM285 1171q-3 -68 22 -129t79.5 -141t72.5 -115q11 84 -10 125q-31 54 -90 145t-74 115zM357.5 1164.5 q1.5 -65.5 52.5 -111.5v286q-54 -109 -52.5 -174.5zM428 -111q58 9 108.5 58.5t78 104t44.5 112.5q23 74 -16 208.5t-104 213.5q-23 -138 -62.5 -388t-48.5 -309zM447.5 1221q5.5 -110 46.5 -215q17 135 63 501q-55 -19 -85 -97.5t-24.5 -188.5zM563 754 q36 -96 107.5 -284.5t107.5 -285.5q15 86 7.5 174.5t-30.5 164.5t-72.5 138t-119.5 93z" />
<glyph unicode="%" horiz-adv-x="1202" d="M0 -410q136 219 293.5 509.5t276 523t277 514t304.5 501.5q8 -4 22 -11.5t17 -8.5q-21 -38 -60.5 -109t-56.5 -102q16 6 42 16.5t38 14.5q4 -22 4 -23q-13 -21 -162 -246t-221 -346q-105 -174 -295.5 -506.5t-224.5 -390.5q-53 -92 -186 -307q-14 -21 -68 -29z M175 1240.5q-42 95.5 7 199.5q18 44 60 71q63 42 145 42.5t152.5 -32t122.5 -96t59 -139.5q3 -31 -14.5 -71.5t-42.5 -57.5q-43 -30 -93 -59t-118 -65t-97 -52q-4 5 -12 15.5t-12 15.5q7 33 14 53q-129 80 -171 175.5zM295 1229q17 -9 39 -21.5t36.5 -20.5t28.5 -13 q6 -3 22 -10t24.5 -10.5t23 -9t18.5 -4.5t11 3q92 96 110 166q12 46 -34 88.5t-99 40.5q-5 0 -115 12q-26 -97 -65 -221zM694 125q-15 190 86 283q45 43 107.5 52.5t120.5 -10.5t106.5 -68t67.5 -112q39 -124 -1.5 -202t-168.5 -131q-19 -8 -46 -24.5t-47 -28t-45 -20 t-52.5 -6t-57.5 18.5q15 4 30.5 9t37.5 12t38 12q-90 21 -130.5 75t-45.5 140zM760 156q-17 -81 11 -117t114 -59q7 -2 14 -6.5t15 -11.5t12 -9q136 101 129.5 205.5t-156.5 199.5q54 17 89.5 -8.5t123.5 -140.5q4 5 12.5 14.5t12.5 14.5q-12 11 -50 48t-64 60t-54 41 q-19 12 -59.5 7.5t-51.5 -19.5q-79 -124 -98 -219z" />
<glyph unicode="&#x26;" horiz-adv-x="997" d="M35 8q38 78 123 241t127 249q11 23 7.5 59t-18.5 55q-76 85 -115 190t-63 242q-8 28 -4.5 62.5t7 58.5t17 55t24.5 52.5t30 50.5t33 49.5t34 49t33 48.5q42 65 117 117q80 55 146.5 51.5t142.5 -65.5q74 -60 100.5 -152.5t-12.5 -183.5q-103 -226 -291 -565 q-26 -47 -23 -83.5t35 -74.5q31 -36 61.5 -75.5t71.5 -93.5t58 -77q-1 -2 -2 -5t-2 -5q-16 12 -50.5 37t-50.5 37q-8 -8 -12 -10q35 -43 166 -199q36 59 103.5 169.5t101.5 166.5q12 -223 -137 -406q33 -28 100.5 -86t103.5 -88q-4 -7 -13 -21.5t-13 -21.5 q-48 17 -139.5 47.5t-104.5 34.5q-28 -28 -87.5 -88t-111.5 -112t-98 -97q-35 -31 -68 -31q-34 0 -67.5 9.5t-54.5 17.5t-57 35t-45 34t-50 45t-43 40q-88 77 -10 237zM186 -90q-13 -65 6 -124.5t84 -90.5q28 -12 54 -13.5t45 4t40.5 21t35.5 28.5t34 36q38 41 106 116 t97 107q-201 302 -311 473q-6 1 -17.5 3t-17.5 3q-15 -52 -52 -174t-62 -213t-42 -176zM236 1126q2 -62 24 -127q25 81 42.5 132t48.5 120.5t63 117.5t80.5 98t107.5 87q-13 26 -16 35q-17 -6 -55 -15.5t-64 -20t-43 -27.5q-44 -47 -76.5 -88.5t-60.5 -94t-40.5 -104 t-10.5 -113.5zM319 836.5q18 -102.5 84 -183.5q23 48 95 196t115.5 243.5t80.5 189.5q10 16 6 47.5t-10.5 53.5t-17.5 57t-15 57q-17 -10 -52 -26.5t-60 -32.5t-41 -35q-63 -79 -108.5 -170.5t-70 -192.5t-6.5 -203.5z" />
<glyph unicode="'" d="M72 1427q49 84 233 408q6 1 15 4l12 4q5 -14 15.5 -38.5t16 -38.5t10 -37.5t-2.5 -36.5q-13 -43 -62.5 -118.5t-62.5 -100.5q-20 -41 -62 -52t-112 6z" />
<glyph unicode="(" horiz-adv-x="350" d="M27.5 819q11.5 182 44.5 389q5 29 11.5 59t16 63t16.5 57t20.5 62.5t19.5 56t22 61.5t21 57q4 10 23 16t48.5 10.5t42.5 8.5q3 -11 12 -35t11 -34t-2 -25q-158 -260 -152 -592q4 -373 39 -623q31 -230 129 -586q24 -80 24 -93q0 -25 -32 -37q-19 -6 -94 -23 q-16 43 -53 134t-62.5 163t-42.5 139q-46 185 -60 387.5t-2.5 384.5z" />
<glyph unicode=")" horiz-adv-x="350" d="M4 -324q0 1 19 68q96 351 131 586q31 221 39 622q3 334 -154 592q-4 17 -2 26t10.5 33.5t11.5 34.5q12 -3 44 -7.5t49.5 -10.5t21.5 -16q34 -91 52 -141t41 -129.5t34 -145.5q33 -207 44.5 -389t-2.5 -384.5t-60 -387.5q-17 -67 -42.5 -139t-62.5 -163.5t-53 -134.5 q-95 21 -111 33q-19 14 -10 53z" />
<glyph unicode="+" horiz-adv-x="849" d="M-41 684q128 24 168 31q-38 18 -96 43h291q6 75 17 207t15 182q53 -38 73 -88t15.5 -92.5t-3 -96t21.5 -90.5q63 -4 188 -11t187 -11q2 -2 5 -6.5t5 -6.5q-21 -4 -106 -21l-130 -26q0 1 5.5 -4.5t19.5 -21.5h-184q21 -245 22 -260q1 -9 -3 -20t-11.5 -24.5t-9.5 -19.5 q-12 2 -41.5 10t-47.5 11q-2 -7 -7 -21.5t-7 -21.5q-5 0 -16 1t-17 1q14 130 41 356q-147 -21 -331 -51q-3 2 -13 10.5t-23.5 19t-27.5 21.5z" />
<glyph unicode="," horiz-adv-x="280" d="M-86 -303q39 67 116.5 203t116.5 204q9 4 27 9q4 -16 18.5 -48.5t20.5 -57.5t0 -46q-13 -43 -63.5 -118t-63.5 -101q-20 -41 -61.5 -51.5t-110.5 6.5z" />
<glyph unicode="0" horiz-adv-x="1150" d="M53 911q14 60 38 130t42.5 116.5t53.5 130.5t49 119q8 22 23 43.5t38 48.5t33 41q4 -3 13 -9t13 -9q-54 -92 -71 -121q49 40 121 97l73 56q-16 10 -48.5 32t-49.5 32q0 3 1 10t1 10q36 -3 124 -4.5t151 -9t116 -27.5q31 -11 58.5 -29t51 -44t41 -48.5t38 -60t32 -60 t31.5 -65.5q88 -188 115 -377t-5 -369.5t-101 -347.5t-179 -341q-42 -66 -95.5 -118.5t-121.5 -91.5t-143 -49.5t-160 7.5q-61 14 -121.5 86t-93.5 153q-202 495 -68 1069zM113 2q15 25 18 29q8 -26 23 -79t29 -94t32 -75q46 -86 150 -108.5t182 36.5q123 92 226 223.5 t174 288t96 324.5t-9 334q-71 326 -299 503q17 -42 55.5 -130.5t59 -136.5t49.5 -129t43 -141t23 -136.5t6 -149.5q-5 -109 -73.5 -262t-172.5 -285.5t-201 -177.5q152 203 176 238q64 94 106 175.5t73 177t29.5 195.5t-36.5 201q-77 227 -227 545q-29 63 -60.5 86.5 t-70.5 13t-96 -54.5q-31 -25 -84 -86q-76 -87 -123.5 -186.5t-65 -207t-17.5 -209t15 -220.5q36 -308 289 -387q35 -10 156 -29q-1 -10 -4 -27t-4 -24q-23 4 -75 10t-90 14t-69 23q-32 17 -64 43t-76 68t-71 65q46 -161 126.5 -265.5t215.5 -164.5q-90 -23 -133 2 q-37 22 -74.5 49.5t-86 66t-70.5 54.5zM674 1528q55 -50 157 -142.5t125 -113.5q-55 163 -123.5 225t-158.5 31z" />
<glyph unicode="1" horiz-adv-x="868" d="M0 893q61 65 150.5 168t153 173.5t145 151.5t169.5 144t183 108q10 -12 33.5 -39.5t33.5 -39.5q-5 -27 -18.5 -89t-22 -110t-12.5 -92q-48 -652 -70 -1090q-3 -70 0.5 -236.5t-2.5 -236.5q-2 -18 -17.5 -37t-42.5 -42.5t-38 -35.5q-39 13 -57 21q-30 322 -36 597.5 t21.5 591.5t96.5 607q-59 -43 -123 -110t-116.5 -126.5t-114 -118t-142 -101t-174.5 -58.5zM639 -207q41 1148 47 1350q-109 -585 -47 -1350z" />
<glyph unicode="2" horiz-adv-x="1077" d="M0 -201q4 15 11 43t12 43.5t12 26.5q47 67 147 201t173 241t130 209q24 44 46.5 89.5t45 99.5t38 91t39 103t33 93t35.5 104t32 96q55 166 -58 231q-140 81 -278 -10q-51 -34 -155 -106.5t-134 -93.5q3 11 7.5 28.5t6.5 25.5t6 17t9 15q206 271 544 292q51 3 117.5 -32 t85.5 -76q32 -76 49.5 -123t37.5 -120.5t23 -129.5t-7.5 -125t-40.5 -133q-154 -334 -379 -811q-3 -6 -12.5 -23.5t-14.5 -27.5q372 -52 435 -69q57 -16 71 -42q4 -9 10 -32q-127 11 -241.5 10t-235 -30.5t-227.5 -88.5q58 9 261.5 41.5t313.5 50.5q2 -7 5 -21.5t5 -21.5 q-20 -5 -59.5 -16.5t-71 -19t-59.5 -11.5q-183 -23 -316.5 -60t-250.5 -118q-39 -25 -121 -17q-8 0 -17 25.5t-8 42.5q0 2 -0.5 14.5t0 17t2 15t6 13t11 5t17.5 -2.5t26 -15q1 -1 15 14t32 37.5t29 38.5q9 17 19 54.5t15 50.5q-47 -20 -227 -103zM156 -45q94 4 145.5 54.5 t91.5 142.5q21 48 74.5 144t75.5 148q74 172 331 803q4 22 4 31.5t-5.5 35t-6.5 34.5q-86 -374 -264.5 -712t-445.5 -681zM397 10q58 9 156 153.5t185.5 330t148.5 375.5t53 282q-170 -355 -543 -1141z" />
<glyph unicode="3" horiz-adv-x="1275" d="M6 -106q13 -41 23.5 -68.5t28.5 -58t38.5 -48.5t52 -29.5t70.5 -11.5q-4 14 -18 62.5t-21 73.5q2 1 17 6q8 -11 27.5 -40.5t35 -46.5t33.5 -22q35 -10 77 -2.5t76 27.5q15 9 84.5 50t95.5 57.5t78.5 50t91.5 62.5t76 60q119 100 132.5 203.5t-78.5 226.5q-36 49 -93.5 98 t-102.5 79.5t-118 76.5q-28 17 -86 9t-71 -31q-24 -38 -50 -57t-46.5 -23t-49 8t-45.5 23.5t-49 36.5q184 214 741 868q-1 4 -6 29q-108 -29 -325 -85t-326 -85q-8 20 -10 30q10 7 33.5 26t37.5 28q-111 -42 -161.5 1t-63.5 160q77 -39 168 -50t159.5 -3t169 22.5 t161.5 16.5q139 6 421 -10q12 -1 24.5 -8t24 -16.5t13.5 -10.5q-24 -19 -71 -51.5t-79 -58.5t-57 -54q-73 -86 -153 -184.5t-174 -217t-146 -182.5q21 -14 160 -102.5t207 -142.5q98 -78 146.5 -163t49.5 -162.5t-34 -157.5t-92.5 -148t-137.5 -135q-34 -28 -76.5 -54 t-96.5 -56t-83 -48q-207 -129 -492 -22q-80 29 -120.5 92t-20.5 162zM469 860q4 -4 29 -24q68 82 203.5 245.5t203.5 245.5q-6 4 -16 12.5t-12 10.5q-67 -82 -204 -245t-204 -245z" />
<glyph unicode="4" horiz-adv-x="1044" d="M0 401q14 45 147 451.5t199 617.5q30 91 51 120q47 66 154 42q-9 -24 -332 -919h547q-29 351 -33 452q0 16 -4 83t-2.5 96t7 82.5t23 96.5t46.5 85q8 -78 25 -251.5t26 -264.5q2 0 6 1t6 1q8 68 26 203t26 202q32 -4 51 -4q-25 -368 -51 -770q29 -19 126 -80 q-3 -6 -9 -19.5t-9 -19.5q-17 0 -49 -4t-55 -6q-14 -86 -19 -202t-8 -211.5t-14 -199.5t-43.5 -205t-89.5 -188q9 194 29 558t24 450q-76 4 -149 1t-138 -11.5t-125.5 -31.5t-111.5 -58t-95 -91.5t-76 -132.5v74q0 12 11 105q-60 -45 -101 -72q-2 3 -7 7.5t-7.5 7.5t-1.5 5z " />
<glyph unicode="5" horiz-adv-x="1196" d="M0 -90q11 -10 39.5 -38t50 -46t43.5 -31q112 -69 191 -76q131 -10 268.5 47t242.5 163.5t142 232.5q13 44 14.5 87.5t-8.5 83.5t-25.5 77t-41 73t-51 67t-58.5 64q-30 30 -55.5 51.5t-58.5 41.5t-63.5 28.5t-67.5 6t-73 -20.5q-15 -54 -37 -143t-32 -125q-6 1 -21 4 t-24 4q-70 610 -107 917q-171 12 -217 15q-1 4 -2 12t-2 12q56 24 115 53q-28 40 -31 43q176 20 528.5 62.5t528.5 62.5q1 -3 2 -10t2 -10q-27 -14 -80 -43q37 -27 84 -64q-142 -18 -408.5 -51.5t-404.5 -50.5q7 -83 18.5 -236t16.5 -219q211 10 371 -89.5t266 -276.5 q59 -102 67.5 -221.5t-25 -230t-100.5 -212.5q-131 -200 -327.5 -284t-452.5 -27q-100 23 -148 98t-69 199z" />
<glyph unicode="6" horiz-adv-x="1013" d="M0 195q1 62 1.5 95.5t6.5 104t8.5 95.5t10.5 104t10 98q44 428 328 701q123 123 333 227q38 18 74 19.5t72.5 -26t54.5 -87.5q-86 -20 -201 -51q-9 -3 -30 -8t-33 -9t-26.5 -11.5t-22.5 -16.5q-96 -117 -169.5 -233t-130 -245t-83.5 -258.5t-31 -273.5t27 -291 q23 -115 85 -176.5t154 -67.5q54 -3 134.5 33.5t147 91.5t83.5 101q25 71 -4 162t-97 161.5t-147 83.5q13 8 88 60q-166 73 -270 120q0 4 1 12.5t1 12.5q150 -37 297 -72q-48 43 -131 115q11 15 16 27q19 -13 58 -35.5t67.5 -42.5t46.5 -43q134 -177 264 -400 q19 -32 20.5 -79.5t-18.5 -73.5q-34 -46 -86 -130t-88 -139.5t-98.5 -116.5t-134.5 -95q-87 -41 -177.5 -46t-168.5 24t-136.5 100.5t-78.5 174.5q-10 49 -16 103t-9 96.5t-2 104.5zM80 195q-11 -315 92.5 -449.5t323.5 -75.5q-93 -3 -158.5 21.5t-98.5 63.5t-56 97.5 t-32.5 113t-28 120t-42.5 109.5z" />
<glyph unicode="7" horiz-adv-x="1003" d="M0 1403q71 100 80 115q647 94 768 114q94 14 124.5 -9.5t31.5 -117.5q2 -18 -9.5 -41.5t-21.5 -23.5q-74 -8 -112.5 -55.5t-61.5 -122.5q-180 -601 -283 -1006q-30 -115 -73 -337t-48 -247q-5 -21 -30 -82q-37 14 -37 15q5 42 -8.5 94.5t-28 91.5t-17.5 96.5t23 108.5 q52 114 103.5 342t72.5 295q34 110 74.5 225.5t98.5 273t83 226.5q-398 27 -729 45zM293 1483q182 -38 262.5 -53t139 -14.5t73.5 15t31 52.5h-506z" />
<glyph unicode="8" horiz-adv-x="1232" d="M0 137.5q-1 12.5 1.5 51t3 48t4.5 53t5 50.5q17 145 88.5 246t198.5 176q-69 106 -102.5 198.5t-26.5 201t70 210.5q103 170 230 233t288 9q169 -58 194 -223q8 -56 44.5 -159.5t39.5 -113.5q39 -135 -5 -220.5t-187 -149.5q15 -13 41.5 -40t47.5 -44.5t42 -26.5 q111 -42 180 -131t76.5 -200.5t-57.5 -233.5q-172 -302 -439 -471q-3 -2 -61 -11q168 116 284.5 247.5t186.5 293.5q57 131 19 238t-181 200q31 -97 47 -137q56 -130 33.5 -255.5t-97.5 -226.5t-173 -145q-64 -28 -105.5 -44.5t-103 -36.5t-110.5 -27.5t-108.5 -7 t-115.5 13.5q-5 1 -31.5 6t-37 9.5t-27 15t-21.5 30t0 48.5q1 6 -5 14.5t-18.5 20.5t-15.5 16q-18 21 -33 44t-25.5 42t-17.5 47.5t-11.5 44.5t-6 50t-2.5 46.5zM88 291q66 75 187.5 210.5t156.5 174.5q-11 1 -33.5 5t-40 7.5t-35.5 2.5t-26 -9q-98 -100 -153 -191t-56 -200 zM125 127q2 -80 80 -182.5t155 -124.5q3 -5 40.5 -4.5t43.5 0.5q50 -4 102 16t109 49t99 39q104 22 175.5 119t67.5 219q-1 51 -19 97.5t-53.5 89.5t-65.5 72.5t-79 70.5q-35 30 -88 37q-92 14 -195 -25.5t-184.5 -111.5t-135 -169.5t-52.5 -191.5zM267 1206 q-23 -108 5 -223q16 -58 30.5 -88.5t41 -49.5t60.5 -23.5t96 -2.5q39 3 84 -4q58 -8 113 3.5t97.5 38.5t74.5 67t48 85.5t15.5 96t-21.5 96.5q-68 157 -94 213q-13 26 -19.5 37.5t-21.5 29t-29 20.5t-36 -2t-49 -25q9 62 12 81q-16 -3 -44.5 -6t-48 -6.5t-36.5 -9.5 q-106 -40 -180.5 -130t-97.5 -198z" />
<glyph unicode="9" horiz-adv-x="1347" d="M0 -285q205 -131 416 -57q102 37 184 76t163.5 93.5t148.5 127t116 160.5q26 47 31 86q-167 -197 -352.5 -314t-413.5 -139q-53 -4 -158 37q39 -7 78 -8t71 2t69 14.5t63 20.5t62.5 30t57 33t58 40t54 41t55.5 44.5t53 42.5q52 42 80.5 66t74 66.5t71 73.5t56.5 77.5 t46 89.5t25 97.5t7 113.5q-280 -166 -317 -187q-55 -30 -101 -44t-102.5 -9t-106.5 39q-23 18 -28 16q-24 -10 -45.5 -13.5t-37.5 -3t-33.5 10t-27.5 15.5t-26 25t-22 26.5t-22 31t-20 29.5q-150 214 -75 408q146 380 403 557q259 177 547 65q16 -5 45 -34q2 -2 2 -27 q-23 8 -70.5 26t-74.5 27q27 -25 80 -70.5t90 -80.5t65 -72q34 -44 56.5 -84.5t37.5 -87.5t14 -99t-18 -108q-22 -73 -32 -220t-25 -210q-26 -106 -54.5 -192.5t-72.5 -179.5t-97.5 -167t-129.5 -142t-168 -118q-12 -6 -59 -32t-63 -33.5t-59.5 -29t-65 -28.5t-61.5 -20.5 t-68 -16t-65.5 -5t-73 3t-71.5 16.5q-76 23 -164 104zM219 750q12 -22 22.5 -59.5t20 -67.5t26.5 -61t51.5 -51.5t86.5 -27.5q-91 116 -207 267zM315 1073q-56 -207 32.5 -317.5t287.5 -93.5q35 3 99.5 13t84.5 13q4 -12 4 -20q-108 -40 -194 -72q0 -3 1 -10.5t1 -10.5 q29 3 98 8.5t119.5 12.5t95.5 20q92 24 127.5 82.5t20.5 153.5q-55 323 -88 471q-15 70 -65.5 118t-115.5 58.5t-135 -14.5q-141 -59 -237 -164.5t-136 -247.5zM440 608q39 -76 85 -117t90.5 -43.5t89.5 23.5q-42 22 -132 68t-133 69zM1061 1425q181 -283 221 -348 q-17 156 -64 230t-157 118zM1098 1231q13 -74 37.5 -213t35.5 -201q53 65 29.5 196t-102.5 218z" />
<glyph unicode="?" horiz-adv-x="1255" d="M0 -360q5 -3 24 -18.5t35.5 -25t28.5 -6.5q24 8 67 14t73 10.5t60 27t44 63.5q7 18 -22.5 68t-67 92t-52.5 41q-65 -5 -128 -89.5t-62 -176.5zM315 1060.5q5 -45.5 33 -77.5q3 8 36 127.5t56 181.5q9 24 21.5 43t33 35t34 26t44 22.5t42 16.5t47.5 17q68 28 135.5 24.5 t126.5 -49.5q144 -117 179 -281.5t-61 -330.5q-43 -69 -99.5 -148.5t-96 -130t-115 -145t-104.5 -131.5q-30 -38 -67 -76t-86.5 -87t-72.5 -72l27 -27q51 50 153.5 149.5t153.5 149.5q3 -3 9.5 -10.5t9.5 -10.5q-223 -241 -404 -440q9 1 29 0t33.5 0.5t21.5 7.5 q53 41 144 140q196 212 341 419.5t240 434.5q30 72 48 123.5t33.5 121.5t15 128t-17.5 126t-54 131q-102 170 -293 170q-106 -1 -216.5 -55t-198 -144t-126.5 -194q-21 -57 -30.5 -98t-4.5 -86.5zM811 1561q42 27 90.5 28t91.5 -19t82 -57.5t64.5 -83t36 -98.5t0.5 -102 q-72 91 -100.5 127.5t-69.5 82.5t-53 57t-42 29t-45.5 22t-54.5 14z" />
<glyph unicode="@" horiz-adv-x="1337" d="M4 -78q-25 366 139 672q6 12 16.5 37t18 40t20.5 32.5t31 28t43 13.5q208 27 283 25q35 0 75.5 -5.5t97 -15t95.5 -14.5q-29 19 -71.5 47.5t-77 51.5t-68.5 45q115 -17 185 -76.5t112 -161.5q63 -155 52.5 -327t-81.5 -265q-5 -7 -21.5 -29t-23 -30.5t-22.5 -27.5 t-25 -28t-25.5 -23.5t-30.5 -22.5t-32 -17t-37 -14q-37 -9 -77 -9q140 53 230.5 178.5t90.5 266.5q-73 -78 -88 -92q-7 -6 -19.5 -11.5t-21.5 -9t-18 -12t-7.5 -20t9.5 -33.5q46 20 73 32q3 -6 15 -22q-22 -16 -64 -50t-76.5 -58.5t-68.5 -41.5q-51 -26 -176 -26 q-62 0 -92 30.5t-35 94.5q-8 96 61 206.5t158 141.5q17 6 43 -5.5t37 -27.5q17 -25 34 -56t36 -69.5t30 -58.5q52 18 89 55.5t52 82.5t8 95.5t-38 91.5q-36 47 -84 77t-121 61q-164 69 -358 -27q-27 -14 -52.5 -39t-55.5 -62t-46 -53q12 -12 18 -16q82 18 97 21 q-104 -87 -128 -165.5t13 -197.5q2 -6 -6 -22.5t-8 -22.5q-4 -63 4 -94q21 -77 51 -127q8 -16 21 -41.5t16.5 -33t15 -20.5t19.5 -14t26.5 -3t39.5 2t56 11q-9 -10 -28.5 -30.5t-28.5 -30.5q27 -33 63 -45.5t66.5 -9.5t76.5 9t75 5q-103 -71 -171.5 -71.5t-156.5 67.5 q-32 23 -86 37q-57 15 -109.5 85t-56.5 142zM35 -27q16 -35 45.5 -105.5t44.5 -105.5q4 1 8 2.5t9.5 4.5t9.5 4q-40 85 -95 209q-8 -2 -22 -9zM406 176q2 -8 4 -22t5 -24t7 -17q6 -9 14.5 -25t13.5 -26.5t16.5 -22.5t23.5 -12.5t34 2.5q42 11 61 16.5t48.5 21.5t38.5 35 q7 14 -1 37.5t-30 61t-27 49.5l-6 6q-31 25 -47 34.5t-31 5.5t-25 -19t-28 -50q-6 -11 -23 -30.5t-22 -26.5q-10 2 -26 6zM406 -291q6 2 16.5 6.5t19 7t15.5 3.5q32 5 88 10.5t103 12.5t87 18q247 65 346 241q4 7 17 28.5t18.5 31.5t15 27.5t15 32.5t8.5 30 q11 46 32.5 114.5t37 120t28.5 113t12.5 123.5t-16.5 121q-35 132 -83 234.5t-128 184.5q-50 50 -106 160q-51 98 -138 153.5t-208 88.5q-10 3 -47 11.5t-62 17t-51 22.5q14 2 46 8.5t50 7.5q50 3 96 -6.5t96 -35t78 -43t85 -56.5q123 -86 202.5 -163t128.5 -183 q233 -493 37 -913q-154 -333 -358 -580q-3 -2 -7 -4l-15 -7.5l-23 -11.5q101 153 119 179q-30 -17 -59.5 -31.5t-63 -26t-58.5 -19.5t-63.5 -15t-58 -11t-63.5 -9t-58.5 -6.5t-63 -5.5t-59.5 -5q-4 16 -8 24z" />
<glyph unicode="A" horiz-adv-x="1054" d="M0 -391q160 577 182 659q-120 -66 -135 -73q-9 -6 -43 -11q1 10 0 20t0.5 19.5t5.5 12.5q10 9 111 73q-2 4 -5.5 11.5t-9.5 20.5l-12 26q34 -13 60 -13.5t42 6t29 25.5t20 36t17 48q14 44 34 96t35 88t41 97t38 90q42 94 42 186q0 49 -12 98q-9 40 -9 64q1 16 5 26 q12 22 60 31q-1 -11 -5 -39.5t-4 -44.5t4 -45t5 -43q23 27 41.5 55.5t31.5 62t23.5 58.5t17 64.5t11 61t7.5 67t4 63t2.5 68.5t2.5 65q23 -19 27 -51.5t0 -59.5t8.5 -55t50.5 -42q-6 -13 -18.5 -38.5t-18.5 -39.5q-1 -4 2 -25q7 1 23.5 4.5t27.5 5.5q0 -4 2.5 -15t1.5 -15 q-18 -42 -28.5 -90.5t-14.5 -84.5q-2 -18 -2 -41t2 -52q4 -58 7 -84.5t12 -93.5t12 -87q5 -37 15.5 -103t17.5 -121t10 -104q5 -70 13.5 -107t33.5 -64.5t63 -39.5t109 -22q26 -5 62 -16q-1 -3 -2 -10.5t-2 -10.5h-127q-21 1 -64 5.5t-65 6.5q11 -110 32 -307.5t29 -273.5 q-6 -3 -18.5 -8.5t-18.5 -8.5q-11 18 -37.5 55t-44.5 67t-28 59q-21 66 -50.5 194t-46.5 185q-6 23 -26 45t-41 28q-28 9 -62 17t-58 13t-66.5 13.5t-63.5 12.5q-27 -67 -57 -169.5t-51 -179.5t-63 -169.5t-97 -161.5q-4 2 -13.5 5t-13.5 5zM303 334q187 -11 277 -17 q-66 362 -84 451h-17q-129 -320 -176 -434zM541 903q1 -73 11 -157.5t21 -143.5t31 -156.5t29 -146.5q7 1 21.5 4t21.5 4q-16 101 -50.5 300t-50.5 300q-5 -1 -16.5 -2t-17.5 -2zM614 1069q4 -131 51.5 -389.5t51.5 -390.5q9 0 33 4q-33 258 -99 778q-25 0 -37 -2zM653 193 q3 -13 24 -109t30 -147q3 1 8.5 2t7.5 2q-6 43 -18.5 128t-18.5 128q-13 0 -33 -4z" />
<glyph unicode="B" horiz-adv-x="876" d="M41 -295q-40 36 -40 85q0 52 44 118v-158h25q45 551 51 672q1 12 -7.5 26t-26.5 34.5t-26 31.5q44 50 67 118t27 120.5t6 139t7 130.5q32 330 32 404v8q-2 63 -45 86q-1 -1 -1 0q62 84 163 110q36 9 71 10q63 0 124 -30q271 -129 338 -453q18 -78 18 -149q0 -66 -14 -120 q-14 -56 -39.5 -106t-63 -93t-79 -78t-92.5 -68q22 -25 67 -73t80 -87t64 -76q86 -111 86 -229v-13q-5 -125 -103 -235q-160 -183 -405 -233q-32 -7 -64 -7q-132 0 -264 115zM160 -263q0 -16 17 -40q19 -26 36 -29q45 -9 91 -9q114 0 228 57q158 79 236 227q20 41 28 81 q2 13 3 26q-1 28 -11 60q-16 48 -61 85q-14 12 -78.5 66.5t-101.5 80.5q-16 11 -47 36t-49.5 38.5t-49 30.5t-55.5 23t-58 4.5t-67 -15.5q-61 -651 -61 -722zM240 653q16 -3 49 -8t54.5 -9.5t39.5 -10.5q43 -14 78 -15q80 0 117 74q100 186 131 309q9 36 9 74q0 52 -16 108 q-28 98 -88 178.5t-145 138.5t-170 67q-11 -159 -30.5 -462.5t-28.5 -443.5z" />
<glyph unicode="C" horiz-adv-x="1228" d="M23 236q-22 132 -22 261q0 396 210 763q88 152 203.5 240.5t279.5 96.5q53 2 165.5 21.5t170.5 19.5q30 0 61.5 -10t76 -30t61.5 -27q-3 -10 -10 -25q-70 20 -230 68q45 -60 107 -148q-23 7 -51.5 28.5t-47.5 36t-48 10.5t-62 -38q-41 21 -79 25q-14 2 -28 2 q-22 0 -40 -4q-29 -8 -61.5 -28t-53.5 -39t-51.5 -47t-49.5 -42q-54 -41 -102 -95t-80.5 -102t-69.5 -121.5t-56.5 -118t-53.5 -126.5q-78 -186 -78 -382q0 -176 63 -359q48 -143 140.5 -208t251.5 -81q24 -2 48 -2l80 6q64 10 110 25t107.5 50.5t94 58t97.5 69.5 q33 24 50 36q-101 -191 -323 -344q4 -5 11 -15t11 -15q23 15 308 192q-11 -53 -66.5 -108.5t-133 -93.5t-149.5 -44q-41 -3 -79 -3q-97 1 -181 19q-116 26 -199.5 79.5t-145 137.5t-98.5 184.5t-58 226.5z" />
<glyph unicode="D" horiz-adv-x="735" d="M0 -332q45 -32 89 -31q19 1 37 5q62 18 142 108q-31 1 -88 4t-86 4l-6 -36l-8 -48q-9 0 -25 -4q-2 7 -8.5 23.5t-10 29t-3.5 23.5q69 1295 69 1303q4 85 5 242.5t4 228.5q0 17 6.5 35.5t20 44t18.5 38.5q70 -94 82 -110q7 35 16.5 51.5t27 20.5t44.5 -13 q154 -86 262 -301q92 -175 126 -352q22 -111 21 -220q1 -64 -7 -128q-20 -172 -82.5 -335t-166.5 -331q-36 -58 -67.5 -100.5t-74.5 -88t-94.5 -78t-111.5 -50.5q-39 -12 -65 -12q-18 -1 -30 5q-30 14 -36 72zM115 145q10 -2 30 -2q15 215 46.5 645.5t46.5 645.5 q-5 0 -14.5 1t-14.5 1q-15 -199 -94 -1291zM179 -20q1 -28 5.5 -93.5t5.5 -95.5q106 28 206.5 134t162.5 250.5t62 277.5q-24 -58 -27 -64q-18 -32 -81 -142t-105 -181t-84 -140q-8 -12 -26.5 -19.5t-46 -14.5t-38.5 -11q19 22 75 70.5t72 79.5q96 184 232 504 q46 113 46 181q0 18 -3 32q-37 161 -121.5 311t-222.5 330q-3 -34 -14.5 -150.5t-16.5 -173.5q-73 -894 -80 -993q-1 -43 -1 -70v-22zM365 1445q29 -17 118 -63q-26 29 -78 88.5t-79 90.5q-21 -40 -21 -57q0 -25 60 -59zM381 1376q35 -61 92.5 -161t103 -179.5t85.5 -148.5 q-15 296 -281 489z" />
<glyph unicode="E" horiz-adv-x="1202" d="M0 -354q4 4 16.5 11t20 14t8.5 14q104 501 184 911q86 438 119 659q3 22 -5.5 47.5t-28 62.5t-25.5 50h5q42 -1 66 15t29.5 44t6.5 57t7 59.5t23 47.5q4 -3 26 -18.5t34.5 -27.5t17.5 -27q4 -11 -1 -27.5t-16.5 -43t-17.5 -44.5q49 1 177 8q128 8 194 8h4q66 0 166 -14 q104 -16 192 -53q-72 -39 -152 -63t-144.5 -34t-157 -10t-147.5 4t-157 13q-4 -37 -31.5 -284.5t-43.5 -381.5q28 1 199.5 10t260.5 13q5 -14 9 -35q-124 -47 -226 -88h154q1 -3 2 -11t2 -12q-27 -4 -78.5 -12.5t-93 -14t-78.5 -8.5q-49 -4 -74 -7t-50.5 -12.5t-36 -19 t-21.5 -34.5t-16 -50.5t-13 -74.5q-21 -145 -73 -463q-3 -20 -3 -36q0 -32 13 -48q12 -14 42 -13q19 0 44 5q59 13 172.5 25.5t167.5 23.5q32 5 60 5q34 0 64 -8q54 -15 103 -71q-21 -1 -68.5 -3.5t-72.5 -4.5t-61 -5.5t-66 -8.5q-39 -6 -498 -86q-3 0 -19.5 -3t-21 -3.5 t-18.5 -0.5q-4 0 -6 -1q-9 -1 -13 1q-5 2 -16 5.5t-16.5 9.5t-12 16t-10.5 23zM131 -44q-20 -115 -20 -188q0 -77 22 -108q22 124 64.5 370t64.5 371q-91 -209 -131 -445z" />
<glyph unicode="F" horiz-adv-x="1001" d="M0 -299q13 347 37 825q29 539 61 1016q1 15 7.5 31t16 34.5t13.5 30.5q18 -9 33 -18q-3 -13 -17 -80.5t-22 -109.5q11 4 25 7t21 5t9 6q34 70 75 70q35 0 75 -50q6 -9 49 2q14 3 157.5 34t217.5 42q35 6 73 9t90 4t74 2q3 -21 6 -39q-297 -87 -356 -107 q-99 -32 -283 -110q-18 -8 -33 -25.5t-18 -34.5q-11 -104 -43 -475q75 6 475 41q1 -4 3.5 -12.5t3.5 -12.5q-36 -13 -129 -48.5t-160.5 -59.5t-130.5 -43q-45 -14 -64 -36t-20 -67q-4 -115 -39 -718q-1 -19 -4 -40t-10 -57.5t-11 -58.5q-44 68 -66.5 146t-23.5 145t-1 143 t-1 141h-24v-636q-6 -1 -19.5 -3.5t-19.5 -3.5q-3 11 -11.5 34.5t-12.5 41.5q-3 14 -3 28v7zM98 940q4 0 12.5 -1t12.5 -1q4 42 14 137t15 144q-10 2 -33 2q-9 -137 -21 -281zM152 -14h12q3 79 29 598h-41v-598zM160 739q47 29 74 199q17 104 17 199q0 60 -7 116 q-25 0 -37 2q-6 -75 -14 -160.5t-18 -190.5t-15 -165z" />
<glyph unicode="G" horiz-adv-x="1134" d="M10 793q15 120 49 228t92.5 208.5t137.5 179.5t189 137.5t241 85.5q25 5 53 6h12q24 0 54 -2q37 -2 55 -2q0 -10 4 -30q-6 -2 -25 -10.5t-34 -14.5q25 -10 66.5 -28t60.5 -25q-1 -3 -3.5 -9.5t-3.5 -9.5q-9 1 -52 9t-66 10t-46 2q-45 0 -88 -9q-63 -14 -111.5 -40.5 t-95.5 -70t-81 -86.5t-72 -101q-139 -213 -139 -437q0 -136 51 -276q4 -11 4 -22q0 -22 -14 -42q-7 13 -103 195q-2 -14 -7.5 -59t-7 -61.5t-4.5 -57.5t-2 -60t3 -55t8.5 -57t16.5 -52.5t25.5 -54.5t36.5 -49t48 -49q57 -49 131.5 -74.5t137.5 -29.5t149 -11.5t145 -23.5 q-74 -35 -181 -35q-53 0 -115 9q-185 26 -312 110q13 -67 46.5 -119.5t80.5 -90t94 -65.5t104.5 -63.5t94.5 -67.5q-175 48 -294.5 130.5t-182.5 230.5q-93 217 -134 413q-26 121 -26 243q0 76 10 153zM100 901q2 67 21.5 129.5t57 122t73.5 104.5t90 105 q-48 -89 -133.5 -253.5t-108.5 -207.5zM100 901q23 43 108.5 207.5t133.5 253.5q-54 -60 -90 -105t-73.5 -104.5t-57 -122t-21.5 -129.5zM504 387q76 30 127 51q11 93 14 115q14 -12 39 -36t40 -34.5t30 -11.5q3 0 22 -2.5t24 -3t22.5 -1t23.5 1t20.5 4t20.5 7.5t16 12.5 t15.5 18.5t10.5 26t7 33q12 -17 31 -45t32 -47q11 28 29.5 75.5t28.5 74.5q20 -46 46.5 -106.5t31.5 -72.5q-9 -27 -26 -71.5t-26.5 -75.5t-13.5 -59q-7 -66 -13 -208.5t-14 -215.5q-4 -42 -98 -92q41 74 56 162q11 64 11 121q0 21 -1 41q-6 74 -8 162v24q0 73 8 135 q-8 1 -26 3t-26 3q-5 -41 -21 -195t-26 -237q-22 -173 -49 -285q-10 -42 -36 -60q-13 -8 -24 -8q-12 0 -22 9q40 271 113 782q-83 -4 -206 -11t-175 -10q-1 6 -4 15z" />
<glyph unicode="H" horiz-adv-x="892" d="M0 1434q30 5 35 6q7 -11 24 -39t27 -45q10 47 29.5 139t29.5 143q38 -98 57 -206t21 -210q1 -46 1 -90q0 -54 -2 -108q-2 -68 -1 -144v-62q1 -110 12 -195h424q-2 46 -20.5 384t-26.5 513q14 -43 26 -89t21 -83.5t17.5 -92.5t13.5 -85t10 -93t7.5 -85.5t6 -93.5 t4.5 -86.5t4 -94.5t3 -88h43q28 437 65 944q18 2 56 2q1 -25 3.5 -86t2.5 -85.5t-2 -84.5q-6 -83 -29.5 -348.5t-30.5 -409.5q-9 -168 -18 -481t-10 -371q0 -14 -5 -29.5t-14 -38t-14 -38.5q-10 41 -65 286q-15 -99 -46 -288q-4 0 -20 4v940q-264 -79 -315 -92 q-62 -17 -87 -57q-21 -33 -21 -83q0 -10 1 -20q21 -308 39 -602v-17q0 -47 -14 -84q-46 85 -64 192q-16 94 -17 175q1 11 1 21q1 30 0 62q0 64 -3 140q-5 114 -26 197v-637h-35q-30 154 -40 334q-9 151 -9 293v53q2 166 4 334v50q1 144 -9 296q-12 180 -44 334zM137 565 q3 0 9.5 -1t9.5 -1v744h-19v-742z" />
<glyph unicode="I" horiz-adv-x="1204" d="M0 -248q19 37 52.5 60t69 35.5t70.5 26t65.5 42.5t45.5 74h-258q0 3 1 10t1 10q28 8 88.5 17.5t102 22.5t65.5 38q16 17 27 39.5t18 55t10.5 53.5t8 62.5t6.5 55.5q19 130 58 425.5t63 453.5q4 26 15 54t31 69.5t31 68.5h-415q33 40 73 70t75 47t83.5 30.5t81.5 19 t87.5 14t84.5 14.5q89 19 177 19q101 0 202 -25q108 -25 184 -70q-38 -17 -86 -18h-11q-42 0 -81 6q-44 8 -88 12l-26 2q-32 0 -62 -8q-44 -10 -78 -41q1 -7 2 -21.5t2 -21.5q40 -12 84 -24q-3 -5 -6 -11.5t-4.5 -9.5t-3.5 -2q-61 0 -84 -31.5t-33 -99.5 q-18 -114 -39.5 -231.5t-55.5 -292.5t-44 -230q-14 -77 -38 -219.5t-34 -200.5q117 -8 375 -20v-29q-360 -68 -401 -76q0 -8 4 -24h235q5 -20 6 -23q-7 -2 -33.5 -8.5t-43 -9t-33.5 -2.5h-11q-133 0 -139 -146q-1 -7 -1 -22t-1.5 -25.5t-5.5 -17.5q-5 -8 -13.5 -15 t-25 -17.5t-18.5 -12.5q-2 6 -7 19t-7.5 23t-2.5 19q1 13 8.5 41t8.5 43q5 24 -6 58q-2 5 -18 5.5t-19 -3.5q-27 -41 -28 -61q0 -15 7 -58q4 -28 12.5 -77.5t12.5 -72.5q-46 22 -69 53.5t-25.5 58t-4 66t-6.5 60.5q-106 -29 -268 -76zM481 348q55 236 205 983q3 15 3 26 q0 28 -16 39q-11 7 -27 7q-17 0 -40 -8q-10 -88 -28.5 -264.5t-28.5 -264.5q-8 -73 -68 -518z" />
<glyph unicode="J" horiz-adv-x="880" d="M0 -41q3 2 10 5t10 5q12 -12 48 -44t57.5 -56t34.5 -51q19 -35 28.5 -51t29 -37.5t43.5 -29t56 -5.5q36 3 61.5 6.5t56.5 12.5t54 23t46 38t40 57q16 31 27 62t15 68.5t7 60.5q1 10 1 24q0 19 -2 45q-4 45 -5.5 60t-9 68.5t-8.5 62.5q-17 117 -38.5 244.5t-52 296.5 t-44.5 251q-9 -7 -20 -15.5t-17.5 -13.5t-9.5 -8q-3 21 -4.5 73.5t-8.5 88.5t-26 57q-17 17 -51 21q-23 3 -53 3q-16 0 -35 -1q-29 -1 -50 -1q-16 0 -26 1q0 5 1 16t1 17q27 5 170 30q1 4 2 11.5t2 11.5q-67 21 -199 59q13 43 35 121h240q1 8 7.5 41.5t8.5 50.5h33 q13 -45 36.5 -73t51.5 -38t61 -14q21 -2 42 -2q13 0 26 1q15 1 31 1l37 -2q86 -4 129 -8q0 -25 2 -37h-355q0 -8 -1 -23t-1 -22h258v-39q-172 -20 -260 -30v-23q34 -4 126.5 -14.5t142.5 -16.5q0 -16 2 -24h-295q27 -88 85 -284t101.5 -336.5t87.5 -270.5q42 -126 42 -237 q0 -221 -165 -388q-5 -5 -26 -28t-29 -31t-27 -26.5t-31 -27.5t-29.5 -20t-33.5 -18q-43 -17 -89 -17q-59 0 -123 28q-113 51 -177 157q-16 26 -29.5 55.5t-30 70.5t-24.5 58zM649 494q35 -289 64 -494q26 62 32 126q2 19 2 38q0 44 -10 90q-14 64 -34.5 118t-53.5 122z" />
<glyph unicode="K" horiz-adv-x="964" d="M0 1204q0 22 24 62q24 42 27 61q12 83 25 297q5 2 15 7t15 7q6 -11 20 -32.5t22 -38.5t8 -33v-19q0 -43 -6.5 -115t-6.5 -115v-19q3 -89 18 -258.5t19 -221.5q59 81 130 202t122 213t129 197t162 179q6 -5 39 -27q-230 -297 -328 -422q1 0 3 -1t3 -1q246 228 322 293 q46 41 125 74q13 3 19.5 3t22.5 -3t23 -4q-3 -4 -16 -23t-21 -28q-106 -111 -317 -332t-317 -332q-33 -34 -33 -63v-3q2 -31 41 -73q133 -149 383 -443t293 -344q-48 -11 -87 -11q-30 1 -55 7q-57 14 -98 64q-216 244 -565 647q-4 -50 -14 -147.5t-16 -175.5q-5 -67 -5 -130 v-20q1 -73 15 -236t14 -256q-13 17 -39 53l-39 54q-9 -3 -62 -31v62q4 57 16 183.5t18 222.5q4 70 4 136q0 24 -1 47q-3 167 -25 475q-26 380 -26 412z" />
<glyph unicode="L" horiz-adv-x="825" d="M0 -223v1849q3 1 10 2t10 2q16 -64 33 -139q16 6 25 22t10.5 34t5.5 37.5t10.5 32.5t25.5 19q8 3 18 3q14 0 32 -5q-53 -162 -65 -202q4 0 14 -5q13 25 70 136q-10 -244 -31.5 -806.5t-34.5 -865.5q75 2 179 11.5t177 17.5q68 7 152 7q5 -1 11 -1q90 0 167 -14 q1 -7 3 -21.5t3 -21.5q-23 -3 -91.5 -14t-106.5 -13q-17 -1 -52.5 -2t-56.5 -2t-51.5 -5.5t-56.5 -12.5q56 -3 173 -10t185 -11q-58 -31 -124 -41q-43 -6 -82 -6q-22 0 -44 2q-60 6 -117 12q-36 4 -73 4q-24 0 -46 -2q-60 -4 -110 -26v-35l6 -117q-5 7 -18 29.5t-23.5 37 t-21.5 26.5q-13 14 -29 27t-42.5 33t-43.5 34zM86 -16h18v1214h-18v-1214z" />
<glyph unicode="M" horiz-adv-x="1204" d="M0 1620q4 3 13.5 9t13.5 9q89 -117 275 -360.5t284 -372.5l153 375q13 32 66 139q18 41 39 67.5t52 44.5q29 17 64 17h6q39 -2 93 -18q-64 -107 -80 -141q-34 -66 -99.5 -199.5t-99.5 -200.5q-32 -63 -50 -115q-16 -51 -24 -111q-2 -18 -3 -36q1 -42 13 -84 q18 -60 60 -119q-7 -1 -21.5 -3t-21.5 -3q-13 17 -43 56.5t-47 62.5q-1 -3 -6.5 -17.5t-8 -19.5t-7.5 -13.5t-11 -13.5q-11 -11 -29 -16.5t-28 -1.5q-24 8 -41 51q-8 17 -27.5 71t-35.5 81q-68 111 -269 418q0 -74 -1 -256q-1 -122 -1 -221v-94q0 -132 4 -255 q3 -91 9.5 -193t17 -230.5t14.5 -194.5l4.5 -22.5t3.5 -26.5l-6 -93q-5 9 -17 26.5t-19 31.5t-9 28l-9 75t-10 81t-12.5 75t-19.5 81q-7 -43 -19.5 -121t-17.5 -109q-10 0 -26 4q-14 141 -14 309v20q0 157 8 291q8 144 13 310q5 151 5 284v27q0 145 -19.5 308.5t-58.5 308.5 zM197 1260q51 -83 153.5 -248t153.5 -248q8 5 24.5 15.5t24.5 15.5q-110 208 -338 481q-6 -4 -18 -16zM877 27.5q0 37.5 4 70.5q63 507 166 1282q6 50 48 84.5t109 48.5q-100 -674 -131 -874q-31 -206 -31 -443q0 -203 23 -429q-16 0 -31 -3q-23 43 -43 78q-7 -21 -21.5 -62 t-21.5 -61l-20 5q17 189 82 970q-5 1 -15.5 2t-15.5 2q-12 -134 -35.5 -410.5t-36.5 -416.5h-26q0 25 -2 72t-2 84.5z" />
<glyph unicode="N" horiz-adv-x="974" d="M0 -367h37q5 33 18.5 95t22 113t8.5 96q4 255 4 499q0 299 -6 584q0 39 -7 79t-23.5 102.5t-20.5 78.5q-1 6 -1 15q0 49 37 171q44 144 76 162v-391q20 32 47.5 78t36.5 61q5 -3 16.5 -8t16.5 -8q-30 -58 -33 -118v-20q1 -48 13 -90q16 -50 49 -114q66 -129 134.5 -274 t152 -327.5t127.5 -275.5q21 -48 59 -73v553l-2 310v136q0 174 2 174q1 29 8 61.5t18.5 71.5t16.5 62q20 -8 35 -13q-7 -48 -20.5 -144t-20.5 -144q5 -1 15 -3.5t15 -3.5q10 44 26 161.5t41 198.5t77 150q-10 -265 -33.5 -917t-36.5 -1008q-23 -14 -44.5 -6.5t-33 20.5 t-27 29.5t-28.5 20.5q-47 16 -84 48.5t-53.5 57.5t-44.5 74q-44 77 -95.5 171t-85 157.5t-96 180.5t-88.5 167q8 -160 24.5 -502.5t24.5 -521.5q-16 -4 -26 -4q-9 53 -45 245q-36 -6 -55 -26.5t-22 -42.5t-6.5 -54t-10.5 -49q-7 -18 -27.5 -49t-24.5 -39q-9 7 -28.5 21.5 t-28.5 21.5zM221 954q43 -164 86.5 -294.5t105 -273t143.5 -270.5t183 -239q-82 181 -245.5 544t-245.5 544q-25 -10 -27 -11zM848 43h22v862h-22v-862z" />
<glyph unicode="O" horiz-adv-x="1015" d="M0 381v30q0 101 11 223q13 140 46 261q87 327 265 578q9 12 27.5 39.5t27.5 40t27.5 32t34.5 28.5t40.5 17t52.5 8h7q119 0 170 -96q148 -270 229 -514q78 -235 78 -484v-18q-8 -43 -20.5 -120t-23.5 -139t-24 -117q-23 -99 -81 -177t-156 -168q-7 -6 -38 -34t-41 -36.5 t-37.5 -31.5t-43.5 -33t-41 -25t-48.5 -25t-49.5 -17q-48 -13 -89 -13q-43 0 -81 15q-72 28 -131 112q-16 22 -29 48t-22 46.5t-16.5 51.5t-11.5 48.5t-7.5 53t-5 49t-4 53.5t-3.5 50q-10 152 -12 264zM141 -14q5 -69 50.5 -154t103.5 -111q40 -19 88 -23q12 -1 23 -2 q34 0 63 11q93 35 190 150.5t155 246.5q53 119 53 199q0 8 -1 16q-205 -354 -245 -421q-52 -85 -109 -104q-17 -6 -37 -6q-45 0 -104 30q-39 21 -78.5 49.5t-86 66.5t-65.5 52zM188 1038q41 69 122 209t122 209q-100 -69 -154 -171.5t-90 -246.5zM201 55q21 -69 66.5 -118 t99.5 -68q33 -11 67 -12q22 -1 45 5q58 12 101 60q65 71 112 166q76 153 104 323q17 99 17 198q-1 71 -9 143q-20 172 -105.5 339t-229.5 298q-2 -1 -8 -7q-36 -45 -64 -86q-261 -401 -261 -819q0 -209 65 -422zM608 1520q201 -497 342 -836q-53 451 -313 846 q-15 -3 -29 -10z" />
<glyph unicode="P" horiz-adv-x="878" d="M0 -170q14 312 41.5 911.5t40.5 884.5l18 12q7 -16 21.5 -49t21.5 -49q94 40 171 52q30 4 59 4q47 0 93 -12q74 -18 143.5 -74.5t138.5 -153.5q12 -18 38.5 -50.5t38.5 -50.5q43 -61 50 -129q2 -20 2 -39q0 -46 -12 -87q-17 -57 -54 -123q-45 -79 -91 -140.5t-107 -117 t-129 -89.5q-68 -33 -154 -48q-52 -9 -108 -9q-38 0 -77 4q19 -475 33 -874q-5 -2 -15.5 -6.5t-15.5 -6.5q-37 85 -49.5 188t-15.5 226t-14 195q-4 -61 -12.5 -185t-12.5 -186q-7 0 -21.5 1t-21.5 1zM166 539q0 -2 3.5 -5.5t11 -10t12.5 -11.5q1 12 3 24l1 13q25 3 65.5 4 t67 4.5t47.5 13.5q229 108 338 406q19 57 21 117q0 6 1 10q0 55 -14 105q-15 55 -48 103.5t-78 81.5q-45 34 -107 48q-37 9 -77 8q-28 0 -57 -4q-133 -18 -141 -137q-24 -302 -49 -770z" />
<glyph unicode="Q" horiz-adv-x="1069" d="M-53 -741q56 75 163.5 221.5t159.5 216.5q-36 20 -66 54t-51.5 82.5t-38 96.5t-27.5 114t-18 114.5t-11.5 120t-6.5 109t-3.5 101.5t-2.5 80q-1 32 -1 64q0 383 165 727q98 207 289 270q23 8 45 8q75 0 123 -102q7 -16 20 -33t23.5 -27.5t30.5 -29.5t28 -27 q232 -236 291 -530q8 -41 8 -94.5t-3.5 -84.5t-12.5 -96q-6 -54 -49.5 -279t-59.5 -284q5 0 14 1l23 1q-15 -33 -39.5 -97t-28.5 -73q-56 -18 -100 -51q-36 -17 -85 -49.5t-85.5 -55t-82.5 -41.5q-40 -15 -83 -15h-15q-51 3 -108 30q-16 -37 -39.5 -103.5t-40 -108 t-50.5 -91.5t-79 -84q7 17 15 38t19 50t20 51q-28 -25 -240 -209q-7 7 -10 15zM129 555q2 -17 6.5 -65.5t7.5 -80t10 -84.5t14.5 -90t19 -83.5t26.5 -78t33.5 -61t43 -45t52.5 -18.5q4 10 49 110q7 -24 15 -51t12 -39q41 88 49 107q5 -1 14.5 -4t14.5 -4q-1 -13 -3.5 -48.5 t-3.5 -56.5q5 1 49 13q41 12 63 12h3h11q50 0 93 42q49 48 83.5 130t59 161t47 165.5t32.5 113.5q10 30 10 57q0 12 -2 23q-5 27 -17.5 95.5t-19.5 104.5t-20.5 90.5t-28.5 98.5q-25 75 -52 132.5t-67.5 115.5t-98.5 99t-132 63q-1 1 -1.5 4t-1.5 8.5t-3 9.5q13 2 35.5 8.5 t33.5 8.5q-32 44 -64 44q-29 0 -59 -38q-91 -117 -120 -168q-199 -354 -199 -689q0 -56 6 -112zM178 -90q24 -30 63.5 -84t53.5 -72q14 39 16 66.5t-4 42t-22 23.5t-30.5 11.5t-39 6t-37.5 6.5zM379 -240q18 -1 35 -1q93 0 171 31q93 38 117 97q-30 -13 -88.5 -35.5 t-81.5 -31.5q-4 12 -8 18q30 18 88 50t68 38q-24 -6 -60 -9.5t-63.5 -5t-59.5 -9.5t-54 -22.5t-40 -44.5t-24 -75z" />
<glyph unicode="R" horiz-adv-x="1132" d="M0 -291q5 25 15 71t16.5 83t9.5 71q4 53 19.5 230t22.5 260.5t16.5 221.5t15.5 251q4 37 4 145q0 62 -1 146q-3 186 -3 261v30q2 31 51 80q58 65 196 77q34 3 68 3q102 0 203 -27q134 -36 194 -99q8 -8 41.5 -42t47.5 -49t35.5 -42.5t35.5 -52.5q51 -93 61 -209 q2 -29 3 -58q0 -85 -21 -167q-28 -110 -92.5 -210.5t-155.5 -166.5q-53 -36 -200 -129q64 -82 551 -700q-38 0 -91 -11h-2v-2q-32 -8 -73 -24q-67 51 -107 141q-20 43 -58 86t-87.5 90.5t-75.5 79.5q-80 96 -150 211q-16 28 -31 47t-36.5 36.5t-45 24.5t-57 4.5t-73.5 -16.5 v-764h-51v684h-25q-75 -551 -76 -559q-71 -3 -94 -6zM213 1505q7 -2 20.5 -6t20.5 -6v-887q66 2 141 6q-8 67 -8 68q18 -2 44.5 -8.5t42 -10t38 -5t31.5 5.5q242 128 321 401q14 45 14 83q0 89 -79 134q-193 109 -287 152q-24 11 -54.5 19.5t-68.5 16.5t-57 13q56 12 110 12 q66 0 130 -18q116 -32 255 -111q-31 70 -76 111t-99.5 55t-105 17t-114.5 5.5t-106 12.5q-4 1 -8 1q-10 0 -24 -8q-18 -10 -43 -28t-38 -25zM578 481q99 13 215.5 127.5t126.5 186.5q-42 -39 -159 -146t-183 -168z" />
<glyph unicode="S" horiz-adv-x="1060" d="M0 -215l27 16q18 -6 78.5 -27t101 -31.5t80.5 -14.5q37 -4 73 -4q132 0 249 50q148 62 257 199q42 53 60 103q12 35 12 69q0 15 -2 29q-8 46 -59 79.5t-142 45.5q-152 20 -274 88t-232 186q-95 101 -125 221q-18 73 -17 154q0 52 7 109q51 434 451 569q41 14 89 13 q67 0 147 -26q138 -46 200 -134q-129 71 -139 77q-6 -18 -15.5 -43t-11.5 -32q-62 61 -101 79q-23 10 -46 10q-18 0 -34 -5q-40 -13 -110 -66q-71 -52 -130 -140t-91 -187q-31 -98 -41 -201q-2 -27 -3 -52q0 -72 20 -133q15 -50 67 -94q54 -45 122 -68q49 -17 94 -17 q18 0 34 3q24 3 158 29q45 10 84 10q68 1 118 -29q79 -46 91 -163q13 -116 13 -221q0 -130 -20 -246q-17 -108 -110.5 -208.5t-221.5 -153.5q-90 -37 -170 -37q-33 0 -65 6q-75 15 -167 19q-43 2 -82 1q-44 0 -83 -2q-21 24 -51 47q25 3 47 0q-23 20 -68.5 61.5t-68.5 61.5z M211 922q18 139 51 378q-82 -90 -82 -213q0 -76 31 -165zM381 522q39 -54 95.5 -87.5t118.5 -49t124 -26.5t129 -32.5t115 -56.5q-33 132 -115 200q-79 66 -193 65h-10q-40 -1 -85.5 -3t-98.5 -5.5t-80 -4.5z" />
<glyph unicode="T" horiz-adv-x="1308" d="M20 1290q-19 34 -19 60q0 49 69 67q46 12 138 34.5t138 35.5q87 20 154 47q-28 6 -59 6q-19 0 -40 -2q-54 -6 -99 -18q-37 -10 -81 -10h-18q-54 2 -99 28q80 4 186 32q106 29 208 51q77 17 147 17q22 0 43 -2q56 -4 276 -9t345 -23q-5 -3 -31.5 -23t-42.5 -22 q-98 -13 -285.5 -36t-273.5 -34q10 -127 10 -275q0 -11 1 -22q0 -135 -6 -255q-6 -130 -12.5 -270.5t-6.5 -274.5t9 -267t36.5 -270.5t74.5 -264.5q-53 5 -70 18q-27 22 -53 122q-11 44 -43 180q-6 -43 -17 -128t-17 -128q-30 -9 -52 -9q-26 0 -40 12q-26 21 -25 82v9 q18 499 20 856q2 136 2 828q-63 -19 -221 -67.5t-246 -74.5zM561 98h4q23 655 51 1348q-9 0 -27.5 1t-27.5 1v-1350z" />
<glyph unicode="U" horiz-adv-x="1095" d="M2 1153q4 269 199 428q-7 -44 -30 -201t-36 -237q-38 -230 -38 -440q0 -295 75 -549q22 -75 46 -120.5t63.5 -75t88.5 -42.5t128 -20q16 -2 33.5 -9.5t44.5 -23t45 -23.5q222 146 289 328q30 82 30 173q0 111 -45 237q-33 91 -63.5 205.5t-46.5 189t-45 221.5t-40 199 q-6 34 -6 73q0 6 -1 13q1 34 3 77q2 51 2 76q7 1 21.5 3t21.5 3q37 -93 69 -191.5t60.5 -214.5t45.5 -192.5t46 -218.5t42 -200q6 1 17 4t17 4q-117 585 -198 981q15 -12 36 -26t30.5 -22t11.5 -16q11 -51 39 -175.5t43 -192t34.5 -170.5t32.5 -189q4 -24 7.5 -51t6 -48 t4.5 -52.5t3.5 -48t2.5 -53t1.5 -48.5t1.5 -53t1 -48v-53q0 -42 1 -52q0 -100 -62 -226q-62 -128 -154.5 -234t-206.5 -181.5t-208 -80.5q2 6 6 16.5t6.5 18t3.5 13.5q0 2 -12.5 8.5t-17.5 3.5q-56 -24 -104 -24q-31 0 -59 10q-70 25 -116 104q-1 2 -20 34.5t-22.5 38.5 t-19.5 35.5t-20.5 40.5t-17 36.5t-17 41t-11.5 37.5t-10.5 41.5t-4.5 38.5q-29 380 -29 824q0 120 2 245z" />
<glyph unicode="V" horiz-adv-x="937" d="M0 1487q32 -10 57.5 -27t44 -41.5t30.5 -45.5t22.5 -55.5t15 -55t12.5 -58.5q25 -124 57 -358t42 -297q7 -47 79 -494q83 296 231 829t202 728q3 1 7 0.5t13 -1.5t16 -1q-420 -1638 -428 -1667q9 -2 26 -7.5t19 -5.5q185 708 220 850q42 163 116 464t97 394q7 0 22 -1 t23 -1q1 -11 6.5 -33.5t7.5 -33.5v-8q0 -9 -2 -23q-46 -170 -208.5 -761.5t-248.5 -913.5q-9 -35 -11 -83q-2 -34 -2 -66v-25v-30q0 -32 -1 -69q-9 11 -25.5 29.5t-26 30.5t-16.5 24q-25 41 -47 95t-32.5 87t-30 105.5t-25.5 93.5q-77 264 -110 430q-57 287 -138 772 q-5 34 -7.5 71.5t-4 87t-2.5 71.5z" />
<glyph unicode="W" horiz-adv-x="1255" d="M2 1227q-2 16 -2 34q0 28 5 61q8 53 16 82t28 93q38 -232 112.5 -693t112.5 -693q18 40 58 111t63 116.5t38 111.5q8 37 8 72q0 28 -5 56q-14 71 -36.5 148.5t-53 172.5t-45.5 145q13 -2 43.5 -5.5t52.5 -6.5q20 -87 78 -360h25q121 348 205 581q12 -5 28 -8 q-14 -49 -42.5 -147.5t-43.5 -147.5q4 0 12 -4q78 164 117 250q11 -9 26.5 -21t26.5 -20.5t17 -13.5q-28 -57 -90 -180.5t-107.5 -217t-85.5 -180.5q-5 -13 -6 -29q0 -32 21 -77q57 -118 213 -420q29 146 63.5 370.5t58.5 381.5t71.5 356t109.5 362q1 2 8 2t17.5 -1t13.5 -1 q-18 -69 -142 -528q15 -3 27 -6q31 110 95 332.5t95 332.5q16 -4 25 -4q2 -19 8.5 -51.5t10.5 -54.5q3 -18 3 -37v-10q-1 -24 -12 -37q-21 -27 -38 -62t-24 -57t-19.5 -69t-16.5 -62q-64 -246 -154 -643q-84 -367 -125 -567q-8 -39 -26 -232q-25 1 -46 10.5t-35.5 21.5 t-30 34.5t-23 37.5l-21.5 43l-20 40q-32 60 -61 125t-70.5 163t-59.5 140q-10 -25 -27 -66.5t-27 -66.5t-22 -59.5t-20 -63.5q-4 -13 -15.5 -47.5t-16.5 -53t-10.5 -47.5t-2.5 -56.5t12 -56.5q9 -20 4.5 -57.5t-10.5 -63t-17 -68t-16 -71.5q-15 35 -48 107t-54.5 125.5 t-34.5 105.5q-15 55 -24 116t-17 144.5t-12 118.5q-7 56 -36 278.5t-46 362.5t-31 279z" />
<glyph unicode="X" horiz-adv-x="915" d="M8 -317q65 74 104.5 174t73 219t66.5 188q42 86 54 174q6 43 6 85q0 43 -6 85q-12 82 -48 174q-25 68 -51.5 151.5t-43 141t-44.5 158t-41 145.5q-6 22 -9.5 47.5t-5.5 58.5t-4 50q12 -7 39.5 -21t41.5 -23.5t33.5 -26.5t32 -41.5t19.5 -57.5q15 -65 42 -135t65.5 -156.5 t56.5 -132.5q32 -82 55 -141q33 81 102 273.5t128.5 323.5t138.5 242q4 -2 13.5 -5t13.5 -5q-2 -8 -8 -32.5t-9 -41.5q22 5 88 19q4 -20 4 -21q-282 -665 -342 -796q-33 -73 -33 -148q0 -70 29 -141q61 -152 93 -284q32 -128 32 -257v-8q0 -43 11.5 -124.5t13.5 -100.5 q-8 6 -35 25t-37 27t-31 27t-31 34.5t-21.5 39t-18.5 50.5q-37 149 -174 362q-28 -78 -82 -234.5t-82 -234.5q-4 -11 -6.5 -30t-6 -31t-11 -24.5t-24.5 -17t-44 -1.5q-11 2 -26.5 -15t-38.5 -42.5t-44 -37.5q0 10 -3 32q-3 19 -3 33q0 19 8 28zM309 918q7 -28 32.5 -127 t43.5 -166q13 38 15 73v8q0 30 -10 58q-11 30 -22.5 52.5t-30.5 53t-28 48.5zM467 376q-1 -16 -1 -32q0 -52 15 -100q20 -62 45.5 -116t58 -120t46.5 -117q12 3 47 13q-11 39 -73.5 265.5t-96.5 346.5q-35 -70 -41 -140z" />
<glyph unicode="Y" horiz-adv-x="1189" d="M0 -410q136 219 293.5 509.5t276 523t277 514t304.5 501.5q8 -4 22 -11.5t17 -8.5q-21 -38 -60.5 -109t-56.5 -102q16 6 42 16.5t38 14.5q4 -22 4 -23q-69 -107 -175.5 -308t-158.5 -288q-99 -164 -270 -470.5t-242 -428.5q-31 -54 -122 -153t-121 -148q-14 -21 -68 -29z M346 1448l29 31q0 -64 25 -142t76.5 -191.5t58.5 -131.5q9 -19 28 -89.5t39 -90.5q17 -17 41 -17l-31 -29q-22 0 -39 17q-16 15 -27 45.5t-21 71.5t-19 63q-11 26 -46 103t-55.5 126t-39.5 117t-19 117zM354 1470l29 31q0 -52 13 -105.5t27.5 -88t41.5 -92.5t39 -87 q10 -24 48.5 -133.5t70.5 -163.5l18 19q19 -68 21 -74l-29 -28q-39 48 -65 103.5t-52 134t-41 114.5q-12 30 -39 87.5t-41.5 91.5t-27.5 87t-13 104zM399 1395l29 30q0 -61 37.5 -137.5t84.5 -137t96.5 -134t66.5 -123.5q3 -9 3 -15q0 -9 -6 -14q-12 -9 -29.5 -8.5t-31 -6 t-8.5 -24.5q4 -13 7.5 -27.5t5.5 -24t5 -13.5q10 -7 41 20l-28 -28q-20 -25 -33 -25q-4 0 -8 4t-6.5 12.5t-6.5 26t-6 27.5q-8 26 -25.5 68.5t-27.5 74.5q-18 52 -62.5 139t-71 162t-26.5 154z" />
<glyph unicode="Z" horiz-adv-x="1134" d="M0 1491q14 11 31.5 31t30 31t24.5 12q438 56 682 71h76.5h48.5q35 -1 123 -9.5t119 -10.5q-7 -28 -20.5 -77t-18.5 -71q-31 -6 -57 -18t-47 -32.5t-37 -39.5t-32.5 -50t-26 -51.5t-25 -56.5t-23.5 -53q-92 -197 -248.5 -564.5t-206.5 -479.5q-24 -51 -54 -106.5 t-72.5 -128.5t-65.5 -115q79 5 176.5 20t179.5 30.5t169.5 27.5t178 12t174.5 -17q-156 -59 -328.5 -101.5t-407 -88t-327.5 -66.5q67 232 161.5 469t223 490t236.5 448t274 480q-40 3 -140 11q-99 9 -145 10h-34q-36 0 -86 -1q-74 -2 -134 -17.5t-118 -43.5q-3 -1 -14 -7 t-15.5 -7.5t-15.5 -6t-17 -5t-16 -1.5t-17 2t-15.5 8t-16 14t-14.5 21q-4 9 -19.5 14t-45.5 11t-48 12z" />
<glyph unicode="[" horiz-adv-x="761" d="M2 -248q17 10 59 35.5t62 36.5q-57 -1 -87 13.5t-33.5 40.5t1.5 49.5t16.5 52.5t12.5 38q37 279 47 567.5t8 680.5q0 59 8 106q1 8 5 22.5t5.5 23t1 20t-5.5 18t-16.5 13t-30.5 8.5q12 47 13 55q-21 14 -62 37v33q231 21 469 36q12 0 27.5 -12.5t17.5 -23.5 q1 -7 -4 -15.5t-16 -21t-13 -15.5q-10 -14 -28.5 -37t-22.5 -28h-262v-737l2 -234q1 -233 -2 -233q0 -52 -8 -147.5t-10 -131.5q-3 -50 17 -63.5t75 -4.5t122.5 17t108.5 11.5t128 9.5t114 8q5 1 11.5 -2t15.5 -10.5t14 -10.5q-41 -66 -98 -86.5t-136 -13.5q-6 0 -14 -8.5 t-20.5 -25t-22.5 -26.5q-15 -2 -66 -9.5t-92 -11.5t-80 -5q-40 -1 -62 -23.5t-28.5 -51t-24 -60.5t-46.5 -46q7 23 39 123q-16 6 -52 19t-57 20z" />
<glyph unicode="^" d="M72 1427q49 84 233 408q6 1 15 4l12 4q5 -14 15.5 -38.5t16 -38.5t10 -37.5t-2.5 -36.5q-13 -43 -62.5 -118.5t-62.5 -100.5q-20 -41 -62 -52t-112 6z" />
<glyph unicode="_" horiz-adv-x="1765" d="M19 -254.5q-3 27.5 18 46.5t72 20q274 4 820 12t820 12q6 0 14 -4.5t29 -18t43 -26.5q-209 -39 -387 -74q193 -19 233 -24q0 -38 -2 -56h-1376q-6 28 -8 43h-254q-19 42 -22 69.5z" />
<glyph unicode="`" d="M72 1427q49 84 233 408q6 1 15 4l12 4q5 -14 15.5 -38.5t16 -38.5t10 -37.5t-2.5 -36.5q-13 -43 -62.5 -118.5t-62.5 -100.5q-20 -41 -62 -52t-112 6z" />
<glyph unicode="a" horiz-adv-x="1054" d="M0 -391q160 577 182 659q-120 -66 -135 -73q-9 -6 -43 -11q1 10 0 20t0.5 19.5t5.5 12.5q10 9 111 73q-2 4 -5.5 11.5t-9.5 20.5l-12 26q34 -13 60 -13.5t42 6t29 25.5t20 36t17 48q14 44 34 96t35 88t41 97t38 90q42 94 42 186q0 49 -12 98q-9 40 -9 64q1 16 5 26 q12 22 60 31q-1 -11 -5 -39.5t-4 -44.5t4 -45t5 -43q23 27 41.5 55.5t31.5 62t23.5 58.5t17 64.5t11 61t7.5 67t4 63t2.5 68.5t2.5 65q23 -19 27 -51.5t0 -59.5t8.5 -55t50.5 -42q-6 -13 -18.5 -38.5t-18.5 -39.5q-1 -4 2 -25q7 1 23.5 4.5t27.5 5.5q0 -4 2.5 -15t1.5 -15 q-18 -42 -28.5 -90.5t-14.5 -84.5q-2 -18 -2 -41t2 -52q4 -58 7 -84.5t12 -93.5t12 -87q5 -37 15.5 -103t17.5 -121t10 -104q5 -70 13.5 -107t33.5 -64.5t63 -39.5t109 -22q26 -5 62 -16q-1 -3 -2 -10.5t-2 -10.5h-127q-21 1 -64 5.5t-65 6.5q11 -110 32 -307.5t29 -273.5 q-6 -3 -18.5 -8.5t-18.5 -8.5q-11 18 -37.5 55t-44.5 67t-28 59q-21 66 -50.5 194t-46.5 185q-6 23 -26 45t-41 28q-28 9 -62 17t-58 13t-66.5 13.5t-63.5 12.5q-27 -67 -57 -169.5t-51 -179.5t-63 -169.5t-97 -161.5q-4 2 -13.5 5t-13.5 5zM303 334q187 -11 277 -17 q-66 362 -84 451h-17q-129 -320 -176 -434zM541 903q1 -73 11 -157.5t21 -143.5t31 -156.5t29 -146.5q7 1 21.5 4t21.5 4q-16 101 -50.5 300t-50.5 300q-5 -1 -16.5 -2t-17.5 -2zM614 1069q4 -131 51.5 -389.5t51.5 -390.5q9 0 33 4q-33 258 -99 778q-25 0 -37 -2zM653 193 q3 -13 24 -109t30 -147q3 1 8.5 2t7.5 2q-6 43 -18.5 128t-18.5 128q-13 0 -33 -4z" />
<glyph unicode="b" horiz-adv-x="876" d="M41 -295q-40 36 -40 85q0 52 44 118v-158h25q45 551 51 672q1 12 -7.5 26t-26.5 34.5t-26 31.5q44 50 67 118t27 120.5t6 139t7 130.5q32 330 32 404v8q-2 63 -45 86q-1 -1 -1 0q62 84 163 110q36 9 71 10q63 0 124 -30q271 -129 338 -453q18 -78 18 -149q0 -66 -14 -120 q-14 -56 -39.5 -106t-63 -93t-79 -78t-92.5 -68q22 -25 67 -73t80 -87t64 -76q86 -111 86 -229v-13q-5 -125 -103 -235q-160 -183 -405 -233q-32 -7 -64 -7q-132 0 -264 115zM160 -263q0 -16 17 -40q19 -26 36 -29q45 -9 91 -9q114 0 228 57q158 79 236 227q20 41 28 81 q2 13 3 26q-1 28 -11 60q-16 48 -61 85q-14 12 -78.5 66.5t-101.5 80.5q-16 11 -47 36t-49.5 38.5t-49 30.5t-55.5 23t-58 4.5t-67 -15.5q-61 -651 -61 -722zM240 653q16 -3 49 -8t54.5 -9.5t39.5 -10.5q43 -14 78 -15q80 0 117 74q100 186 131 309q9 36 9 74q0 52 -16 108 q-28 98 -88 178.5t-145 138.5t-170 67q-11 -159 -30.5 -462.5t-28.5 -443.5z" />
<glyph unicode="c" horiz-adv-x="1228" d="M23 236q-22 132 -22 261q0 396 210 763q88 152 203.5 240.5t279.5 96.5q53 2 165.5 21.5t170.5 19.5q30 0 61.5 -10t76 -30t61.5 -27q-3 -10 -10 -25q-70 20 -230 68q45 -60 107 -148q-23 7 -51.5 28.5t-47.5 36t-48 10.5t-62 -38q-41 21 -79 25q-14 2 -28 2 q-22 0 -40 -4q-29 -8 -61.5 -28t-53.5 -39t-51.5 -47t-49.5 -42q-54 -41 -102 -95t-80.5 -102t-69.5 -121.5t-56.5 -118t-53.5 -126.5q-78 -186 -78 -382q0 -176 63 -359q48 -143 140.5 -208t251.5 -81q24 -2 48 -2l80 6q64 10 110 25t107.5 50.5t94 58t97.5 69.5 q33 24 50 36q-101 -191 -323 -344q4 -5 11 -15t11 -15q23 15 308 192q-11 -53 -66.5 -108.5t-133 -93.5t-149.5 -44q-41 -3 -79 -3q-97 1 -181 19q-116 26 -199.5 79.5t-145 137.5t-98.5 184.5t-58 226.5z" />
<glyph unicode="d" horiz-adv-x="735" d="M0 -332q45 -32 89 -31q19 1 37 5q62 18 142 108q-31 1 -88 4t-86 4l-6 -36l-8 -48q-9 0 -25 -4q-2 7 -8.5 23.5t-10 29t-3.5 23.5q69 1295 69 1303q4 85 5 242.5t4 228.5q0 17 6.5 35.5t20 44t18.5 38.5q70 -94 82 -110q7 35 16.5 51.5t27 20.5t44.5 -13 q154 -86 262 -301q92 -175 126 -352q22 -111 21 -220q1 -64 -7 -128q-20 -172 -82.5 -335t-166.5 -331q-36 -58 -67.5 -100.5t-74.5 -88t-94.5 -78t-111.5 -50.5q-39 -12 -65 -12q-18 -1 -30 5q-30 14 -36 72zM115 145q10 -2 30 -2q15 215 46.5 645.5t46.5 645.5 q-5 0 -14.5 1t-14.5 1q-15 -199 -94 -1291zM179 -20q1 -28 5.5 -93.5t5.5 -95.5q106 28 206.5 134t162.5 250.5t62 277.5q-24 -58 -27 -64q-18 -32 -81 -142t-105 -181t-84 -140q-8 -12 -26.5 -19.5t-46 -14.5t-38.5 -11q19 22 75 70.5t72 79.5q96 184 232 504 q46 113 46 181q0 18 -3 32q-37 161 -121.5 311t-222.5 330q-3 -34 -14.5 -150.5t-16.5 -173.5q-73 -894 -80 -993q-1 -43 -1 -70v-22zM365 1445q29 -17 118 -63q-26 29 -78 88.5t-79 90.5q-21 -40 -21 -57q0 -25 60 -59zM381 1376q35 -61 92.5 -161t103 -179.5t85.5 -148.5 q-15 296 -281 489z" />
<glyph unicode="e" horiz-adv-x="1202" d="M0 -354q4 4 16.5 11t20 14t8.5 14q104 501 184 911q86 438 119 659q3 22 -5.5 47.5t-28 62.5t-25.5 50h5q42 -1 66 15t29.5 44t6.5 57t7 59.5t23 47.5q4 -3 26 -18.5t34.5 -27.5t17.5 -27q4 -11 -1 -27.5t-16.5 -43t-17.5 -44.5q49 1 177 8q128 8 194 8h4q66 0 166 -14 q104 -16 192 -53q-72 -39 -152 -63t-144.5 -34t-157 -10t-147.5 4t-157 13q-4 -37 -31.5 -284.5t-43.5 -381.5q28 1 199.5 10t260.5 13q5 -14 9 -35q-124 -47 -226 -88h154q1 -3 2 -11t2 -12q-27 -4 -78.5 -12.5t-93 -14t-78.5 -8.5q-49 -4 -74 -7t-50.5 -12.5t-36 -19 t-21.5 -34.5t-16 -50.5t-13 -74.5q-21 -145 -73 -463q-3 -20 -3 -36q0 -32 13 -48q12 -14 42 -13q19 0 44 5q59 13 172.5 25.5t167.5 23.5q32 5 60 5q34 0 64 -8q54 -15 103 -71q-21 -1 -68.5 -3.5t-72.5 -4.5t-61 -5.5t-66 -8.5q-39 -6 -498 -86q-3 0 -19.5 -3t-21 -3.5 t-18.5 -0.5q-4 0 -6 -1q-9 -1 -13 1q-5 2 -16 5.5t-16.5 9.5t-12 16t-10.5 23zM131 -44q-20 -115 -20 -188q0 -77 22 -108q22 124 64.5 370t64.5 371q-91 -209 -131 -445z" />
<glyph unicode="f" horiz-adv-x="1001" d="M0 -299q13 347 37 825q29 539 61 1016q1 15 7.5 31t16 34.5t13.5 30.5q18 -9 33 -18q-3 -13 -17 -80.5t-22 -109.5q11 4 25 7t21 5t9 6q34 70 75 70q35 0 75 -50q6 -9 49 2q14 3 157.5 34t217.5 42q35 6 73 9t90 4t74 2q3 -21 6 -39q-297 -87 -356 -107 q-99 -32 -283 -110q-18 -8 -33 -25.5t-18 -34.5q-11 -104 -43 -475q75 6 475 41q1 -4 3.5 -12.5t3.5 -12.5q-36 -13 -129 -48.5t-160.5 -59.5t-130.5 -43q-45 -14 -64 -36t-20 -67q-4 -115 -39 -718q-1 -19 -4 -40t-10 -57.5t-11 -58.5q-44 68 -66.5 146t-23.5 145t-1 143 t-1 141h-24v-636q-6 -1 -19.5 -3.5t-19.5 -3.5q-3 11 -11.5 34.5t-12.5 41.5q-3 14 -3 28v7zM98 940q4 0 12.5 -1t12.5 -1q4 42 14 137t15 144q-10 2 -33 2q-9 -137 -21 -281zM152 -14h12q3 79 29 598h-41v-598zM160 739q47 29 74 199q17 104 17 199q0 60 -7 116 q-25 0 -37 2q-6 -75 -14 -160.5t-18 -190.5t-15 -165z" />
<glyph unicode="g" horiz-adv-x="1134" d="M10 793q15 120 49 228t92.5 208.5t137.5 179.5t189 137.5t241 85.5q25 5 53 6h12q24 0 54 -2q37 -2 55 -2q0 -10 4 -30q-6 -2 -25 -10.5t-34 -14.5q25 -10 66.5 -28t60.5 -25q-1 -3 -3.5 -9.5t-3.5 -9.5q-9 1 -52 9t-66 10t-46 2q-45 0 -88 -9q-63 -14 -111.5 -40.5 t-95.5 -70t-81 -86.5t-72 -101q-139 -213 -139 -437q0 -136 51 -276q4 -11 4 -22q0 -22 -14 -42q-7 13 -103 195q-2 -14 -7.5 -59t-7 -61.5t-4.5 -57.5t-2 -60t3 -55t8.5 -57t16.5 -52.5t25.5 -54.5t36.5 -49t48 -49q57 -49 131.5 -74.5t137.5 -29.5t149 -11.5t145 -23.5 q-74 -35 -181 -35q-53 0 -115 9q-185 26 -312 110q13 -67 46.5 -119.5t80.5 -90t94 -65.5t104.5 -63.5t94.5 -67.5q-175 48 -294.5 130.5t-182.5 230.5q-93 217 -134 413q-26 121 -26 243q0 76 10 153zM100 901q2 67 21.5 129.5t57 122t73.5 104.5t90 105 q-48 -89 -133.5 -253.5t-108.5 -207.5zM100 901q23 43 108.5 207.5t133.5 253.5q-54 -60 -90 -105t-73.5 -104.5t-57 -122t-21.5 -129.5zM504 387q76 30 127 51q11 93 14 115q14 -12 39 -36t40 -34.5t30 -11.5q3 0 22 -2.5t24 -3t22.5 -1t23.5 1t20.5 4t20.5 7.5t16 12.5 t15.5 18.5t10.5 26t7 33q12 -17 31 -45t32 -47q11 28 29.5 75.5t28.5 74.5q20 -46 46.5 -106.5t31.5 -72.5q-9 -27 -26 -71.5t-26.5 -75.5t-13.5 -59q-7 -66 -13 -208.5t-14 -215.5q-4 -42 -98 -92q41 74 56 162q11 64 11 121q0 21 -1 41q-6 74 -8 162v24q0 73 8 135 q-8 1 -26 3t-26 3q-5 -41 -21 -195t-26 -237q-22 -173 -49 -285q-10 -42 -36 -60q-13 -8 -24 -8q-12 0 -22 9q40 271 113 782q-83 -4 -206 -11t-175 -10q-1 6 -4 15z" />
<glyph unicode="h" horiz-adv-x="892" d="M0 1434q30 5 35 6q7 -11 24 -39t27 -45q10 47 29.5 139t29.5 143q38 -98 57 -206t21 -210q1 -46 1 -90q0 -54 -2 -108q-2 -68 -1 -144v-62q1 -110 12 -195h424q-2 46 -20.5 384t-26.5 513q14 -43 26 -89t21 -83.5t17.5 -92.5t13.5 -85t10 -93t7.5 -85.5t6 -93.5 t4.5 -86.5t4 -94.5t3 -88h43q28 437 65 944q18 2 56 2q1 -25 3.5 -86t2.5 -85.5t-2 -84.5q-6 -83 -29.5 -348.5t-30.5 -409.5q-9 -168 -18 -481t-10 -371q0 -14 -5 -29.5t-14 -38t-14 -38.5q-10 41 -65 286q-15 -99 -46 -288q-4 0 -20 4v940q-264 -79 -315 -92 q-62 -17 -87 -57q-21 -33 -21 -83q0 -10 1 -20q21 -308 39 -602v-17q0 -47 -14 -84q-46 85 -64 192q-16 94 -17 175q1 11 1 21q1 30 0 62q0 64 -3 140q-5 114 -26 197v-637h-35q-30 154 -40 334q-9 151 -9 293v53q2 166 4 334v50q1 144 -9 296q-12 180 -44 334zM137 565 q3 0 9.5 -1t9.5 -1v744h-19v-742z" />
<glyph unicode="i" horiz-adv-x="1204" d="M0 -248q19 37 52.5 60t69 35.5t70.5 26t65.5 42.5t45.5 74h-258q0 3 1 10t1 10q28 8 88.5 17.5t102 22.5t65.5 38q16 17 27 39.5t18 55t10.5 53.5t8 62.5t6.5 55.5q19 130 58 425.5t63 453.5q4 26 15 54t31 69.5t31 68.5h-415q33 40 73 70t75 47t83.5 30.5t81.5 19 t87.5 14t84.5 14.5q89 19 177 19q101 0 202 -25q108 -25 184 -70q-38 -17 -86 -18h-11q-42 0 -81 6q-44 8 -88 12l-26 2q-32 0 -62 -8q-44 -10 -78 -41q1 -7 2 -21.5t2 -21.5q40 -12 84 -24q-3 -5 -6 -11.5t-4.5 -9.5t-3.5 -2q-61 0 -84 -31.5t-33 -99.5 q-18 -114 -39.5 -231.5t-55.5 -292.5t-44 -230q-14 -77 -38 -219.5t-34 -200.5q117 -8 375 -20v-29q-360 -68 -401 -76q0 -8 4 -24h235q5 -20 6 -23q-7 -2 -33.5 -8.5t-43 -9t-33.5 -2.5h-11q-133 0 -139 -146q-1 -7 -1 -22t-1.5 -25.5t-5.5 -17.5q-5 -8 -13.5 -15 t-25 -17.5t-18.5 -12.5q-2 6 -7 19t-7.5 23t-2.5 19q1 13 8.5 41t8.5 43q5 24 -6 58q-2 5 -18 5.5t-19 -3.5q-27 -41 -28 -61q0 -15 7 -58q4 -28 12.5 -77.5t12.5 -72.5q-46 22 -69 53.5t-25.5 58t-4 66t-6.5 60.5q-106 -29 -268 -76zM481 348q55 236 205 983q3 15 3 26 q0 28 -16 39q-11 7 -27 7q-17 0 -40 -8q-10 -88 -28.5 -264.5t-28.5 -264.5q-8 -73 -68 -518z" />
<glyph unicode="j" horiz-adv-x="880" d="M0 -41q3 2 10 5t10 5q12 -12 48 -44t57.5 -56t34.5 -51q19 -35 28.5 -51t29 -37.5t43.5 -29t56 -5.5q36 3 61.5 6.5t56.5 12.5t54 23t46 38t40 57q16 31 27 62t15 68.5t7 60.5q1 10 1 24q0 19 -2 45q-4 45 -5.5 60t-9 68.5t-8.5 62.5q-17 117 -38.5 244.5t-52 296.5 t-44.5 251q-9 -7 -20 -15.5t-17.5 -13.5t-9.5 -8q-3 21 -4.5 73.5t-8.5 88.5t-26 57q-17 17 -51 21q-23 3 -53 3q-16 0 -35 -1q-29 -1 -50 -1q-16 0 -26 1q0 5 1 16t1 17q27 5 170 30q1 4 2 11.5t2 11.5q-67 21 -199 59q13 43 35 121h240q1 8 7.5 41.5t8.5 50.5h33 q13 -45 36.5 -73t51.5 -38t61 -14q21 -2 42 -2q13 0 26 1q15 1 31 1l37 -2q86 -4 129 -8q0 -25 2 -37h-355q0 -8 -1 -23t-1 -22h258v-39q-172 -20 -260 -30v-23q34 -4 126.5 -14.5t142.5 -16.5q0 -16 2 -24h-295q27 -88 85 -284t101.5 -336.5t87.5 -270.5q42 -126 42 -237 q0 -221 -165 -388q-5 -5 -26 -28t-29 -31t-27 -26.5t-31 -27.5t-29.5 -20t-33.5 -18q-43 -17 -89 -17q-59 0 -123 28q-113 51 -177 157q-16 26 -29.5 55.5t-30 70.5t-24.5 58zM649 494q35 -289 64 -494q26 62 32 126q2 19 2 38q0 44 -10 90q-14 64 -34.5 118t-53.5 122z" />
<glyph unicode="k" horiz-adv-x="964" d="M0 1204q0 22 24 62q24 42 27 61q12 83 25 297q5 2 15 7t15 7q6 -11 20 -32.5t22 -38.5t8 -33v-19q0 -43 -6.5 -115t-6.5 -115v-19q3 -89 18 -258.5t19 -221.5q59 81 130 202t122 213t129 197t162 179q6 -5 39 -27q-230 -297 -328 -422q1 0 3 -1t3 -1q246 228 322 293 q46 41 125 74q13 3 19.5 3t22.5 -3t23 -4q-3 -4 -16 -23t-21 -28q-106 -111 -317 -332t-317 -332q-33 -34 -33 -63v-3q2 -31 41 -73q133 -149 383 -443t293 -344q-48 -11 -87 -11q-30 1 -55 7q-57 14 -98 64q-216 244 -565 647q-4 -50 -14 -147.5t-16 -175.5q-5 -67 -5 -130 v-20q1 -73 15 -236t14 -256q-13 17 -39 53l-39 54q-9 -3 -62 -31v62q4 57 16 183.5t18 222.5q4 70 4 136q0 24 -1 47q-3 167 -25 475q-26 380 -26 412z" />
<glyph unicode="l" horiz-adv-x="825" d="M0 -223v1849q3 1 10 2t10 2q16 -64 33 -139q16 6 25 22t10.5 34t5.5 37.5t10.5 32.5t25.5 19q8 3 18 3q14 0 32 -5q-53 -162 -65 -202q4 0 14 -5q13 25 70 136q-10 -244 -31.5 -806.5t-34.5 -865.5q75 2 179 11.5t177 17.5q68 7 152 7q5 -1 11 -1q90 0 167 -14 q1 -7 3 -21.5t3 -21.5q-23 -3 -91.5 -14t-106.5 -13q-17 -1 -52.5 -2t-56.5 -2t-51.5 -5.5t-56.5 -12.5q56 -3 173 -10t185 -11q-58 -31 -124 -41q-43 -6 -82 -6q-22 0 -44 2q-60 6 -117 12q-36 4 -73 4q-24 0 -46 -2q-60 -4 -110 -26v-35l6 -117q-5 7 -18 29.5t-23.5 37 t-21.5 26.5q-13 14 -29 27t-42.5 33t-43.5 34zM86 -16h18v1214h-18v-1214z" />
<glyph unicode="m" horiz-adv-x="1204" d="M0 1620q4 3 13.5 9t13.5 9q89 -117 275 -360.5t284 -372.5l153 375q13 32 66 139q18 41 39 67.5t52 44.5q29 17 64 17h6q39 -2 93 -18q-64 -107 -80 -141q-34 -66 -99.5 -199.5t-99.5 -200.5q-32 -63 -50 -115q-16 -51 -24 -111q-2 -18 -3 -36q1 -42 13 -84 q18 -60 60 -119q-7 -1 -21.5 -3t-21.5 -3q-13 17 -43 56.5t-47 62.5q-1 -3 -6.5 -17.5t-8 -19.5t-7.5 -13.5t-11 -13.5q-11 -11 -29 -16.5t-28 -1.5q-24 8 -41 51q-8 17 -27.5 71t-35.5 81q-68 111 -269 418q0 -74 -1 -256q-1 -122 -1 -221v-94q0 -132 4 -255 q3 -91 9.5 -193t17 -230.5t14.5 -194.5l4.5 -22.5t3.5 -26.5l-6 -93q-5 9 -17 26.5t-19 31.5t-9 28l-9 75t-10 81t-12.5 75t-19.5 81q-7 -43 -19.5 -121t-17.5 -109q-10 0 -26 4q-14 141 -14 309v20q0 157 8 291q8 144 13 310q5 151 5 284v27q0 145 -19.5 308.5t-58.5 308.5 zM197 1260q51 -83 153.5 -248t153.5 -248q8 5 24.5 15.5t24.5 15.5q-110 208 -338 481q-6 -4 -18 -16zM877 27.5q0 37.5 4 70.5q63 507 166 1282q6 50 48 84.5t109 48.5q-100 -674 -131 -874q-31 -206 -31 -443q0 -203 23 -429q-16 0 -31 -3q-23 43 -43 78q-7 -21 -21.5 -62 t-21.5 -61l-20 5q17 189 82 970q-5 1 -15.5 2t-15.5 2q-12 -134 -35.5 -410.5t-36.5 -416.5h-26q0 25 -2 72t-2 84.5z" />
<glyph unicode="n" horiz-adv-x="974" d="M0 -367h37q5 33 18.5 95t22 113t8.5 96q4 255 4 499q0 299 -6 584q0 39 -7 79t-23.5 102.5t-20.5 78.5q-1 6 -1 15q0 49 37 171q44 144 76 162v-391q20 32 47.5 78t36.5 61q5 -3 16.5 -8t16.5 -8q-30 -58 -33 -118v-20q1 -48 13 -90q16 -50 49 -114q66 -129 134.5 -274 t152 -327.5t127.5 -275.5q21 -48 59 -73v553l-2 310v136q0 174 2 174q1 29 8 61.5t18.5 71.5t16.5 62q20 -8 35 -13q-7 -48 -20.5 -144t-20.5 -144q5 -1 15 -3.5t15 -3.5q10 44 26 161.5t41 198.5t77 150q-10 -265 -33.5 -917t-36.5 -1008q-23 -14 -44.5 -6.5t-33 20.5 t-27 29.5t-28.5 20.5q-47 16 -84 48.5t-53.5 57.5t-44.5 74q-44 77 -95.5 171t-85 157.5t-96 180.5t-88.5 167q8 -160 24.5 -502.5t24.5 -521.5q-16 -4 -26 -4q-9 53 -45 245q-36 -6 -55 -26.5t-22 -42.5t-6.5 -54t-10.5 -49q-7 -18 -27.5 -49t-24.5 -39q-9 7 -28.5 21.5 t-28.5 21.5zM221 954q43 -164 86.5 -294.5t105 -273t143.5 -270.5t183 -239q-82 181 -245.5 544t-245.5 544q-25 -10 -27 -11zM848 43h22v862h-22v-862z" />
<glyph unicode="o" horiz-adv-x="1015" d="M0 381v30q0 101 11 223q13 140 46 261q87 327 265 578q9 12 27.5 39.5t27.5 40t27.5 32t34.5 28.5t40.5 17t52.5 8h7q119 0 170 -96q148 -270 229 -514q78 -235 78 -484v-18q-8 -43 -20.5 -120t-23.5 -139t-24 -117q-23 -99 -81 -177t-156 -168q-7 -6 -38 -34t-41 -36.5 t-37.5 -31.5t-43.5 -33t-41 -25t-48.5 -25t-49.5 -17q-48 -13 -89 -13q-43 0 -81 15q-72 28 -131 112q-16 22 -29 48t-22 46.5t-16.5 51.5t-11.5 48.5t-7.5 53t-5 49t-4 53.5t-3.5 50q-10 152 -12 264zM141 -14q5 -69 50.5 -154t103.5 -111q40 -19 88 -23q12 -1 23 -2 q34 0 63 11q93 35 190 150.5t155 246.5q53 119 53 199q0 8 -1 16q-205 -354 -245 -421q-52 -85 -109 -104q-17 -6 -37 -6q-45 0 -104 30q-39 21 -78.5 49.5t-86 66.5t-65.5 52zM188 1038q41 69 122 209t122 209q-100 -69 -154 -171.5t-90 -246.5zM201 55q21 -69 66.5 -118 t99.5 -68q33 -11 67 -12q22 -1 45 5q58 12 101 60q65 71 112 166q76 153 104 323q17 99 17 198q-1 71 -9 143q-20 172 -105.5 339t-229.5 298q-2 -1 -8 -7q-36 -45 -64 -86q-261 -401 -261 -819q0 -209 65 -422zM608 1520q201 -497 342 -836q-53 451 -313 846 q-15 -3 -29 -10z" />
<glyph unicode="p" horiz-adv-x="878" d="M0 -170q14 312 41.5 911.5t40.5 884.5l18 12q7 -16 21.5 -49t21.5 -49q94 40 171 52q30 4 59 4q47 0 93 -12q74 -18 143.5 -74.5t138.5 -153.5q12 -18 38.5 -50.5t38.5 -50.5q43 -61 50 -129q2 -20 2 -39q0 -47 -12 -87q-17 -57 -54 -123q-45 -79 -91 -140.5t-107 -117 t-128.5 -89t-154.5 -48.5q-51 -9 -108 -9q-37 0 -77 4q19 -475 33 -874q-5 -2 -15.5 -6.5t-15.5 -6.5q-37 85 -49.5 188t-15.5 226t-14 195q-4 -61 -12.5 -185t-12.5 -186q-7 0 -21.5 1t-21.5 1zM166 539q0 -2 3.5 -5.5t11 -10t12.5 -11.5q1 12 2.5 24.5l1.5 12.5 q25 3 65.5 4t67 4.5t47.5 13.5q229 108 338 406q20 56 21 117q1 5 1 10q0 55 -14 105q-15 55 -48 103.5t-78 81.5t-107 48q-37 8 -77 8q-28 0 -57 -4q-133 -18 -141 -137q-24 -302 -49 -770z" />
<glyph unicode="q" horiz-adv-x="1069" d="M0 -397q62 85 183 247.5t143 192.5q-81 44 -136.5 102.5t-85 129t-43 139.5t-16.5 155q-1 32 -1 64q0 383 165 727q98 207 289 270q23 8 45 8q75 0 123 -102q7 -16 20 -33t23.5 -27.5t30.5 -29.5t28 -27q232 -236 291 -530q8 -41 8 -94.5t-3.5 -84.5t-12.5 -96 q-5 -44 -28 -125t-26 -94l35 4q-13 -31 -34.5 -90.5t-30.5 -81.5q-47 -13 -103 -49q-36 -17 -85 -49.5t-85.5 -55.5t-81.5 -41q-40 -16 -83 -16h-14q-51 3 -107 29q-16 -36 -40 -103t-40.5 -108.5t-50.5 -91.5t-78 -84q8 25 53 139q-175 -151 -240 -207q-2 2 -6 6.5t-6 6.5z M129 555q13 -130 74 -189t192 -71q5 11 21 46.5t30 64.5q6 -22 14 -50.5t11 -42.5q11 25 28 59.5t23 47.5q22 -6 27 -8q-4 -66 -6 -105q13 3 38 11t42.5 12t33.5 2q13 -1 26 -1q22 0 41 3q31 5 52.5 14t41.5 28t31.5 34.5t25 44t20 45.5t18 50.5t17.5 49.5q10 30 10 57 q0 12 -2 23q-5 27 -17.5 95.5t-19.5 104.5t-20.5 90.5t-28.5 98.5q-25 75 -52 132.5t-67.5 115.5t-98.5 99t-132 63q-1 1 -1.5 4t-1.5 8.5t-3 9.5q13 2 35.5 8.5t33.5 8.5q-32 44 -64 44q-29 0 -59 -38q-91 -117 -120 -168q-199 -354 -199 -689q0 -56 6 -112zM233 256 q42 -59 115 -156q14 39 16 66.5t-3.5 41.5t-21.5 23t-30 11.5t-38 6t-38 7.5zM434 104q16 -1 31 -1q95 0 175 33q93 37 118 97q-21 -9 -79.5 -32t-90.5 -37q-4 8 -8 20q26 14 76.5 43.5t76.5 44.5q-27 -7 -72 -10t-77 -7.5t-66 -18t-55.5 -46t-28.5 -86.5z" />
<glyph unicode="r" horiz-adv-x="1132" d="M0 -291q5 25 15 71t16.5 83t9.5 71q4 53 19.5 230t22.5 260.5t16.5 221.5t15.5 251q4 37 4 145q0 62 -1 146q-3 186 -3 261v30q2 31 51 80q58 65 196 77q34 3 68 3q102 0 203 -27q134 -36 194 -99q8 -8 41.5 -42t47.5 -49t35.5 -42.5t35.5 -52.5q51 -93 61 -209 q2 -29 3 -58q0 -85 -21 -167q-28 -110 -92.5 -210.5t-155.5 -166.5q-53 -36 -200 -129q64 -82 551 -700q-38 0 -91 -11h-2v-2q-32 -8 -73 -24q-67 51 -107 141q-20 43 -58 86t-87.5 90.5t-75.5 79.5q-80 96 -150 211q-16 28 -31 47t-36.5 36.5t-45 24.5t-57 4.5t-73.5 -16.5 v-764h-51v684h-25q-75 -551 -76 -559q-71 -3 -94 -6zM213 1505q7 -2 20.5 -6t20.5 -6v-887q66 2 141 6q-8 67 -8 68q18 -2 44.5 -8.5t42 -10t38 -5t31.5 5.5q242 128 321 401q14 45 14 83q0 89 -79 134q-193 109 -287 152q-24 11 -54.5 19.5t-68.5 16.5t-57 13q56 12 110 12 q66 0 130 -18q116 -32 255 -111q-31 70 -76 111t-99.5 55t-105 17t-114.5 5.5t-106 12.5q-4 1 -8 1q-10 0 -24 -8q-18 -10 -43 -28t-38 -25zM578 481q99 13 215.5 127.5t126.5 186.5q-42 -39 -159 -146t-183 -168z" />
<glyph unicode="s" horiz-adv-x="1060" d="M0 -215l27 16q18 -6 78.5 -27t101 -31.5t80.5 -14.5q37 -4 73 -4q132 0 249 50q148 62 257 199q42 53 60 103q12 35 12 69q0 15 -2 29q-8 46 -59 79.5t-142 45.5q-152 20 -274 88t-232 186q-95 101 -125 221q-18 73 -17 154q0 52 7 109q51 434 451 569q41 14 89 13 q67 0 147 -26q138 -46 200 -134q-129 71 -139 77q-6 -18 -15.5 -43t-11.5 -32q-62 61 -101 79q-23 10 -46 10q-18 0 -34 -5q-40 -13 -110 -66q-71 -52 -130 -140t-91 -187q-31 -98 -41 -201q-2 -27 -3 -52q0 -72 20 -133q15 -50 67 -94q54 -45 122 -68q49 -17 94 -17 q18 0 34 3q24 3 158 29q45 10 84 10q68 1 118 -29q79 -46 91 -163q13 -116 13 -221q0 -130 -20 -246q-17 -108 -110.5 -208.5t-221.5 -153.5q-90 -37 -170 -37q-33 0 -65 6q-75 15 -167 19q-43 2 -82 1q-44 0 -83 -2q-21 24 -51 47q25 3 47 0q-23 20 -68.5 61.5t-68.5 61.5z M211 922q18 139 51 378q-82 -90 -82 -213q0 -76 31 -165zM381 522q39 -54 95.5 -87.5t118.5 -49t124 -26.5t129 -32.5t115 -56.5q-33 132 -115 200q-79 66 -193 65h-10q-40 -1 -85.5 -3t-98.5 -5.5t-80 -4.5z" />
<glyph unicode="t" horiz-adv-x="1308" d="M20 1290q-19 34 -19 60q0 49 69 67q46 12 138 34.5t138 35.5q87 20 154 47q-28 6 -59 6q-19 0 -40 -2q-54 -6 -99 -18q-37 -10 -81 -10h-18q-54 2 -99 28q80 4 186 32q106 29 208 51q77 17 147 17q22 0 43 -2q56 -4 276 -9t345 -23q-5 -3 -31.5 -23t-42.5 -22 q-98 -13 -285.5 -36t-273.5 -34q10 -127 10 -275q0 -11 1 -22q0 -135 -6 -255q-6 -130 -12.5 -270.5t-6.5 -274.5t9 -267t36.5 -270.5t74.5 -264.5q-53 5 -70 18q-27 22 -53 122q-11 44 -43 180q-6 -43 -17 -128t-17 -128q-30 -9 -52 -9q-26 0 -40 12q-26 21 -25 82v9 q18 499 20 856q2 136 2 828q-63 -19 -221 -67.5t-246 -74.5zM561 98h4q23 655 51 1348q-9 0 -27.5 1t-27.5 1v-1350z" />
<glyph unicode="u" horiz-adv-x="1095" d="M2 1153q4 269 199 428q-7 -44 -30 -201t-36 -237q-38 -230 -38 -440q0 -295 75 -549q22 -75 46 -120.5t63.5 -75t88.5 -42.5t128 -20q16 -2 33.5 -9.5t44.5 -23t45 -23.5q222 146 289 328q30 82 30 173q0 111 -45 237q-33 91 -63.5 205.5t-46.5 189t-45 221.5t-40 199 q-6 34 -6 73q0 6 -1 13q1 34 3 77q2 51 2 76q7 1 21.5 3t21.5 3q37 -93 69 -191.5t60.5 -214.5t45.5 -192.5t46 -218.5t42 -200q6 1 17 4t17 4q-117 585 -198 981q15 -12 36 -26t30.5 -22t11.5 -16q11 -51 39 -175.5t43 -192t34.5 -170.5t32.5 -189q4 -24 7.5 -51t6 -48 t4.5 -52.5t3.5 -48t2.5 -53t1.5 -48.5t1.5 -53t1 -48v-53q0 -42 1 -52q0 -100 -62 -226q-62 -128 -154.5 -234t-206.5 -181.5t-208 -80.5q2 6 6 16.5t6.5 18t3.5 13.5q0 2 -12.5 8.5t-17.5 3.5q-56 -24 -104 -24q-31 0 -59 10q-70 25 -116 104q-1 2 -20 34.5t-22.5 38.5 t-19.5 35.5t-20.5 40.5t-17 36.5t-17 41t-11.5 37.5t-10.5 41.5t-4.5 38.5q-29 380 -29 824q0 120 2 245z" />
<glyph unicode="v" horiz-adv-x="937" d="M0 1487q32 -10 57.5 -27t44 -41.5t30.5 -45.5t22.5 -55.5t15 -55t12.5 -58.5q25 -124 57 -358t42 -297q7 -47 79 -494q83 296 231 829t202 728q3 1 7 0.5t13 -1.5t16 -1q-420 -1638 -428 -1667q9 -2 26 -7.5t19 -5.5q185 708 220 850q42 163 116 464t97 394q7 0 22 -1 t23 -1q1 -11 6.5 -33.5t7.5 -33.5v-8q0 -9 -2 -23q-46 -170 -208.5 -761.5t-248.5 -913.5q-9 -35 -11 -83q-2 -34 -2 -66v-25v-30q0 -32 -1 -69q-9 11 -25.5 29.5t-26 30.5t-16.5 24q-25 41 -47 95t-32.5 87t-30 105.5t-25.5 93.5q-77 264 -110 430q-57 287 -138 772 q-5 34 -7.5 71.5t-4 87t-2.5 71.5z" />
<glyph unicode="w" horiz-adv-x="1255" d="M2 1227q-2 16 -2 34q0 28 5 61q8 53 16 82t28 93q38 -232 112.5 -693t112.5 -693q18 40 58 111t63 116.5t38 111.5q8 37 8 72q0 28 -5 56q-14 71 -36.5 148.5t-53 172.5t-45.5 145q13 -2 43.5 -5.5t52.5 -6.5q20 -87 78 -360h25q121 348 205 581q12 -5 28 -8 q-14 -49 -42.5 -147.5t-43.5 -147.5q4 0 12 -4q78 164 117 250q11 -9 26.5 -21t26.5 -20.5t17 -13.5q-28 -57 -90 -180.5t-107.5 -217t-85.5 -180.5q-5 -13 -6 -29q0 -32 21 -77q57 -118 213 -420q29 146 63.5 370.5t58.5 381.5t71.5 356t109.5 362q1 2 8 2t17.5 -1t13.5 -1 q-18 -69 -142 -528q15 -3 27 -6q31 110 95 332.5t95 332.5q16 -4 25 -4q2 -19 8.5 -51.5t10.5 -54.5q3 -18 3 -37v-10q-1 -24 -12 -37q-21 -27 -38 -62t-24 -57t-19.5 -69t-16.5 -62q-64 -246 -154 -643q-84 -367 -125 -567q-8 -39 -26 -232q-25 1 -46 10.5t-35.5 21.5 t-30 34.5t-23 37.5l-21.5 43l-20 40q-32 60 -61 125t-70.5 163t-59.5 140q-10 -25 -27 -66.5t-27 -66.5t-22 -59.5t-20 -63.5q-4 -13 -15.5 -47.5t-16.5 -53t-10.5 -47.5t-2.5 -56.5t12 -56.5q9 -20 4.5 -57.5t-10.5 -63t-17 -68t-16 -71.5q-15 35 -48 107t-54.5 125.5 t-34.5 105.5q-15 55 -24 116t-17 144.5t-12 118.5q-7 56 -36 278.5t-46 362.5t-31 279z" />
<glyph unicode="x" horiz-adv-x="915" d="M8 -317q65 74 104.5 174t73 219t66.5 188q42 86 54 174q6 43 6 85q0 43 -6 85q-12 82 -48 174q-25 68 -51.5 151.5t-43 141t-44.5 158t-41 145.5q-6 22 -9.5 47.5t-5.5 58.5t-4 50q12 -7 39.5 -21t41.5 -23.5t33.5 -26.5t32 -41.5t19.5 -57.5q15 -65 42 -135t65.5 -156.5 t56.5 -132.5q32 -82 55 -141q33 81 102 273.5t128.5 323.5t138.5 242q4 -2 13.5 -5t13.5 -5q-2 -8 -8 -32.5t-9 -41.5q22 5 88 19q4 -20 4 -21q-282 -665 -342 -796q-33 -73 -33 -148q0 -70 29 -141q61 -152 93 -284q32 -128 32 -257v-8q0 -43 11.5 -124.5t13.5 -100.5 q-8 6 -35 25t-37 27t-31 27t-31 34.5t-21.5 39t-18.5 50.5q-37 149 -174 362q-28 -78 -82 -234.5t-82 -234.5q-4 -11 -6.5 -30t-6 -31t-11 -24.5t-24.5 -17t-44 -1.5q-11 2 -26.5 -15t-38.5 -42.5t-44 -37.5q0 10 -3 32q-3 19 -3 33q0 19 8 28zM309 918q7 -28 32.5 -127 t43.5 -166q13 38 15 73v8q0 30 -10 58q-11 30 -22.5 52.5t-30.5 53t-28 48.5zM467 376q-1 -16 -1 -32q0 -52 15 -100q20 -62 45.5 -116t58 -120t46.5 -117q12 3 47 13q-11 39 -73.5 265.5t-96.5 346.5q-35 -70 -41 -140z" />
<glyph unicode="y" horiz-adv-x="1189" d="M0 -410q136 219 293.5 509.5t276 523t277 514t304.5 501.5q8 -4 22 -11.5t17 -8.5q-21 -38 -60.5 -109t-56.5 -102q16 6 42 16.5t38 14.5q4 -22 4 -23q-13 -21 -162 -246t-221 -346q-105 -174 -295.5 -506.5t-224.5 -390.5q-53 -92 -186 -307q-14 -21 -68 -29zM346 1448 l29 31q0 -64 25 -142t76.5 -191.5t58.5 -131.5q9 -19 28 -89.5t39 -90.5q17 -17 41 -17l-31 -29q-22 0 -39 17q-16 15 -27 45.5t-21 71.5t-19 63q-11 26 -46 103t-55.5 126t-39.5 117t-19 117zM354 1470l29 31q0 -52 13 -105.5t27.5 -88t41.5 -92.5t39 -87 q10 -24 48.5 -133.5t70.5 -163.5l18 19q19 -68 21 -74l-29 -28q-39 48 -65 103.5t-52 134t-41 114.5q-12 30 -39 87.5t-41.5 91.5t-27.5 87t-13 104zM399 1395l29 30q0 -80 27 -155.5t71 -161t62 -139.5q8 -23 19.5 -51t19.5 -49t14 -44q4 -13 7.5 -27.5t5.5 -24t5 -13.5 q10 -7 41 20l-28 -28q-20 -25 -33 -25q-4 0 -8 4t-6.5 12.5t-6.5 26t-6 27.5q-8 26 -25.5 68.5t-27.5 74.5q-18 52 -62.5 139t-71 162t-26.5 154z" />
<glyph unicode="z" horiz-adv-x="1134" d="M0 1491q14 11 31.5 31t30 31t24.5 12q438 56 682 71h76.5h48.5q35 -1 123 -9.5t119 -10.5q-7 -28 -20.5 -77t-18.5 -71q-31 -6 -57 -18t-47 -32.5t-37 -39.5t-32.5 -50t-26 -51.5t-25 -56.5t-23.5 -53q-92 -197 -248.5 -564.5t-206.5 -479.5q-24 -51 -54 -106.5 t-72.5 -128.5t-65.5 -115q79 5 176.5 20t179.5 30.5t169.5 27.5t178 12t174.5 -17q-156 -59 -328.5 -101.5t-407 -88t-327.5 -66.5q67 232 161.5 469t223 490t236.5 448t274 480q-40 3 -140 11q-99 9 -145 10h-34q-36 0 -86 -1q-74 -2 -134 -17.5t-118 -43.5q-3 -1 -14 -7 t-15.5 -7.5t-15.5 -6t-17 -5t-16 -1.5t-17 2t-15.5 8t-16 14t-14.5 21q-4 9 -19.5 14t-45.5 11t-48 12z" />
<glyph unicode="|" horiz-adv-x="190" d="M0 1491q10 2 29 2q18 -76 28 -127q4 0 12.5 1t12.5 1v270q32 -71 60 -327.5t41.5 -567.5t-1 -639t-61.5 -514q-10 30 -10 39q-8 134 -24 403.5t-24 403.5q-10 185 -33 526.5t-28 423.5q-2 17 -2 105zM133 342q5 0 15.5 1t15.5 1q-4 75 -11.5 220t-11.5 214q-1 0 -4 -1 t-4 -1v-434z" />
<glyph unicode="&#xb4;" d="M72 1427q49 84 233 408q6 1 15 4l12 4q5 -14 15.5 -38.5t16 -38.5t10 -37.5t-2.5 -36.5q-13 -43 -62.5 -118.5t-62.5 -100.5q-20 -41 -62 -52t-112 6z" />
<glyph unicode="&#x2dc;" d="M72 1427q49 84 233 408q6 1 15 4l12 4q5 -14 15.5 -38.5t16 -38.5t10 -37.5t-2.5 -36.5q-13 -43 -62.5 -118.5t-62.5 -100.5q-20 -41 -62 -52t-112 6z" />
<glyph unicode="&#x2000;" horiz-adv-x="1086" />
<glyph unicode="&#x2001;" horiz-adv-x="2173" />
<glyph unicode="&#x2002;" horiz-adv-x="1086" />
<glyph unicode="&#x2003;" horiz-adv-x="2173" />
<glyph unicode="&#x2004;" horiz-adv-x="724" />
<glyph unicode="&#x2005;" horiz-adv-x="543" />
<glyph unicode="&#x2006;" horiz-adv-x="362" />
<glyph unicode="&#x2007;" horiz-adv-x="362" />
<glyph unicode="&#x2008;" horiz-adv-x="271" />
<glyph unicode="&#x2009;" horiz-adv-x="434" />
<glyph unicode="&#x200a;" horiz-adv-x="120" />
<glyph unicode="&#x2013;" horiz-adv-x="917" d="M35 766q3 4 8 13.5t8 13.5q41 3 819 65q-67 -63 -142.5 -99t-152.5 -47t-145.5 -12t-153.5 -2t-145 -10q-12 -2 -28 11t-36.5 35.5t-31.5 31.5z" />
<glyph unicode="&#x2018;" d="M72 1427q49 84 233 408q6 1 15 4l12 4q5 -14 15.5 -38.5t16 -38.5t10 -37.5t-2.5 -36.5q-13 -43 -62.5 -118.5t-62.5 -100.5q-20 -41 -62 -52t-112 6z" />
<glyph unicode="&#x2019;" d="M72 1427q49 84 233 408q6 1 15 4l12 4q5 -14 15.5 -38.5t16 -38.5t10 -37.5t-2.5 -36.5q-13 -43 -62.5 -118.5t-62.5 -100.5q-20 -41 -62 -52t-112 6z" />
<glyph unicode="&#x201c;" d="M72 1427q49 84 233 408q6 1 15 4l12 4q5 -14 15.5 -38.5t16 -38.5t10 -37.5t-2.5 -36.5q-13 -43 -62.5 -118.5t-62.5 -100.5q-20 -41 -62 -52t-112 6zM385 1331q95 162 260 438q93 -13 98 -14q51 -13 32 -49q-4 -7 -9 -14q-26 -33 -92 -121t-105 -135q-5 -7 -17 -24 t-19 -25t-22 -21t-30.5 -19.5t-40 -11t-55.5 -4.5z" />
<glyph unicode="&#x201d;" d="M72 1427q49 84 233 408q6 1 15 4l12 4q5 -14 15.5 -38.5t16 -38.5t10 -37.5t-2.5 -36.5q-13 -43 -62.5 -118.5t-62.5 -100.5q-20 -41 -62 -52t-112 6zM385 1331q95 162 260 438q93 -13 98 -14q51 -13 32 -49q-4 -7 -9 -14q-26 -33 -92 -121t-105 -135q-5 -7 -17 -24 t-19 -25t-22 -21t-30.5 -19.5t-40 -11t-55.5 -4.5z" />
<glyph unicode="&#x202f;" horiz-adv-x="434" />
<glyph unicode="&#x205f;" horiz-adv-x="543" />
<glyph unicode="&#x20ac;" horiz-adv-x="1349" d="M0 383q14 10 43.5 31.5t53 36.5t46.5 24q47 17 65.5 45t16.5 78q-2 38 0.5 79t7.5 96t7 81q-11 4 -61 22.5t-77 28.5q8 25 11 25q61 -8 103.5 11.5t66.5 55t49 99.5q32 80 64 142t76.5 127.5t104.5 116t132 83.5q340 155 630 -17q-20 0 -62.5 -3.5t-73.5 -2.5t-56 10 q-60 21 -113.5 23.5t-98 -10.5t-85 -41.5t-73.5 -65.5t-64 -86q-26 -42 -51.5 -92t-57.5 -116.5t-53 -108.5q252 45 334 61q4 -8 8 -24q-18 -10 -53 -31t-52 -31q2 -6 7 -16l84 31.5t92 35.5q2 -3 7.5 -13t8.5 -15q-22 -13 -59.5 -37t-70 -44t-62.5 -38q2 -2 39 -49 q-30 -15 -37 -15q-12 -2 -72 -2q-66 -2 -106.5 -6.5t-74 -18.5t-50 -32.5t-28 -56t-14.5 -81.5t-3 -116h409q-14 -42 -59 -166h-381q6 -39 13 -102t12 -103.5t15.5 -94.5t27 -92.5t42.5 -79.5t65.5 -73t92.5 -57q77 -35 152.5 -42.5t160.5 18t134 47t148 71.5l42 21 q17 -28 27 -47q-51 -25 -158 -83t-191.5 -98.5t-164.5 -66.5q-249 -84 -392 219q-38 77 -73 162.5t-81.5 209t-68.5 179.5q-92 -7 -209 -19q-10 20 -12 23zM318.5 733q-25.5 -92 17.5 -194q6 -1 18.5 -2t18.5 -2q5 30 23.5 137t27.5 168q-80 -15 -105.5 -107zM375 1024 q8 -5 23.5 -15.5t23.5 -15.5q53 35 90 95.5t55 116.5t50.5 120.5t74.5 104.5q-7 5 -21.5 14t-21.5 14q-32 -50 -127 -201.5t-147 -232.5z" />
<glyph unicode="&#x25fc;" horiz-adv-x="1638" d="M0 0v1638h1638v-1638h-1638z" />
</font>
</defs>
</svg>
