<?xml version="1.0" encoding="utf-8"?>
<!-- Generator: Adobe Illustrator 16.0.0, SVG Export Plug-In . SVG Version: 6.00 Build 0)  -->
<!DOCTYPE svg PUBLIC "-//W3C//DTD SVG 1.1//EN" "http://www.w3.org/Graphics/SVG/1.1/DTD/svg11.dtd">
<svg version="1.1" id="Layer_1" xmlns="http://www.w3.org/2000/svg" xmlns:xlink="http://www.w3.org/1999/xlink" x="0px" y="0px"
	 width="269.485px" height="272.902px" viewBox="0 0 269.485 272.902" enable-background="new 0 0 269.485 272.902"
	 xml:space="preserve">
<path fill-rule="evenodd" clip-rule="evenodd" d="M138.602,10.284c-0.28,0.011-0.67-0.124-0.264-0.263
	C138.499,10.036,138.651,10.06,138.602,10.284z M142.027,10.284C142.411,11.157,142.682,9.256,142.027,10.284L142.027,10.284z
	 M160.997,10.284C160.885,10.173,161.168,10.457,160.997,10.284L160.997,10.284z M261.11,135.427
	c-0.763,2.051-0.674,6.579-0.526,9.221c-0.894-0.862-0.2,1.349-1.054,1.317c0.781,1.869-0.191,5.916,0.264,8.693
	c-1.134,0.376-0.371,1.02-1.318,1.582c0.311,0.041,0.748-0.045,0.791,0.264c-1.084,0.822-1.078,2.21-0.527,3.424
	c-0.467,0.061-1.318-0.266-1.054,0.527c0.311,0.041,0.749-0.045,0.79,0.264c-1.449,0.854-0.76,2.048-0.526,3.161
	c-0.409,0.318-1.026,0.843-1.581,0.264c-0.197,0.899,1.07,0.335,0.791,1.317c-1.957,2.84-0.36,5.636-3.162,7.641
	c0.123,0.93,0.666,1.441,1.055,2.107c-1.255,0.414-0.764,2.574-2.108,2.897c1.138,1.698-1.57,2.671-0.263,4.479
	c-1.557,1.875-0.623,6.679-2.635,8.431c-0.162-0.383-0.318,0.026,0,0c-0.498,1.222-2.02,3.512-1.055,5.005
	c-1.268,0.646-1.865,1.9-2.635,2.371c-0.668,1.109,0.486,1.264,0.527,2.371c-1.607,0.447-1.465,2.883-0.79,4.216
	c-2.453,1.436-0.643,4.369-3.161,5.532c1.012,0.193-1.089,1.439-1.055,2.371c-0.771,0.81-1.227,1.935-2.371,2.372
	c0.391,1.62-0.705,1.753-1.316,2.37c0.391,0.225,0.381,0.85,0.526,1.318c-2.167,0.558-0.95,3.033-3.688,3.161
	c0.139,0.673,0.35,0.923-0.264,1.317c-1.469-0.811-0.658,2.111-2.371,1.844c-0.325,0.854,0.853,0.201,0.527,1.055
	c-1.464,0.416-1.88,0.059-3.162,0.527c-0.67,2.433-0.59,2.643-2.635,4.215c-0.52-0.446-0.41-1.521-1.58-1.318
	c-0.252,0.879-0.258,1.43,0,2.636c-1.374-0.214-0.049,0.767-1.054,1.054c-0.833,0.129-0.098-1.308-1.054-1.054
	c-0.25,2.302-1.878,3.143-1.845,4.478c-0.473,0.035-0.616-0.261-0.526-0.789c-0.29,0.628-1.225,0.755-2.107,0.789
	c0.443,0.798,1.184,0.068,1.58,0.527c-2.849,1.067-4.014,4.234-7.377,3.426c-0.963,2.462-4.113,2.736-5.27,5.006
	c-1.246-0.018-2.593-0.135-2.898,0.79c-0.613,0-1.229,0-1.844,0c-0.21,1.771-1.262,1.062-1.053,2.634
	c-3.107-0.63-9.119,1.282-9.485,5.27c-2.027-0.312-3.007,0.304-4.479,1.845c-0.811-0.66-1.322-0.397-2.634-0.265
	c-1.57,2.145-5.33,2.416-6.323,4.217c-2.771,0.159-7.125,2.027-10.275,1.844c-0.549,3.051-6.207,0.993-7.376,3.425
	c-5.896-0.161-9.763,2.228-13.964,0.79c-0.264,0.352-0.434,0.795-0.789,1.055c-0.139-1.215-1.519-0.211-2.372-1.055
	c-2.587,0.937-5.259,0.263-7.377-0.526c-0.587,0.206-0.964,0.357-1.844,0.79c-0.635-0.996-1.227-0.582-1.845-1.316
	c-1.116,0.916-1.918,0.527-2.898,1.58c-1.529-0.371-2.402-0.789-3.952-1.58c-0.55,1.621-3.379,1.238-4.479,1.58
	c-0.146-0.469-0.135-1.094-0.527-1.317c-0.229,0.24-2.232-0.271-2.898,0.264c0-0.264,0-0.526,0-0.79
	c-4.396,0.143-6.366-1.906-11.065-2.107c-0.442-0.876-1.744-0.893-2.107-1.846c-2.488,0.971-5.01-0.258-5.533-2.634
	c-2.245,1.706-6.364-0.339-7.377-2.372c-1.891,0.354-3.297-1.754-5.532-0.789c-3.119-2.973-8.742-3.108-11.592-6.851
	c-2.053-1.05-4.001-0.868-5.532-2.107c0.074-0.309,1.16-1.095,0-1.054c-0.772,0.723-1.17,0.449-0.527,1.58
	c-1.148-0.432-1.6-1.561-2.898-1.844c0.001-0.701,0.733-0.672,1.054-1.055c-0.706-0.816-1.002,0.691-1.581,0
	c-0.162-0.382-0.318,0.027,0,0c-0.059,0.205-0.008,0.521-0.264,0.528c-0.983-1.475-2.769-1.984-2.635-3.425
	c0.31,0.074,1.095,1.16,1.054,0c-1.01,0.118-1.5-1.645-2.371-0.791c-0.395-0.045-0.972,0.094-1.054-0.264
	c0.004-0.436,0.73-0.146,0.79-0.526c-1.335,0.105-1.346-1.112-2.107-1.581c0.034,1.189-1.341,1.256-1.845,0.527
	c-0.19-0.805,0.27-0.961,0.264-1.582c-0.812-0.196-0.321,0.909-1.318,0.527c0.049-0.225-0.102-0.248-0.263-0.264
	c-0.162-0.383-0.318,0.027,0,0c-0.049,0.225,0.103,0.25,0.263,0.264c0.156,0.547,0.507,0.898,1.054,1.055
	c-0.611,0.422-2.302-0.322-1.844-1.845c-1.063,0.212-1.668-0.745-2.371-1.581c1.188,0.024-0.115-0.795,0.264-1.58
	c-2.082-1.295-4.667-2.758-4.743-5.27c-1.113,0.877-1.149-0.172-1.317-0.79c0.044,0.571-0.935,0.118-1.317,0.263
	c-1.43-3.129-2.779-4.801-5.796-6.85c-0.06-0.498,0.296-0.581,0.263-1.054c0.256-0.007,0.204-0.322,0.264-0.526
	c-0.256,0.007-0.205,0.322-0.264,0.526c-0.841-0.226-0.815,0.415-1.318,0.527c0.502-1.819-1.708-0.927-1.581-2.372
	c0.223-0.566,1.68,0.1,1.844-0.526c-1.497,0.296-1.502-1.19-1.054-2.107c-0.84,0.226-1-0.229-1.317-0.526
	c-0.192-0.719,0.524-0.531,0.527-1.055c-0.939,0.31-2.181,0.304-1.581-1.054c0.307,0.042,0.469-0.058,0.527-0.264
	c-0.093-0.369-0.464-0.022-0.527,0.264c-0.356-0.083-0.503-0.375-1.054-0.264c-0.229-1.02,0.644-0.938,0.791-1.581
	c-0.615,0.088-1.135,0.271-1.317,0.791c-0.263,0-0.527,0-0.79,0c0.078-1.064,1.153-1.131,1.317-2.107
	c-0.502-0.494-0.662-0.029-1.317,0c0.048-0.225-0.103-0.249-0.264-0.264c-0.079-0.518,0.356-0.523,0.527-0.791
	c-1.663-0.006-2.677-0.66-3.161-1.844c0.501,0.113,0.662,0.568,1.317,0.527c-1.372-1.199-0.175-2.371-2.371-3.162
	c0.31-0.041,0.748,0.045,0.79-0.264c-1.575-0.059-0.67-1.995-2.371-2.371c0.574,0.048,0.837-0.215,0.79-0.79
	c-1.881-1.177-4.147-3.773-3.162-6.587c-0.648-0.502-1.902-0.556-1.317-1.58c0.235-0.117,0.471-0.231,0.527-0.527
	c0.104-0.511-1.2-0.385-0.79,0.264c-1.405-0.527-1.862-2.002-2.107-3.688c-2.679-1.625-3.169-5.438-5.533-7.377
	c0.083-0.356,0.375-0.503,0.263-1.054c0.634,0.507,0.875,1.409,1.581,1.844c0.716,1.393,1.191,3.025,2.371,3.952
	c0.34-0.845,0.072-1.771-0.791-2.371c-0.038-0.845,1.778-1.187,1.054-1.845c-0.439,0.395-1.268,0.218-1.581,0
	c0.42-0.264,1.06-0.248,0.527-0.789c-2.33-0.609-3.412-4.043-1.317-5.533c-1.349-0.471-1.369-1.232-2.634-2.107
	c0.263,0.684,0.463,1.764-0.264,2.107c-0.627-0.575-1.576,0.234-1.844-1.58c1.154-0.879,1.896-1.015,2.108-2.636
	c-0.95-0.158-0.777,0.805-1.581,0.79c-0.704-0.262,0.349-2.281-0.791-2.107c-0.059,0.498,0.297,0.582,0.264,1.055
	c-0.682-0.373-1.256-0.852-1.054-2.107c0.108-0.449,0.34,0.055,0.791,0c-0.048,0.224,0.103,0.248,0.264,0.263
	c-0.049,0.224,0.103,0.249,0.263,0.264c0.008,0.257,0.323,0.204,0.527,0.263c0,0.088,0,0.176,0,0.264
	c0.299-0.05,0.146-0.264,0-0.264c0-0.088,0-0.175,0-0.263c0.176,0,0.351,0,0.527,0c-0.064-0.331-0.523-0.267-0.527,0
	c-0.176,0-0.351,0-0.527,0c0.048-0.224-0.103-0.249-0.263-0.264c0.048-0.224-0.103-0.248-0.264-0.263
	c-0.38-1.201-0.697-2.465-1.317-3.426c0.312-0.127,0.598-0.281,0.791-0.527c-4.049-7.6-2.91-17.557-6.06-25.291
	c0-0.088,0-0.176,0-0.264c0.299-0.051,0.146-0.265,0-0.264c0-0.088,0-0.176,0-0.264c0.088,0,0.176,0,0.264,0
	c0.756-0.251,0.171-0.875,0.527-1.054c1.817,0.912-0.516,4.735,2.107,5.005c0.211-0.913-0.392-1.012-0.264-1.844
	c0.804-0.104,1.342,0.693,1.581-0.264c-0.255-0.539-0.027-1.294-1.054-1.58c1.182-0.458,0.194-2.395,0.791-2.898
	c0.403,0.408,0.966-0.371,1.581-0.527c-1.579-0.143-0.072-1.097,0.263-1.581c-1.916-0.5-1.081-1.13-2.107-1.844
	c2.477-1.424,0.71-5.065,2.371-6.323c0.224,0.048,0.249-0.103,0.263-0.264c0.088,0,0.176,0,0.264,0c-0.05-0.299-0.264-0.146-0.264,0
	c-0.224-0.048-0.248,0.103-0.263,0.264c-0.454,0.014-0.675-0.203-0.791-0.527c0.07-1.208,1.072-1.643-0.263-2.372
	c0.204-0.674,1.698-0.059,1.581-1.054c-0.342-1.202-1.611-0.457-1.317-1.844c-0.368-0.884,0.263-1.178,1.054-2.108
	c-1.713-1.363-0.325-4.524-1.317-6.06c0.336,0.015,0.365,0.338,0.79,0.264c0.059-0.848-0.466-1.115-0.263-2.107
	c0.39,0.305,0.664,0.305,1.054,0c0.368-1.583-0.318-3.958-1.581-4.743c0.323-0.954,0.55-1.002,1.317-1.054
	c-0.673-1.276,0.128-2.444,0.264-3.688c0.859-0.047,1.268,0.619,1.317-0.527c-0.029-0.933-0.871,0.56-0.791-0.264
	c0.441-0.438,1.067-0.689,1.054-1.581c-0.129-0.925-0.671-1.436-1.054-2.107c1.695-1.501-0.04-1.809,1.317-3.425
	c0.078-0.704-1.022,0.701-0.791-0.527c0.398-0.915,1.251-0.589,1.845-0.79c-0.049,0.224,0.102,0.248,0.263,0.263
	c0.048-0.224-0.103-0.248-0.263-0.263c0-0.088,0-0.176,0-0.264c-0.425-0.771-1.358,0.42-1.581-0.263
	c1.401-1.069,0.291-3.409,1.581-4.216c0.543,0.072,0.062,1.167,0.79,1.054c-0.216-1.006,0.561-1.02,1.054-1.317
	c0.441,1.114-0.481,2.177,0.791,2.634c0.893-1.679-1.315-2.312-0.791-4.479c-0.498-0.059-0.581,0.297-1.054,0.264
	c0.252-0.801,1.574-0.534,1.317-1.845c-0.68-0.703-0.277,0.607-1.317,0.264c1.011-0.658,0.243-3.095,2.107-2.898
	c-0.531-1.354-0.3-3.75,1.054-5.006c0.191,0.806-0.455,0.775-0.264,1.581c0.176,0,0.351,0,0.527,0
	c0.549-0.151,0.33-1.705-0.263-1.581c-0.159-1.037,0.388-1.368,0.79-1.844c0.623,0.343,0.26,1.673,1.318,1.581
	c0.517-1.159-0.669-0.933-1.054-2.108c1.65,0.037,0.589-1.875,2.371-2.108c0.105,0.717-1.846,1.603-0.527,1.845
	c2.02-3.387,3.117-7.898,6.323-9.485c-0.077,0.162-0.656,1.014,0,1.054c0.796-1.062,0.188-1.905,1.581-2.371
	c0.06,0.467-0.266,1.319,0.527,1.054c0.1-1.299,1.542-0.619,2.635-1.844c1.119,0.329,0.704-0.876,1.317-1.054
	c0.707,0.259,0.273,1.658,0.79,2.107c0.247-1.333,1.337-1.824,1.844-2.898c0.592,0.701-0.394,1.342,0.263,1.845
	c0.554-1.038,0.914-1.419,1.318-2.108c0.144,0.383-0.308,1.362,0.264,1.317c0.561-0.085-0.043-1.149-0.264-1.317
	c0.014-0.336,0.337-0.365,0.264-0.791c0.213,0.05,0.262,0.264,0.527,0.264c0.145-0.54-0.503-0.628-0.527-0.264
	c-0.646-0.029-0.057-0.871,0.263-0.79c1.45,0.221,1.261-0.252,3.161,0c-0.153-0.901-0.881-1.227-0.79-2.371
	c1.107,0.601,1.25-0.919,2.897-0.527c-0.187-2.038,2.084-2.094,2.108-3.162c0.852-0.326,0.201,0.852,1.054,0.527
	c0.177-1.51,1.479-1.595,2.107-3.161c3.058-0.765,4.568-4.523,7.641-6.06c-0.162,0.234-0.318,0.471,0,0.527
	c0.331-0.065,0.266-0.524,0-0.527c-0.136-0.891,1.395-2.426,1.844-2.108c0.162,0.383,0.318-0.026,0,0
	c-0.018-2.006,2.486-2.17,3.688-2.897c0.425,1.248-1.73,0.609-0.791,1.581c-0.393,0.396-1.501,0.079-1.317,1.054
	c0.139,0.401,2.377-0.198,1.317-1.054c1.851-0.493,0.59-2.516,2.108-3.161c0.675-0.124,1.494,0.931,1.844,0.263
	c-0.63-0.313,0.415-1.141,0.527-1.581c0.827,0.43,1.667-1.379,3.952-2.107c0,0.088,0,0.176,0,0.263c0.299-0.05,0.146-0.264,0-0.263
	c0.619-0.406,1.734-2.773,2.898-1.581c0.802-0.465-0.719-0.816,0-1.054c0.759,0.031,1.725-0.144,2.108,0.263
	c-0.218-1.271,0.998-1.11,1.054-2.107c0.498,0.197,0.183,0.787,0.79,0.264c1.109-1.769,4.78-0.717,5.27-3.425
	c0.666,0.426,0.294,1.323,1.581,1.581c0.713-0.517-0.924-1.317,0.264-1.581c0.382,0.32,0.353,1.052,1.054,1.054
	c-0.174-0.824,2.324-1.564,1.581-0.527c1.017-0.999,1.749-1.117,3.424-1.054c0.734-0.392-0.556-1.177,0.527-1.054
	c0.74,0.003-0.627,0.719,0.527,0.527c0.691-0.752,0.923-0.593,1.318-1.317c0.721,0.631,1.47,0.259,2.634,0.791
	c-0.357-2.087,0.988-0.883,1.317-2.107c1.841,1,2.904-0.048,4.479-0.527c0.079,0.518-0.356,0.522-0.527,0.791
	c1.376,0.06,2.216-0.418,2.634-1.317c-0.657-0.188-1.083,1.16-1.581,0.264c1.064-1.307,2.89-1.852,3.688-3.425
	c0.895,1.512,2.869-1.691,3.688,0.264c-0.261-0.786-0.292-1.613,0-1.844c0.183,0.52,1.47-0.065,1.581,0.527
	c0.284,0.673-1.134,0.922-0.263,1.317c-0.044-0.571,0.934-0.119,1.317-0.264c0.621-0.224-0.727-0.648-0.264-1.581
	c2.77-0.476,4.828,0.114,6.586-0.79c0.61-0.406,1.504-1.465,2.371-0.791c0.058,0.205,0.221,0.306,0.527,0.263
	c0.764,0.148-0.404,0.411-0.264,0.791c1.712-1,3.24,0.621,4.479-0.527c0.627-1.116,0.927-1.435,2.107-2.108
	c0.766,0.741-0.396,0.721-0.527,1.317c1.196-0.493,0.359,1.047,1.318,0.791c1.532,0.303,0.667-1.792,2.107-1.581
	c1.562,0.262-1.351,1.371,0.263,1.581c0.914,0.211,1.013-0.393,1.844-0.264c0.438-0.827-0.979-1.077-0.263-1.317
	c1.518-0.205,0.194,1.646,0.79,1.844c0.987-1.514,1.513-0.045,2.372,0.527c0.937-0.958,0.406-2.396-0.264-3.162
	c0.787,0.293,2.799,1.029,1.844-0.527c0.285,1.493-1.143-0.081-1.054-0.79c0.673,0.138,0.922,0.35,1.317-0.264
	c1.039,0.312-0.123,1.298,0.79,1.844c0.854,0.539,1.488-1.973,2.372-1.317c-0.785,0.316-0.486,2.021-1.846,3.425
	c-0.654-0.04-0.076-0.892,0-1.054c-1.047-0.256-0.107,1.472-1.053,1.317c-0.494-0.502-0.029-0.662,0-1.317c0.088,0,0.176,0,0.263,0
	c-0.05-0.299-0.265-0.146-0.263,0c-0.264,0-0.527,0-0.791,0c-0.007-0.256-0.322-0.205-0.527-0.264
	c0.008,0.256,0.323,0.205,0.527,0.264c-0.4,0.759,0.009,0.824-0.264,1.844c1.291,0.284,3.338,0.76,4.479-0.791
	c0.601-0.074,0.989,0.063,1.054,0.527c-0.491,0.037-0.881,0.173-1.054,0.527c1.271,0.624,1.286,0.559,1.844-0.263
	c-0.243,1.135,1.976,1.167,2.371,0.79c0.176,0,0.351,0,0.527,0c1.262,0.102-0.453-1.269,0.79-1.317
	c-0.145,1.198,0.671,1.437,1.581,1.581c0.159-0.586-0.616-1.283,0.79-1.581c0.07,0.785-0.736,1.604,0.264,1.844
	c0.384-1.007,1.043-1.332,0.527-2.634c-0.497-0.091-1.211,1.319-1.318,0c0.836-1.445,2.394,0.053,3.953-0.264
	c0.719,0.551-0.933,0.99,0.264,1.317c0.28-0.246,0.082-0.972,0.789-0.791c0.344,1.167-1.121,1.218-0.263,2.108
	c1.071,0.437,1.038-1.568,1.581-0.791c-0.016,0.336-0.338,0.365-0.264,0.791c1.463-1.284,1.135,0.185,3.161-0.264
	c-0.003,0.349-0.462,0.241-0.527,0.527c1.052-0.145,0.794-0.145,1.845,0c0,0.088,0,0.176,0,0.264c0.299-0.05,0.146-0.264,0-0.264
	c-0.08-0.607,0.762-0.292,0.791-0.79c-0.862-0.104-1.704-0.229-1.845-1.054c1.083,1.211,2.263-0.511,2.897-0.264
	c-1.05,1.82,0.716,0.967,0.264,2.634c-0.917,0.446-0.92,0.098-1.316-0.527c0.275,1.706-2.132,0.785-1.581,2.108
	c0.964,0.446,1.023-0.253,2.37,0.527c0.662,0.127-0.635-1.208,0.264-1.317c0.658-0.188,1.082,1.16,1.581,0.263
	c-0.27-0.257-0.533-0.52-0.79-0.79c1.671-0.173,1.081-2.607,2.635-2.898c0.445,0.474-0.332,1.735,0.527,2.371
	c1.104,0.313,0.47-1.11,1.053-1.317c0.537,0.078,0.517,0.713,1.055,0.791c0.162,0.383,0.318-0.027,0,0
	c0.615-1.309,3.787,1.619,2.634,2.108c0.001-0.265-0.213-0.314-0.264-0.527c-0.96-0.453-1.565,0.603-2.107,1.317
	c0.653,0.342,1.278-0.588,1.317,0c0.408,1.528-0.159,1.033-0.791,1.844c1.404,0.081,2.525-0.75,3.953,0.527
	c-0.655-0.04-1.094,0.136-1.318,0.527c1.204,0.075,1.105,0.789,2.108,0.791c0.175,0,0.351,0,0.526,0
	c-0.064-0.332-0.523-0.266-0.526,0c-0.614-0.078-0.614-0.713,0-0.791c0.522,0.439,0.335-0.023,1.054,0
	c0.334,1.526,1.779,2.471,1.58,4.479c0.343-0.814,0.348,0.756-0.264,0.527c-0.161-0.383-0.318,0.027,0,0
	c0.653,0.805,1.113-0.802,1.318-1.317c-1.36,0.793-1.002-2.395,0.264-1.581c-0.578,0.66-0.379,1.391,0.526,1.845
	c0.849-0.557,1.963-0.848,2.635-1.581c0.581-0.557-0.338-0.779-0.264-1.581c1.542-0.524,0.557,1.856,1.845,2.371
	c-0.498-0.059-0.582,0.297-1.055,0.264c-0.054,1.108,1.002,1.106,1.055,2.107c-0.504,0.111-1.135,0.095-1.055,0.791
	c1.6-0.795,2.374-1.067,3.689-0.527c-0.124,0.562,0.376,0.502,0.79,0.527c0.05,0.299,0.265,0.146,0.263,0c0.176,0,0.352,0,0.527,0
	c-0.139-0.212-0.275-0.428-0.264-0.791c-0.309,0.042-0.222,0.48-0.264,0.791c-0.088,0-0.176,0-0.263,0
	c0.123-0.562-0.377-0.502-0.79-0.527c0.881-1.655-0.526-1.938,0-3.689c0.211,1.003,1.578,2.697,2.634,3.689
	c1.136,0.257,0.767-0.99,1.581-1.054c0.9,0.812,0.949,1.375,0.791,2.108c1.244-0.079,0.188-1.576,1.844-0.791
	c-0.948,1.415-0.205,0.77,0,2.635c-0.045,0.307-0.417,0.286-0.791,0.264c-0.162-0.383-0.318,0.027,0,0
	c1.074,0.244,1.035,1.6,2.107,1.844c-0.656,0.134-1.589-0.009-1.58,0.791c0.383-0.144,1.361,0.308,1.317-0.264
	c0.911-0.368,1.476-0.877,2.635-1.317c-0.486-0.656-1.052-1.232-1.581-1.845c1.787-0.37,1.691,0.736,2.898,1.054
	c-0.459,1.056-0.533,0.914-1.055,1.581c2.055-0.038-0.787,0.871,0.264,1.317c0.73-1.071,1.377-0.356,2.107-0.791
	c-0.837-0.121-0.521-1.139,0-1.317c1.999,0.826-0.386,1.801,1.055,2.371c-0.973-0.094-1.102,0.655-1.318,1.317
	c0.654,0.343,1.094-0.773,1.318,0c0.117,0.06-0.053,1.086,0.264,1.581c0.058-0.206,0.221-0.306,0.526-0.263
	c0.05,0.299,0.265,0.146,0.264,0c0.523,0.003,0.335,0.719,1.054,0.527c-0.178-1.856,0.107-2.082,0-3.162
	c0.907,0.498,2.171,0.639,2.635,1.581c0.194,1.434-2.562,0.991-1.844,2.107c0.324,1.412,0.729-0.806,1.053,0
	c-0.213,0.489-0.34,1.064-0.79,1.317c-0.845-0.229-0.823,0.406-1.054,0.791c0.845,0.23,0.824-0.406,1.054-0.791
	c1.053,0.108-0.085,0.901,0.79,1.317c-0.224-0.048-0.248,0.103-0.264,0.264c0.225,0.048,0.249-0.103,0.264-0.264
	c0.088,0,0.176,0,0.264,0c0.061-0.467-0.266-1.319,0.527-1.054c1.224,0.129,1.305,0.226,2.107,1.054
	c-0.643,0.141-0.426,1.123-0.791,2.108c-1.094-0.252-0.053,0.789,0,0c0.693,0.078,0.208-1.022,1.055-0.79
	c0.928,0.991,1.66,1.42,2.107,2.371c1.376-0.168,0.98-1.087,1.58-1.581c0.395,0.013,1.503,1.028,1.318,0
	c-0.311-0.042-0.748,0.045-0.791-0.263c0.666,0.225,0.666-1.083,1.581-1.318c1.188,0.623-0.935,2.843,1.317,2.635
	c-0.049,0.224,0.103,0.249,0.264,0.264c-0.611,0.607,0.487,0.85,0.264,1.844c-0.311,0.042-0.748-0.045-0.791,0.264
	c0.236,0.73,1.021,0.912,1.581,1.317c-0.043,0.306,0.058,0.469,0.263,0.527c0.369-0.093,0.023-0.464-0.263-0.527
	c0.375-0.447,1.429-0.911,1.844-0.527c0.372-1.063-0.004-1.994,0.79-2.371c0.312,0.127,0.598,0.281,0.791,0.527
	c-0.16,0.015-0.312,0.039-0.264,0.263c-1.219-0.056,0.26,0.939-0.527,1.317c0.968,0.088,1.353-0.405,1.582-1.054
	c0.362-0.011,0.578,0.124,0.79,0.263c0.04,1.515-0.528,2.224,0.526,2.898c0.359-1.186,0.391-1.678,1.581-1.581
	c0.624,0.924,2.161,2.044,1.054,3.162c-0.715-0.294-1.816-0.515-1.58,0.791c0.7,0.724,0.672-0.212,1.053-0.527
	c1.22,2.75,3.681,4.696,5.797,5.796c-0.225-0.048-0.248,0.103-0.264,0.264c0.225,0.048,0.248-0.103,0.264-0.264
	c0.992,0.44,1.199-1.226,1.58-0.527c0.352,0.439-0.096,1.677,0.791,1.581c0.436-0.004,0.147-0.73,0.527-0.79
	c0.207,0.925,0.74,0.866,0,1.581c2.152,0.432,2.633,1.151,3.688,2.372c-1.166,0.288-1.311-0.447-2.107-0.528
	c0.068-0.858-0.312-1.268-1.054-1.317c-0.94,0.514-0.208,1.566,1.054,1.317c-0.807,1.517,0.145,2.313,0.791,2.898
	c-0.972,0.189,0.043,0.86-1.055,1.054c1.408-0.029,0.715,0.516,1.055,1.317c1.123-1.994,2.555,0.011,3.424-0.527
	c-0.824,0.013,0.019-0.614,0-1.054c0.958,0.096,0.979,1.129,1.845,1.317c0.03,0.322,0.079,0.624,0.526,0.527
	c-0.468,0.586-1.175,0.932-2.107,1.054c-0.097-0.448,0.205-0.497,0.527-0.527c-0.117-0.234-0.231-0.471-0.527-0.527
	c-0.379,0.06-0.092,0.787-0.526,0.791c0.007,0.256,0.322,0.204,0.526,0.263c0,0.088,0,0.176,0,0.264
	c0.723,0.625,1.859,2.012,1.581,2.107c-0.587,0.876,1.831-0.406,1.581,0c0.326,0.853-0.853,0.202-0.527,1.054
	c0.974,0.03,0.762,0.483,0.264,0.791c2.608,1.323,1.635,3.453,3.425,3.688c-0.22,0.57-0.683,0.899-0.526,1.844
	c1.475-0.245,1.209,1.25,2.107,1.581c-0.386,0.611-0.835-0.515-0.791,0.527c0.704,0.727,0.572-0.312,1.318-0.264
	c-0.612,1.685,0.695,0.917,1.053,1.054c-0.09,0.949,0.921,1.68,0.264,2.898c-0.464-0.23-0.815-0.882-1.054,0
	c1.204-0.008,0.015,0.925,0.264,1.581c2.707,0.166,1.973,3.006,1.581,4.479c0.401,0.839,1.807-0.555,1.58,0.527
	c-0.184,0.251-1.199-0.133-1.317,0.791c1.345,1.114,1.257,3.661,3.161,4.215c-1.042,0.34-0.537-0.867-1.58-0.527
	c-0.328,1.47,1.41,0.873,1.844,1.581c-0.227,1.408,0.866,2.835,1.055,4.215c1.371,0.283,1.53-1.636,2.371-1.054
	c-0.766,2.603,2.08,2.846,0.79,5.27c0.46,0.682,1.059,1.225,1.845,1.581c-1,0.23-0.627,1.832-1.581,2.107
	c0.316-0.346,0.103-0.414,0-0.791c-0.214,0.05-0.263,0.265-0.526,0.264c-0.098,0.448,0.205,0.497,0.526,0.527
	c-0.218,0.946,0.594,1.275,0,1.845c0.919-0.479,1.549,0.198,1.844,1.054c-0.932,0.034-1.098,0.833-1.317,1.581
	c0.969,0.163,1.312-1.653,1.845-1.054c-0.704,0.679-0.468,0.916,0.79,0.79c-1.277,2.516,1.894,2.582,0,4.479
	c1.424,0.26-0.106-0.788,1.318-0.527c-0.404,1.482-0.067,2.305-1.318,2.634c0.601-0.073,0.99,0.064,1.055,0.527
	c-0.225-0.048-0.25,0.103-0.264,0.264c-0.176,0-0.352,0-0.527,0c0.064,0.332,0.523,0.266,0.527,0
	c0.224,0.048,0.248-0.103,0.264-0.264c0.245,0.282,0.971,0.082,0.79,0.791c-0.004,0.739-0.719-0.627-0.526,0.527
	c0.028,0.498,0.87,0.183,0.789,0.791c-1.349,5.321,0.848,8.285-0.789,13.436C260.448,134.139,260.817,134.651,261.11,135.427z
	 M221.329,48.749C221.633,49.79,221.633,47.708,221.329,48.749L221.329,48.749z M202.096,35.576
	C201.459,36.46,202.979,34.939,202.096,35.576L202.096,35.576z M191.557,30.57c0.073-0.601-0.063-0.99-0.527-1.054
	C190.958,30.117,191.093,30.507,191.557,30.57z M62.726,38.737C63.031,39.778,63.031,37.696,62.726,38.737L62.726,38.737z
	 M18.991,80.891C19.164,81.064,18.881,80.78,18.991,80.891L18.991,80.891z M19.255,84.843c-0.003-0.266-0.462-0.332-0.527,0
	C19.023,84.816,19.138,85.226,19.255,84.843z M12.142,132.529c0.014-0.453-0.203-0.675-0.527-0.79
	C11.6,132.192,11.817,132.414,12.142,132.529z M9.77,143.067c0.025,0.414-0.035,0.914,0.527,0.791
	C10.312,143.405,10.095,143.182,9.77,143.067z M10.034,146.493c0.976-0.534-1.267-1.364,0.263-1.581c0.163,0.383,0.319-0.026,0,0
	C9.312,143.425,9.033,146.057,10.034,146.493z M11.351,148.864c-0.147-0.818-0.314-1.617-1.317-1.581
	c0.452,0.673-0.302,0.922,0.263,1.317C10.371,147.977,11.001,148.903,11.351,148.864z M11.878,142.803
	c-0.205,0.06-0.52,0.008-0.527,0.264C11.556,143.008,11.871,143.06,11.878,142.803z M11.878,153.079
	c0.296-0.027,0.411,0.383,0.527,0C12.402,152.813,11.943,152.748,11.878,153.079z M13.195,159.401
	c-0.549-0.076,0.391-0.712-0.527-0.789C12.119,158.815,12.862,160.196,13.195,159.401z M14.249,159.928
	c-0.631,0.104,0.146-1.199-0.791-0.79C13.18,159.806,14.013,160.64,14.249,159.928z M14.513,156.504
	c-0.462-0.241-0.916-0.49-0.791-1.318c-0.773,0.186-0.775,0.885-1.317,0c-0.645,0.621,0.394,0.49,0.264,1.318
	c-0.176,0-0.351,0-0.527,0c0.771,1.086,1.09,1.004,2.107,1.844c0-0.879-0.857-0.9-0.791-1.844
	C13.95,156.252,14.339,157.293,14.513,156.504z M14.513,158.612C14.402,158.5,14.685,158.784,14.513,158.612L14.513,158.612z
	 M15.303,169.94c-0.204,0.059-0.519,0.008-0.527,0.264C14.98,170.145,15.296,170.196,15.303,169.94z M14.776,157.293
	c0.204-0.059,0.52-0.006,0.527-0.263C15.099,157.09,14.784,157.038,14.776,157.293z M15.566,165.198
	c0.181-0.709-0.544-0.51-0.791-0.791C14.594,165.116,15.321,164.917,15.566,165.198z M15.566,166.516
	C15.739,166.688,15.456,166.405,15.566,166.516L15.566,166.516z M16.094,101.44c0.204-0.059,0.519-0.007,0.527-0.263
	C16.416,101.236,16.101,101.185,16.094,101.44z M16.094,166.516c-0.359,0.335-0.408,1.289,0.263,1.316
	C16.716,167.497,16.764,166.542,16.094,166.516z M16.884,102.495c-0.27,0.031-0.533-1.137-0.79-0.263
	C16.363,102.2,16.626,103.368,16.884,102.495z M19.255,93.537C19.56,94.578,19.56,92.496,19.255,93.537L19.255,93.537z
	 M18.201,91.166c-0.146-0.469-0.136-1.094-0.527-1.317c-0.003,0.348-0.462,0.24-0.527,0.527
	C17.994,90.144,17.508,91.244,18.201,91.166z M19.255,116.985c0.208-1.015-1.261-1.015-1.054,0
	C18.552,116.985,18.904,116.985,19.255,116.985z M18.991,177.844C19.375,177.682,18.964,177.526,18.991,177.844
	C18.608,178.006,19.018,178.163,18.991,177.844z M19.518,179.161c-0.204,0.06-0.52,0.008-0.527,0.264
	C19.196,179.366,19.511,179.417,19.518,179.161z M19.518,117.775c-0.204,0.059-0.52,0.008-0.527,0.264
	C19.196,117.98,19.511,118.031,19.518,117.775z M26.895,67.718C27.2,68.759,27.2,66.677,26.895,67.718L26.895,67.718z
	 M27.159,70.616c0.184-0.626,0.41-1.257,0-1.844C26.886,69.445,26.371,70.212,27.159,70.616z M26.631,71.669
	c0.246-0.193,0.399-0.479,0.527-0.79C26.597,70.756,26.657,71.256,26.631,71.669C26.249,71.832,26.658,71.988,26.631,71.669z
	 M24.788,72.987c0.336,0.014,0.365,0.337,0.79,0.263c0.015-0.453-0.203-0.675-0.527-0.79C25.052,72.725,24.837,72.774,24.788,72.987
	z M23.47,77.466c0.088,0,0.176,0,0.264,0c-0.049-0.224,0.102-0.249,0.263-0.264c0-0.175,0-0.351,0-0.527
	C23.435,76.553,23.495,77.052,23.47,77.466C23.087,77.628,23.497,77.785,23.47,77.466z M22.68,89.585
	c0.768,0.387,0.768-1.178,0-0.791C22.68,89.058,22.68,89.321,22.68,89.585z M23.207,183.376c0.05,0.438-1.87,0.187-0.791,0.79
	c0.182-0.658,0.703,0.49,1.317,0.264C23.807,183.83,23.67,183.44,23.207,183.376z M22.417,88.531
	c0.301-0.773,0.155-0.979-0.527-1.317C21.471,87.607,21.504,88.716,22.417,88.531z M20.835,84.58c0.208-1.015-1.261-1.015-1.054,0
	C20.133,84.58,20.484,84.58,20.835,84.58z M20.045,85.633C20.351,86.674,20.351,84.592,20.045,85.633L20.045,85.633z
	 M20.572,179.688c-0.176,0-0.352,0-0.527,0c0,0.176,0,0.352,0,0.527c0.176,0,0.352,0,0.527,0
	C20.572,180.04,20.572,179.864,20.572,179.688z M20.835,87.478c-0.038,0.311-0.469,0.597,0,0.79
	C20.874,87.956,21.305,87.67,20.835,87.478z M21.099,180.479C20.989,180.368,21.271,180.651,21.099,180.479L21.099,180.479z
	 M21.362,78.783c-0.018-0.772-0.602-0.979-1.054-1.317C20.111,78.454,20.605,78.75,21.362,78.783z M23.997,188.119
	c-0.473,0.034-0.617-0.262-0.527-0.79c-0.914,0.229-0.904-0.406-0.527-0.791c-0.833,0.044-0.881-0.699-1.844-0.526
	c-0.225,1.151,1.797,0.562,0.527,1.317C22.067,188.032,23.254,189.255,23.997,188.119z M24.261,85.896
	c-0.498-0.029-0.183-0.871-0.791-0.79c-0.417,0.394-0.194,1.077,0.264,1.317C23.736,86.075,24.195,86.183,24.261,85.896z
	 M24.524,190.752C24.362,190.371,24.206,190.78,24.524,190.752C24.967,191.686,25.347,189.893,24.524,190.752z M25.578,188.119
	c0.362-0.337,0.459-1.575-0.263-1.581c0.001,0.704-0.833,0.572-0.791,1.318C24.983,187.835,25.343,187.915,25.578,188.119z
	 M26.104,188.382C24.871,188.096,26.391,189.616,26.104,188.382C26.488,188.221,26.078,188.064,26.104,188.382z M26.104,78.256
	C26.761,79.284,26.489,77.383,26.104,78.256L26.104,78.256z M26.368,74.832c0.108,0.635-0.481,0.572-0.264,1.317
	C27.073,76.402,27.152,74.854,26.368,74.832z M27.159,196.813C27.464,197.854,27.464,195.772,27.159,196.813L27.159,196.813z
	 M27.159,75.622C27.048,75.511,27.331,75.794,27.159,75.622L27.159,75.622z M26.895,73.514
	C25.753,73.624,27.173,75.043,26.895,73.514C27.989,73.766,26.948,72.725,26.895,73.514z M30.847,65.61
	c0.694,0.08,0.865-0.364,0.79-1.054C30.942,64.477,30.958,65.106,30.847,65.61z M29.267,67.191c0.648,0.409,0.774-0.895,0.263-0.791
	c-0.015,0.161-0.039,0.312-0.263,0.263C29.267,66.84,29.267,67.016,29.267,67.191z M28.476,74.832
	C28.648,75.004,28.365,74.721,28.476,74.832L28.476,74.832z M29.53,71.406C28.464,70.479,28.908,72.254,29.53,71.406L29.53,71.406z
	 M30.057,197.34C30.342,195.942,29.256,197.029,30.057,197.34C30.219,197.723,30.375,197.313,30.057,197.34z M30.847,70.616
	c-0.848-0.445-0.385-1.924-0.791-1.844c0.125,0.827-0.709,0.696-0.79,1.317C29.817,70.241,30.019,70.742,30.847,70.616z
	 M31.637,71.143c-0.414,0.025-0.913-0.035-0.79,0.527C31.3,71.684,31.522,71.467,31.637,71.143z M31.901,199.975
	c-0.205,0.059-0.52,0.006-0.527,0.263C31.578,200.178,31.894,200.231,31.901,199.975z M32.428,67.191
	c-0.173-0.354-0.563-0.491-1.054-0.527c-0.221,0.306-0.347,0.706-0.264,1.317C31.57,67.738,32.524,67.991,32.428,67.191z
	 M32.955,65.347C33.26,66.388,33.26,64.306,32.955,65.347L32.955,65.347z M33.218,63.502c-0.263,0-0.527,0-0.79,0
	c0,0.176,0,0.352,0,0.527c0.264,0,0.313,0.213,0.527,0.264C32.943,63.93,33.079,63.715,33.218,63.502z M34.536,61.395
	c-0.247,0.222-0.563,1.679,0,1.844C34.802,62.767,35.543,61.622,34.536,61.395z M87.227,119.093
	C87.28,119.881,88.321,118.841,87.227,119.093C87.065,118.709,86.909,119.119,87.227,119.093z M85.383,121.464
	C86.039,122.491,85.767,120.591,85.383,121.464L85.383,121.464z M84.856,118.039c-1.251,1.43,1.266-0.486,0-0.264
	C84.838,117.778,84.873,118.02,84.856,118.039z M83.012,27.672C83.317,28.713,83.317,26.631,83.012,27.672L83.012,27.672z
	 M82.749,26.882C83.054,27.923,83.054,25.841,82.749,26.882L82.749,26.882z M81.695,116.458c0.491-0.252,0.88,0.789,1.054,0
	C82.497,116.015,81.874,115.635,81.695,116.458z M79.587,114.614c0.312,0.128,0.597,0.281,0.791,0.527
	c0.041,0.31-0.045,0.748,0.263,0.791c0.35-0.556-0.129-0.779,0.264-1.581C80.521,114.494,79.542,114.042,79.587,114.614z
	 M79.85,113.296C80.506,114.324,80.234,112.423,79.85,113.296L79.85,113.296z M79.587,27.936c0.295-0.027,0.41,0.383,0.527,0
	C80.111,27.67,79.652,27.604,79.587,27.936z M79.85,31.888c0.038-0.312,0.47-0.597,0-0.791
	C79.812,31.408,79.381,31.695,79.85,31.888z M79.85,28.726C80.023,28.899,79.74,28.615,79.85,28.726L79.85,28.726z M79.587,106.446
	c1.012,0.292,1.658-1.129,1.054-1.581C80.201,105.304,79.574,105.556,79.587,106.446z M73.791,230.799
	C74.102,231.6,75.188,230.513,73.791,230.799c-0.074-0.426,0.249-0.453,0.263-0.791C73.406,229.6,73.28,230.903,73.791,230.799z
	 M72.737,237.913C72.909,238.084,72.626,237.801,72.737,237.913L72.737,237.913z M72.474,33.995
	C71.214,33.263,71.836,34.859,72.474,33.995L72.474,33.995z M70.629,37.42C70.935,38.461,70.935,36.379,70.629,37.42L70.629,37.42z
	 M70.629,218.417c-0.014,0.453,0.203,0.676,0.527,0.791C71.17,218.754,70.954,218.532,70.629,218.417z M70.893,231.589
	c0.204-0.059,0.519-0.007,0.527-0.264C71.215,231.385,70.9,231.333,70.893,231.589z M70.629,232.907
	C71.43,232.596,70.344,231.509,70.629,232.907C70.247,233.069,70.656,233.225,70.629,232.907z M66.941,215.518
	c0.049,0.742,0.458,1.123,1.317,1.055c0.162,0.383,0.318-0.027,0,0C67.904,216.136,67.584,215.665,66.941,215.518z M66.941,227.637
	C67.022,229.24,67.457,226.633,66.941,227.637L66.941,227.637z M66.414,214.729c0.059,0.203,0.007,0.519,0.264,0.526
	c0.003-0.349,0.461-0.241,0.527-0.526C66.829,214.625,66.76,214.413,66.414,214.729z M66.678,225.53
	C66.567,225.419,66.85,225.703,66.678,225.53L66.678,225.53z M66.678,226.584C66.567,226.473,66.85,226.756,66.678,226.584
	L66.678,226.584z M65.624,214.465c0.414-0.025,0.914,0.035,0.791-0.527c-0.176,0-0.351,0-0.527,0
	C65.888,214.202,65.674,214.251,65.624,214.465z M65.887,227.375c0.204-0.06,0.52-0.008,0.527-0.264
	C66.21,227.169,65.894,227.118,65.887,227.375z M65.624,213.674c-0.548-0.577-0.851,0.231-1.317-0.264
	C63.9,214.206,65.669,214.104,65.624,213.674z M65.624,223.95c-0.204,0.059-0.52,0.006-0.527,0.263
	C65.301,224.153,65.617,224.206,65.624,223.95z M65.36,225.793C65.533,225.965,65.25,225.682,65.36,225.793L65.36,225.793z
	 M64.833,231.326C65.138,232.368,65.138,230.286,64.833,231.326L64.833,231.326z M63.78,231.326
	c-0.231,0.543,0.683,1.184,0.79,0.526C64.155,231.829,64.364,231.181,63.78,231.326z M63.252,212.093
	c0.205-0.06,0.52-0.007,0.527-0.263C63.575,211.889,63.26,211.837,63.252,212.093z M60.618,41.108
	c0.204-0.059,0.52-0.007,0.527-0.263C60.94,40.904,60.625,40.853,60.618,41.108z M60.091,221.315
	C59.98,221.205,60.263,221.487,60.091,221.315L60.091,221.315z M59.828,41.899C60,42.072,59.717,41.788,59.828,41.899L59.828,41.899
	z M58.51,220.261c-0.053,0.843,0.441,1.139,1.054,1.317C59.562,220.79,59.09,220.471,58.51,220.261
	C58.348,219.877,58.192,220.288,58.51,220.261z M58.51,221.315c-0.205,0.059-0.52,0.007-0.527,0.264
	C58.188,221.519,58.503,221.571,58.51,221.315z M57.72,226.321c0.204-0.059,0.519-0.008,0.527-0.264
	C58.042,226.116,57.727,226.065,57.72,226.321z M57.72,208.668C57.558,208.286,57.401,208.696,57.72,208.668
	C57.773,209.458,58.814,208.417,57.72,208.668z M57.72,207.351c-0.337-0.015-0.365-0.337-0.791-0.263
	C56.52,207.737,57.825,207.863,57.72,207.351z M55.612,206.297C56.707,206.549,55.666,205.508,55.612,206.297
	C55.229,206.459,55.639,206.616,55.612,206.297z M54.295,218.68c0.635,0.107,0.572-0.48,1.317-0.264
	c-0.415,0.392-0.293,1.178,0.527,1.054c-0.181-1.314-0.303-1.493-0.527-2.371c-0.438,1.115-0.708-0.417-1.581,0.264
	C53.948,217.973,54.074,218.374,54.295,218.68z M53.241,203.399c0.295-0.026,0.41,0.384,0.527,0
	C53.765,203.133,53.307,203.068,53.241,203.399z M48.235,213.938c0.205-0.059,0.52-0.008,0.527-0.264
	C48.558,213.733,48.243,213.682,48.235,213.938z M46.918,52.964C47.223,54.005,47.223,51.923,46.918,52.964L46.918,52.964z
	 M45.864,209.723c-0.003-0.02,0.892,0.161,0.791,0.263C47.287,209.353,45.791,209.303,45.864,209.723z M46.655,214.992
	C47.31,216.019,47.039,214.118,46.655,214.992L46.655,214.992z M46.391,213.411C46.696,214.452,46.696,212.37,46.391,213.411
	L46.391,213.411z M45.601,210.776c0.205-0.059,0.52-0.007,0.527-0.264C45.923,210.573,45.608,210.52,45.601,210.776z
	 M45.337,208.668C45.643,209.709,45.643,207.627,45.337,208.668L45.337,208.668z M44.547,209.459
	c0.206,0.058,0.306,0.221,0.263,0.526c0.176,0,0.352,0,0.527,0c0-0.265,0.213-0.313,0.264-0.526
	C45.439,209.382,44.587,208.803,44.547,209.459z M43.756,205.77C43.12,206.655,44.64,205.133,43.756,205.77L43.756,205.77z
	 M43.229,206.561C43.614,207.434,43.885,205.534,43.229,206.561L43.229,206.561z M39.541,60.868
	C39.846,61.909,39.846,59.827,39.541,60.868L39.541,60.868z M38.75,61.659C38.923,61.831,38.64,61.548,38.75,61.659L38.75,61.659z
	 M40.859,209.459c-0.176,0-0.352,0-0.527,0c0,0.176,0,0.352,0,0.526c0.175,0,0.351,0,0.527,0
	C40.859,209.811,40.859,209.635,40.859,209.459z M41.122,206.825c0.286,0.064,0.178,0.523,0.527,0.526
	C41.931,206.686,40.995,205.75,41.122,206.825c-0.268-0.172-0.272-0.605-0.79-0.527c0.029-0.498,0.871-0.183,0.79-0.791
	c-0.895-0.014-1.09,0.248-2.108-0.526c-0.266,1.233,1.057,0.876,0.79,2.108C40.188,206.944,41.167,207.395,41.122,206.825z
	 M41.386,208.668C41.223,208.286,41.067,208.696,41.386,208.668C41.438,209.458,42.479,208.417,41.386,208.668z M42.176,207.088
	C43.063,207.887,42.974,206.114,42.176,207.088L42.176,207.088z M44.02,208.405c-0.383,0.145-1.362-0.308-1.317,0.264
	c0.39,0.049,0.242,0.637,0.264,1.055C43.796,209.762,43.479,208.655,44.02,208.405z M44.81,213.938
	c-0.161-0.078-1.014-0.656-1.054,0C44.248,213.686,44.637,214.727,44.81,213.938z M45.601,212.093
	c-0.03-0.671-0.05-1.354-0.791-1.317c-0.162-0.383-0.318,0.027,0,0c-0.204,0.234-0.283,0.596-0.263,1.055
	C45.098,211.719,45.244,212.01,45.601,212.093z M45.864,215.518c0.075-0.688-0.096-1.133-0.79-1.053
	C45,215.154,45.17,215.598,45.864,215.518z M45.864,225.53C46.169,226.571,46.169,224.489,45.864,225.53L45.864,225.53z
	 M45.601,216.045c1.101-0.135,0.723,1.209,1.318,1.58C47.468,216.258,46.512,214.965,45.601,216.045z M47.445,213.938
	c-0.318-0.057-0.163-0.293,0-0.527C46.343,212.999,47.157,215.02,47.445,213.938z M47.708,217.889
	C48.013,218.93,48.013,216.848,47.708,217.889L47.708,217.889z M49.026,217.625c0.22-0.568,0.682-0.898,0.527-1.844
	c-0.352,0-0.703,0-1.054,0c-0.163-0.383-0.318,0.027,0,0c0.093,0.346,0.464,0.414,0.527,0.791c-1.013,0.046-1.022-0.91-1.844-1.055
	C47.153,216.864,48.508,216.827,49.026,217.625z M50.343,220.261c-0.009-0.712-1.017-1.771-1.581-1.054
	c-0.299,0.049-0.146,0.264,0,0.263c0.227,0.213,0.156,0.722,0.527,0.791C49.463,219.472,49.853,220.512,50.343,220.261z
	 M53.505,224.476C53.81,225.517,53.81,223.435,53.505,224.476L53.505,224.476z M54.032,223.422c-0.789-0.174,0.252-0.563,0-1.054
	c-1.016-0.302-1.684-0.95-2.372-1.581c-0.042,0.309-0.48,0.223-0.791,0.264c-0.311-0.801-1.397,0.285,0,0
	c0.629,1.039,1.802,1.535,2.372,2.635C53.161,222.862,54.002,224.356,54.032,223.422z M54.032,225.002
	C54.668,226.358,54.712,224.096,54.032,225.002L54.032,225.002z M57.456,226.057c-0.62-0.258-0.236-1.521-0.79-1.845
	c-0.029,0.498-0.871,0.184-0.791,0.79c0.246,0.282,0.972,0.082,0.791,0.791c-0.306,0.221-0.707,0.348-1.317,0.264
	c0.226,0.84-0.414,0.814-0.527,1.317c0.463,0.151,1.548-0.318,1.581,0.263c-0.414,0.025-0.913-0.035-0.79,0.527
	c0.827-0.293,0.696-0.123,1.317,0.264C56.949,227.481,56.716,226.283,57.456,226.057z M59.037,228.692
	c-1.424,0.545-0.32-1.437-1.054-1.581c-0.068,0.37-0.578,0.3-0.79,0.526C57.096,229.182,58.426,229.661,59.037,228.692z
	 M59.301,227.111c-0.003-0.267-0.462-0.331-0.527,0C59.069,227.084,59.184,227.495,59.301,227.111z M61.408,224.476
	c-0.646-1.05-0.078-1.995-0.527-2.897c-0.237,1.767-1.343,0.225-2.107,0.79C59.765,222.958,60.203,224.101,61.408,224.476z
	 M59.564,225.002C59.869,226.043,59.869,223.961,59.564,225.002L59.564,225.002z M59.564,228.428
	c0.351,0.342,0.98,0.348,1.054-0.264C60.268,227.823,59.638,227.817,59.564,228.428z M62.462,229.482
	c-0.864,0.07-1.991,0.669-2.371-0.264c-0.221,0.306-0.348,0.706-0.264,1.317c0.528-0.09,0.824,0.054,0.791,0.527
	c-1.095-0.252-0.054,0.789,0,0C61.767,231.071,62.599,230.76,62.462,229.482z M72.474,239.23c-0.005-0.439-0.857-1.924,0.263-1.845
	c-0.578-1.744-2.375-0.955-3.425-0.79c-0.088,0-0.176,0-0.264,0c-0.26-1.051,0.788-0.793,0.527-1.845
	c-0.634,0.108-0.572-0.48-1.317-0.263c0.022,0.374,0.043,0.746-0.264,0.79c-0.176,0-0.351,0-0.527,0
	c-0.224-0.994,0.875-1.236,0.264-1.844c-0.635-0.108-0.573,0.48-1.317,0.264c0-0.176,0-0.352,0-0.527c0.383-0.162-0.027-0.318,0,0
	c-1.395,0.154-0.168-1.084-0.791-1.318c-0.678,0.601-0.532,1.021-0.79,1.582c-0.551,0.111-0.698-0.181-1.054-0.264
	c-0.019-0.772-0.603-0.979-1.054-1.318c0.498,0.959-0.545,3.143,1.054,2.372c0.607,0.522,0.292-0.065,0.79-0.263
	c0.05,0.213,0.264,0.262,0.264,0.526c-0.093,0.346-0.464,0.415-0.527,0.79c0.809,0.068,1.185,0.572,1.844,0.791
	c-0.47-1.066-0.188-1.344-1.054-2.107c0.517-0.568,2.39,0.498,1.054,1.053c1.104-0.05,0.814,1.294,2.108,1.055
	c-0.342,0.35-0.347,0.98,0.263,1.053c0.117-0.234,0.232-0.471,0.527-0.526c0.108,0.635-0.481,0.573-0.263,1.317
	C70.291,237.257,71.297,238.746,72.474,239.23z M69.839,239.23C69.456,239.391,69.866,239.548,69.839,239.23
	c0.895-0.179,0.258-0.876-0.264-1.054C69.542,238.649,69.898,238.732,69.839,239.23z M70.629,241.601
	c-0.383,0.144-1.362-0.308-1.317,0.263C69.695,241.721,70.674,242.172,70.629,241.601z M73.264,240.284
	c-0.554-0.303-1.027,0.16-1.581-0.527c0.034,0.473-0.322,0.557-0.263,1.055C71.891,240.491,72.952,240.762,73.264,240.284
	C74.064,239.972,72.979,238.886,73.264,240.284z M75.372,238.704c-0.425,0.074-0.454-0.25-0.791-0.264
	c0.171-0.268,0.606-0.273,0.527-0.791c-0.621-0.006-0.775,0.454-1.581,0.264c-0.265,0.793,0.587,0.467,1.054,0.527
	c-0.139,0.211-0.275,0.428-0.263,0.79c0.425-0.075,0.454,0.249,0.79,0.264C75.034,239.068,75.357,239.04,75.372,238.704z
	 M77.216,240.02c-0.16-0.015-0.312-0.039-0.263-0.264c-0.176,0-0.352,0-0.527,0c0.196,0.812-0.723,0.507-0.527,1.318
	C76.63,241.014,76.644,240.239,77.216,240.02z M77.216,241.864C77.521,242.905,77.521,240.823,77.216,241.864L77.216,241.864z
	 M78.006,121.2c-0.851-0.236-0.371,0.859-0.791,1.054C78.066,122.49,77.586,121.395,78.006,121.2z M78.006,111.452
	c-0.205,0.059-0.52,0.007-0.527,0.263C77.684,111.656,77.999,111.708,78.006,111.452z M78.006,107.5
	C77.844,107.118,77.688,107.527,78.006,107.5C78.168,107.883,78.325,107.474,78.006,107.5z M78.533,108.291
	C77.896,109.174,79.417,107.654,78.533,108.291L78.533,108.291z M78.533,235.542C78.838,236.583,78.838,234.5,78.533,235.542
	L78.533,235.542z M79.324,113.56c-0.264,0-0.527,0-0.791,0c0,0.264,0,0.527,0,0.791c0.176,0,0.351,0,0.527,0
	C79.075,114.013,79.398,113.985,79.324,113.56z M79.85,110.662c-0.394,0.045-0.972-0.094-1.054,0.264
	C79.147,111.268,79.777,111.272,79.85,110.662z M79.587,238.176C80.243,239.204,79.971,237.303,79.587,238.176L79.587,238.176z
	 M80.377,118.565C80.54,118.948,80.696,118.539,80.377,118.565C80.215,118.183,80.059,118.592,80.377,118.565z M80.377,227.637
	C80.683,228.678,80.683,226.596,80.377,227.637L80.377,227.637z M80.904,236.332c0.31-0.041,0.748,0.046,0.791-0.263
	C81.385,236.11,80.947,236.023,80.904,236.332z M81.695,235.014c-0.205,0.06-0.52,0.008-0.527,0.264
	C81.373,235.219,81.688,235.271,81.695,235.014z M81.432,239.23C81.815,240.103,82.087,238.202,81.432,239.23L81.432,239.23z
	 M81.695,234.488c-0.074-0.542-0.704-0.526-1.054-0.79c-0.073,0.6,0.063,0.99,0.527,1.053
	C81.175,234.495,81.49,234.547,81.695,234.488C81.856,234.871,82.013,234.461,81.695,234.488z M81.432,228.165
	C81.815,229.038,82.087,227.137,81.432,228.165L81.432,228.165z M81.958,226.584c-0.074,0.6,0.063,0.99,0.527,1.053
	c0.205-0.234,0.283-0.595,0.263-1.053c-0.175,0-0.351,0-0.527,0C82.134,226.584,82.046,226.584,81.958,226.584
	C81.905,225.795,80.864,226.836,81.958,226.584z M83.275,235.805c-0.011-0.363,0.124-0.578,0.264-0.791
	c-0.675,0.028-1.256,0.149-1.581,0.527C82.506,236.118,82.81,235.31,83.275,235.805z M83.539,236.332
	c-0.311,0.042-0.748-0.045-0.791,0.264c0.715-0.188-0.188,1.243,0.527,1.054C83.167,237.014,83.757,237.077,83.539,236.332z
	 M83.802,240.284c-0.356-0.083-0.503-0.375-1.054-0.264C82.55,240.918,83.755,241.047,83.802,240.284z M84.856,230.008
	c-0.562-0.756-1.82-0.812-2.107-1.844c-0.003,0.523-0.719,0.335-0.527,1.054C83.294,229.288,83.754,229.969,84.856,230.008z
	 M85.646,238.967c-0.205,0.059-0.52,0.006-0.527,0.263C85.324,239.17,85.639,239.223,85.646,238.967z M85.12,237.649
	C85.425,238.69,85.425,236.608,85.12,237.649L85.12,237.649z M85.91,228.692c-0.822-0.242-1.533-1.967-2.371-1.317
	c-0.383,0.161,0.027,0.318,0,0C84.197,227.78,85.262,229.151,85.91,228.692z M85.91,120.41c0.205-0.059,0.52-0.008,0.526-0.264
	C86.232,120.205,85.917,120.154,85.91,120.41z M87.227,238.176c-0.204,0.059-0.519,0.007-0.527,0.264
	C86.905,238.38,87.22,238.432,87.227,238.176z M87.754,230.008c-0.073-0.562-1.342-1.264-1.581-0.79
	C86.6,229.583,86.822,230.151,87.754,230.008z M88.281,120.41C88.454,120.583,88.17,120.299,88.281,120.41L88.281,120.41z
	 M88.808,230.536c-0.003-0.266-0.461-0.331-0.527,0C88.577,230.508,88.691,230.918,88.808,230.536z M90.389,231.326
	c-0.312-0.077-0.995-1.061-1.317-0.263C89.383,231.139,90.066,232.124,90.389,231.326z M92.496,232.38
	c-0.211-0.14-0.427-0.275-0.79-0.265c-0.007-0.256-0.323-0.203-0.527-0.264c-0.162-0.382-0.318,0.027,0,0
	c0.007,0.257,0.322,0.205,0.527,0.264c0,0.089,0,0.177,0,0.265C91.918,232.563,92.428,232.79,92.496,232.38z M93.023,232.907
	C92.387,233.791,93.907,232.27,93.023,232.907L93.023,232.907z M94.078,233.434C94.46,233.272,94.051,233.116,94.078,233.434
	C92.983,233.182,94.024,234.223,94.078,233.434z M94.341,251.086c-0.03-0.322-0.079-0.625-0.527-0.527
	c0.041,0.31-0.045,0.748,0.264,0.79C94.092,251.188,94.117,251.038,94.341,251.086z M95.395,123.571
	C96.05,124.599,95.779,122.698,95.395,123.571L95.395,123.571z M95.395,235.542c0.968,0.254,1.047-1.295,0.264-1.317
	C95.437,234.53,95.31,234.93,95.395,235.542z M96.448,245.817c-0.611,0.084-1.011-0.043-1.317-0.264
	c-0.41,0.937,0.895,0.158,0.79,0.79c-0.383,0.161,0.027,0.318,0,0C96.156,246.227,96.393,246.112,96.448,245.817z M98.029,234.75
	c-0.31,0.041-0.748-0.045-0.79,0.264C97.549,234.973,97.987,235.059,98.029,234.75z M98.292,235.278
	C98.598,236.319,98.598,234.237,98.292,235.278L98.292,235.278z M98.819,22.403c-0.348-0.003-0.24-0.461-0.527-0.527
	C97.991,22.417,98.707,23.132,98.819,22.403z M99.083,25.564C99.245,25.948,99.402,25.538,99.083,25.564
	C98.921,25.182,98.764,25.591,99.083,25.564z M99.083,235.805C98.7,235.967,99.109,236.124,99.083,235.805
	C100.177,236.057,99.136,235.016,99.083,235.805z M102.508,23.457c0.823-0.771,2.57-0.525,2.371-1.581
	c-0.227,0.503-0.156-0.285-0.527-0.263c-0.162-0.383-0.318,0.027,0,0c-0.081,0.357-0.66,0.218-1.054,0.263
	C103.064,22.433,102.496,22.655,102.508,23.457z M100.664,254.51C100.553,254.4,100.836,254.683,100.664,254.51L100.664,254.51z
	 M100.927,236.595c0.047-0.575-0.216-0.839-0.79-0.79C100.089,236.379,100.353,236.643,100.927,236.595z M101.981,25.038
	C102.143,25.421,102.299,25.011,101.981,25.038C101.819,24.655,101.663,25.064,101.981,25.038z M103.298,255.038
	c-0.03-0.321-0.079-0.624-0.527-0.527c0.042,0.311-0.045,0.748,0.263,0.791C103.05,255.14,103.074,254.989,103.298,255.038z
	 M101.981,252.139c0.503,0.494,0.477-0.156,1.317,0c0.03,0.322,0.079,0.624,0.527,0.527
	C104.167,251.69,102.265,251.62,101.981,252.139z M103.298,237.649C104.186,238.45,104.097,236.675,103.298,237.649L103.298,237.649
	z M106.46,25.301c0.181-1.06-0.252-1.504-0.264-2.372c0.212-0.139,0.428-0.275,0.791-0.263c0.007,0.256,0.323,0.205,0.527,0.263
	c-0.097-1.684,1.349-2.61,2.371-2.371c-0.217-0.745,0.372-0.683,0.263-1.317c-2.22,0.326-4.043,1.049-5.269,2.371
	c0.417,0.021,1.005-0.127,1.054,0.263c-0.113,0.414-0.829,0.225-0.527,1.054c-0.088,0-0.176,0-0.264,0
	c-0.171,1.459-1.423,0.789-2.371,0.791c-0.155,0.946,0.306,1.275,0.527,1.844C104.617,25.742,105.337,25.32,106.46,25.301z
	 M104.879,252.93c0.295-0.027,0.41,0.383,0.527,0C105.403,252.665,104.944,252.598,104.879,252.93z M107.514,256.09
	c-0.435-0.003-0.147-0.73-0.527-0.789c-1.019,0.973-0.412-0.639-0.791-0.791c-0.063,0.728-0.979,0.602-1.317,1.054
	C105.701,255.633,106.926,256.663,107.514,256.09z M107.777,251.612c-0.205-0.059-0.52-0.006-0.527-0.263
	c0.16-0.015,0.312-0.039,0.263-0.263c-0.708-0.182-0.509,0.544-0.79,0.789C107.118,251.831,107.696,251.97,107.777,251.612z
	 M109.885,256.355c-0.817,0.347-1.461-0.781-1.844,0c1.108,0.184-0.252,1.199,0.791,1.317
	C108.502,256.553,109.707,256.967,109.885,256.355z M109.885,255.301c-0.396-0.305-1.109-0.925-1.317,0
	C108.727,255.453,109.817,255.917,109.885,255.301z M110.148,256.881C110.532,257.754,110.804,255.854,110.148,256.881
	L110.148,256.881z M110.148,254.51C110.229,256.112,110.664,253.506,110.148,254.51L110.148,254.51z M110.675,252.139
	c-0.527,0-1.054,0-1.581,0c0.576,1.36-0.388,1.161-1.054,1.844c0.501,0.113,0.662,0.568,1.317,0.527
	c0.465-0.557,0.594-0.779,0.263-1.58c0.376,0.062,0.444,0.434,0.791,0.526C110.194,252.711,110.783,252.774,110.675,252.139z
	 M112.52,257.409c-0.569-0.406-2.437-0.697-1.581,0.264C111.161,256.731,112.297,258.35,112.52,257.409z M113.046,255.038
	c-0.029-0.645-0.871-0.057-0.791,0.264c0.337,0.014,0.365,0.338,0.791,0.263C113.046,255.389,113.046,255.213,113.046,255.038z
	 M113.573,254.247C112.937,255.13,114.457,253.61,113.573,254.247L113.573,254.247z M116.734,258.462
	c-0.593-0.127-1.973-0.813-2.371-0.264C114.961,258.463,116.224,259.715,116.734,258.462z M116.734,254.247
	C117.04,255.288,117.04,253.206,116.734,254.247L116.734,254.247z M118.579,218.153c0.001,0.265-0.213,0.313-0.264,0.527
	C118.74,219.399,119.2,218.294,118.579,218.153z M119.633,264.522C117.945,264.218,119.054,265.327,119.633,264.522L119.633,264.522
	z M119.896,219.734C119.786,219.624,120.069,219.907,119.896,219.734L119.896,219.734z M120.95,262.942
	c-0.491,0.035-0.88,0.172-1.054,0.526C120.566,263.604,120.918,263.917,120.95,262.942z M121.213,219.47
	c-0.204,0.06-0.52,0.007-0.527,0.264C120.891,219.675,121.207,219.727,121.213,219.47z M122.004,16.607
	C122.309,17.648,122.309,15.566,122.004,16.607L122.004,16.607z M122.004,259.516C120.939,258.589,121.382,260.364,122.004,259.516
	L122.004,259.516z M122.004,256.09C122.309,257.131,122.309,255.05,122.004,256.09L122.004,256.09z M122.531,219.997
	c-0.205,0.06-0.52,0.008-0.527,0.265C122.208,220.202,122.523,220.253,122.531,219.997z M123.321,256.09
	C122.684,256.975,124.205,255.454,123.321,256.09L123.321,256.09z M124.639,263.995C123.379,263.262,124,264.859,124.639,263.995
	L124.639,263.995z M125.692,263.995C126.348,265.022,126.077,263.122,125.692,263.995L125.692,263.995z M127.537,15.29
	c0.175,0,0.351,0,0.527,0c0-0.176,0-0.351,0-0.527c-0.176,0-0.352,0-0.527,0C127.537,14.938,127.537,15.114,127.537,15.29z
	 M128.59,263.731c-0.298-0.523-1.862-0.646-2.107,0.264C126.734,264.483,128.664,264.44,128.59,263.731z M130.435,259.252
	C130.607,259.426,130.324,259.142,130.435,259.252L130.435,259.252z M129.908,22.403C130.07,22.786,130.226,22.376,129.908,22.403
	C129.854,21.614,128.813,22.655,129.908,22.403z M129.645,17.397C130.027,17.235,129.618,17.079,129.645,17.397
	C128.411,17.11,129.931,18.631,129.645,17.397z M130.698,263.731c-0.176,0-0.352,0-0.527,0c0-0.087,0-0.175,0-0.263
	c-0.383,0.144-1.362-0.308-1.318,0.263c0.656,0.029,0.816,0.494,1.318,0C130.236,264.063,130.695,263.997,130.698,263.731
	C131.081,263.569,130.671,263.413,130.698,263.731z M131.752,250.559C132.057,251.599,132.057,249.518,131.752,250.559
	L131.752,250.559z M131.488,256.618c0.108,0.635-0.481,0.573-0.263,1.318C132.269,258.535,132.392,256.322,131.488,256.618z
	 M133.069,16.08C132.958,15.97,133.242,16.253,133.069,16.08L133.069,16.08z M133.596,260.307c-0.31,0.041-0.748-0.046-0.791,0.263
	C133.116,260.529,133.553,260.616,133.596,260.307z M134.386,263.731c-0.374-0.021-0.746-0.043-0.79,0.264
	c0.256,0.008,0.205,0.323,0.263,0.527c0.176,0,0.352,0,0.527,0c0.051-0.213,0.265-0.263,0.264-0.527
	C135.684,263.918,134.701,262.934,134.386,263.731z M135.177,249.504c-0.745,0.219-0.683-0.371-1.318-0.264
	C133.706,250.309,134.944,250.079,135.177,249.504z M134.913,256.881C135.569,257.909,135.297,256.008,134.913,256.881
	L134.913,256.881z M135.44,28.989c-0.031-0.976-0.383-0.663-1.054-0.527C134.418,29.438,134.77,29.125,135.44,28.989z
	 M135.704,21.349c0.014-0.454-0.203-0.675-0.526-0.791c-0.196,0.927-1.156,1.106-2.108,0.791c-0.08,0.695,0.55,0.68,1.054,0.791
	C134.533,21.759,135.15,21.585,135.704,21.349z M137.547,20.822C137.854,21.863,137.854,19.781,137.547,20.822L137.547,20.822z
	 M136.231,256.09C136.393,256.474,136.549,256.065,136.231,256.09C136.069,255.708,135.913,256.118,136.231,256.09z
	 M136.231,263.731C137.119,264.532,137.03,262.757,136.231,263.731L136.231,263.731z M136.758,256.881
	C135.663,256.629,136.705,257.67,136.758,256.881C137.141,256.719,136.731,256.563,136.758,256.881z M137.547,255.038
	c-0.652-0.039-1.277-0.049-1.316,0.526C136.7,255.418,137.325,255.429,137.547,255.038z M137.811,35.312
	c-0.204,0.059-0.52,0.007-0.526,0.263C137.489,35.517,137.804,35.569,137.811,35.312z M143.872,92.22
	c-0.338-0.015-0.365-0.338-0.791-0.264C142.67,92.604,143.975,92.731,143.872,92.22z M141.5,91.429
	C141.883,91.267,141.473,91.111,141.5,91.429C140.406,91.177,141.447,92.218,141.5,91.429z M140.182,249.768
	c0.414-0.025,0.914,0.035,0.791-0.527c-0.176,0-0.352,0-0.527,0C140.448,249.506,140.233,249.555,140.182,249.768z M139.128,256.881
	C139.434,257.922,139.434,255.84,139.128,256.881L139.128,256.881z M138.338,264.258
	C138.511,264.43,138.228,264.148,138.338,264.258L138.338,264.258z M139.128,255.564c0.048-0.574-0.216-0.837-0.79-0.79
	C138.291,255.348,138.553,255.612,139.128,255.564z M140.709,264.258c-0.557-0.234-0.779-0.802-1.581-0.79
	C139.231,264.383,140.2,264.422,140.709,264.258z M142.027,263.468c-0.409-0.497-1.026,0.378-1.581-0.264
	c0.032,0.671,0.384,1.022,1.055,1.054C141.563,263.882,141.934,263.814,142.027,263.468z M142.291,256.881
	c-0.015,0.161-0.04,0.312-0.264,0.264c0,0.176,0,0.352,0,0.527C142.675,258.083,142.801,256.778,142.291,256.881z M142.553,251.612
	C141.917,252.497,143.438,250.976,142.553,251.612L142.553,251.612z M143.872,93.8c0.11-0.581-0.789-1.453-1.055-0.791
	c0.161,0.015,0.312,0.04,0.264,0.264c-0.037,0.312-0.469,0.597,0,0.791C143.228,93.516,143.492,93.505,143.872,93.8z
	 M144.398,263.995c-0.204,0.06-0.521,0.008-0.526,0.264C144.075,264.2,144.391,264.251,144.398,263.995z M145.188,94.327
	c-0.176,0-0.352,0-0.527,0c0,0.176,0,0.351,0,0.527c0.176,0,0.352,0,0.527,0C145.188,94.678,145.188,94.503,145.188,94.327z
	 M144.924,93.01C144.207,94.347,145.844,93.991,144.924,93.01L144.924,93.01z M145.715,36.63c-0.265,0.001-0.313-0.213-0.527-0.263
	c-0.002,0.348-0.461,0.24-0.527,0.527c0.357,0.083,0.504,0.375,1.055,0.263C145.715,36.981,145.715,36.806,145.715,36.63z
	 M146.505,37.157C146.89,38.03,147.161,36.129,146.505,37.157L146.505,37.157z M146.77,35.84
	C146.386,36.001,146.795,36.158,146.77,35.84C147.152,35.677,146.743,35.521,146.77,35.84z M157.307,16.607
	C156.67,17.491,158.191,15.97,157.307,16.607L157.307,16.607z M156.517,16.08C156.69,16.253,156.407,15.969,156.517,16.08
	L156.517,16.08z M153.356,40.582c0.768,0.388,0.768-1.177,0-0.791C153.356,40.055,153.356,40.318,153.356,40.582z M152.829,15.29
	C152.717,15.179,153.001,15.462,152.829,15.29L152.829,15.29z M152.565,38.21c0.205-0.059,0.52-0.007,0.527-0.263
	C152.887,38.006,152.573,37.954,152.565,38.21z M150.985,86.16c0.216,0.75,0.594,1.337,1.316,1.581
	C153.088,86.823,151.68,86.412,150.985,86.16z M151.511,16.08c0.204-0.059,0.521-0.007,0.526-0.264
	C151.834,15.875,151.518,15.824,151.511,16.08z M149.93,26.355c0.205-0.059,0.52-0.007,0.527-0.264
	C150.253,26.151,149.938,26.099,149.93,26.355z M149.14,38.474c0.856-0.022,1.62-0.136,2.107-0.527
	c-1.344,0.291-0.236-1.871-1.581-1.581c-0.025,0.414,0.035,0.913-0.526,0.79C149.325,37.968,149.325,37.663,149.14,38.474z
	 M147.559,37.947c0.773-0.018,0.775-0.805,1.318-1.054c-0.019-0.773-0.604-0.979-1.055-1.318c-0.077,0.537-0.713,0.517-0.79,1.054
	C147.889,36.679,147.223,37.088,147.559,37.947C147.176,38.109,147.586,38.266,147.559,37.947z M148.086,255.301
	C147.924,254.918,147.768,255.328,148.086,255.301C148.249,255.684,148.405,255.274,148.086,255.301z M147.823,263.731
	C147.661,263.348,147.504,263.758,147.823,263.731C147.875,264.52,148.917,263.479,147.823,263.731z M149.667,263.731
	c-0.394,0.045-0.972-0.094-1.053,0.264c0.205,0.059,0.307,0.221,0.264,0.527c0.175,0,0.351,0,0.526,0
	C149.418,264.186,149.742,264.157,149.667,263.731z M151.248,39.791C149.989,39.059,150.61,40.656,151.248,39.791L151.248,39.791z
	 M151.511,100.387c-0.374-0.022-0.746-0.043-0.79,0.264C151.1,100.945,151.364,100.934,151.511,100.387
	C151.894,100.225,151.485,100.068,151.511,100.387z M154.41,88.268c-1.253-0.133-1.444-0.252-2.108,0.527
	c1.306-0.34,0.982,0.951,1.845,1.054C154.111,89.199,154.106,88.579,154.41,88.268z M154.41,27.145
	C154.299,27.035,154.583,27.317,154.41,27.145L154.41,27.145z M155.727,16.343c-0.611-0.084-1.012,0.042-1.317,0.264
	c-0.163-0.383-0.318,0.027,0,0c0,0.088,0,0.175,0,0.263C154.908,16.753,155.997,17.229,155.727,16.343z M155.2,38.737
	c0.176,0,0.352,0,0.527,0c0-0.175,0-0.351,0-0.527c-0.176,0-0.352,0-0.527,0C155.2,38.386,155.2,38.562,155.2,38.737z
	 M156.78,41.899c0.421-0.396-0.006-1.11-0.526-1.318c-0.058,0.206-0.22,0.306-0.526,0.264
	C155.841,41.434,156.192,41.785,156.78,41.899z M157.571,89.849c-0.584-0.145-0.375,0.503-0.791,0.527c-0.053-0.789-1.094,0.252,0,0
	c0,0.088,0,0.176,0,0.264C157.356,90.687,157.619,90.423,157.571,89.849z M158.098,17.397
	C157.21,16.597,157.299,18.371,158.098,17.397L158.098,17.397z M158.888,91.429c-0.003-0.266-0.462-0.332-0.527,0
	C158.657,91.402,158.772,91.812,158.888,91.429z M158.888,89.849c-0.352,0-0.702,0-1.054,0c0,0.176,0,0.352,0,0.527
	C158.301,90.315,159.154,90.641,158.888,89.849z M159.152,28.726C159.325,28.899,159.042,28.615,159.152,28.726L159.152,28.726z
	 M159.416,45.324c0.49-0.036,0.88-0.173,1.054-0.527c-0.16-0.152-1.25-0.616-1.317,0C159.357,44.855,159.458,45.018,159.416,45.324z
	 M160.997,93.537c0.033-0.473-0.262-0.616-0.791-0.527c0,0.176,0,0.352,0,0.527C160.469,93.537,160.733,93.537,160.997,93.537z
	 M160.997,249.241C161.301,250.282,161.301,248.201,160.997,249.241L160.997,249.241z M161.786,30.043
	C162.092,31.084,162.092,29.002,161.786,30.043L161.786,30.043z M184.708,30.307C185.012,31.348,185.012,29.266,184.708,30.307
	L184.708,30.307z M182.336,29.253c0.238-0.464,0.969-0.435,1.054-1.054c-0.498,0.059-0.581-0.297-1.054-0.264
	C182.678,28.59,181.563,29.029,182.336,29.253z M182.073,51.647c-0.265,0-0.314-0.213-0.527-0.264
	C180.827,51.808,181.932,52.268,182.073,51.647z M179.702,28.989C179.59,28.879,179.875,29.162,179.702,28.989L179.702,28.989z
	 M177.594,28.462c0.264,0,0.526,0,0.79,0c0.231-0.542-0.684-1.183-0.79-0.527C177.913,27.991,177.756,28.229,177.594,28.462z
	 M175.223,34.259C175.878,35.287,175.606,33.386,175.223,34.259L175.223,34.259z M174.959,25.564
	c0.205-0.059,0.52-0.007,0.526-0.263C175.282,25.36,174.967,25.308,174.959,25.564z M174.168,23.72
	C174.058,23.61,174.342,23.893,174.168,23.72L174.168,23.72z M173.116,32.941C173.004,32.831,173.288,33.114,173.116,32.941
	L173.116,32.941z M172.061,22.667C171.784,24.195,173.204,22.776,172.061,22.667L172.061,22.667z M171.271,24.511
	C171.655,25.384,171.926,23.483,171.271,24.511L171.271,24.511z M169.163,23.72C169.547,24.594,169.819,22.693,169.163,23.72
	L169.163,23.72z M169.163,21.613C169.336,21.786,169.053,21.502,169.163,21.613L169.163,21.613z M167.583,16.87
	c0.524,0.176,1.125,0.909,1.316,0C168.246,17.213,167.806,16.097,167.583,16.87z M167.846,21.613c0.204-0.06,0.52-0.007,0.526-0.264
	C168.168,21.408,167.853,21.356,167.846,21.613z M166.529,22.403c0.745-0.217,0.683,0.372,1.317,0.264
	C168.31,21.487,166.452,21.719,166.529,22.403z M166.529,17.661C166.418,17.55,166.702,17.833,166.529,17.661L166.529,17.661z
	 M163.104,30.043c0.16,0.015,0.312,0.04,0.263,0.264c0.176,0,0.352,0,0.526,0C164.303,29.658,162.999,29.532,163.104,30.043z
	 M164.42,41.635c-0.355-0.083-0.502-0.375-1.054-0.263c0.012,0.362-0.124,0.579-0.263,0.79c0.518-0.079,0.522,0.356,0.789,0.527
	C163.592,41.86,164.307,42.049,164.42,41.635z M164.948,42.426C165.12,42.599,164.836,42.315,164.948,42.426L164.948,42.426z
	 M165.211,19.505c-0.023,0.415-0.672,0.206-0.527,0.791C165.227,20.526,165.868,19.612,165.211,19.505z M165.475,32.151
	C165.78,33.192,165.78,31.11,165.475,32.151L165.475,32.151z M165.739,16.87c-0.552-0.142-0.99-0.461-1.318,0.264
	c0.246,0.193,0.399,0.479,0.527,0.79c-0.383,0.163,0.026,0.318,0,0c0.088,0,0.176,0,0.264,0c0.007-0.256,0.322-0.204,0.527-0.263
	C165.739,17.397,165.739,17.134,165.739,16.87z M166.265,39.264C166.92,40.292,166.649,38.391,166.265,39.264L166.265,39.264z
	 M166.529,49.013C166.833,50.054,166.833,47.972,166.529,49.013L166.529,49.013z M167.319,49.276c0.176,0,0.352,0,0.527,0
	c0.409-0.648-0.895-0.775-0.791-0.263C167.215,49.027,167.368,49.052,167.319,49.276z M168.11,45.587
	c-0.012-0.363,0.123-0.578,0.263-0.791c-0.362,0.012-0.578-0.124-0.79-0.263C167.508,45.134,167.646,45.524,168.11,45.587z
	 M168.899,50.593c-0.211-0.139-0.428-0.275-0.789-0.264c-0.055-0.789-1.095,0.252,0,0c0,0.088,0,0.176,0,0.264
	C168.322,50.776,168.831,51.003,168.899,50.593z M171.007,45.324c-0.468,0.06-1.319-0.265-1.054,0.527c-0.264,0-0.527,0-0.791,0
	c-0.387,0.769,1.178,0.769,0.791,0c0.352,0,0.702,0,1.054,0C171.007,45.675,171.007,45.5,171.007,45.324z M174.168,36.894
	C174.058,36.783,174.342,37.066,174.168,36.894L174.168,36.894z M176.012,43.743C176.319,44.784,176.319,42.702,176.012,43.743
	L176.012,43.743z M179.438,54.282c-0.158,0.684,0.105,0.948,0.791,0.791C180.41,54.364,179.684,54.563,179.438,54.282z
	 M180.492,38.21c-0.665-0.652-1.413-1.221-2.634-1.317c-0.043-0.309-0.48-0.223-0.791-0.264c-1.15-1.132-2.498-2.069-4.479-2.371
	c-0.562-1.371-1.979-1.884-3.426-2.371c-0.096,0.674-0.456,1.655-1.053,1.054c0.08-0.621,0.914-0.49,0.789-1.317
	c-1.053-0.11-1.804-1.558-2.896-0.79c1.471,1.866,2.797,3.877,5.269,4.742c0.085-0.645,1.897,0.29,2.897-0.263
	c0.236,0.466,0.637,0.77,0.791,1.317c0.702,0,1.405,0,2.107,0c0.043,0.309,0.48,0.222,0.791,0.264
	C178.518,37.404,180.033,39.17,180.492,38.21z M181.809,55.599c0.426-0.075,0.453,0.249,0.79,0.263c0-0.176,0-0.351,0-0.527
	c0.049-0.224-0.103-0.249-0.263-0.263C182.271,55.358,181.812,55.25,181.809,55.599c-0.771,0.018-0.979,0.602-1.317,1.054
	C181.668,57.181,181.635,56.217,181.809,55.599z M182.073,191.28c0.034-0.473-0.262-0.616-0.791-0.527c0,0.177,0,0.353,0,0.527
	C181.545,191.28,181.809,191.28,182.073,191.28z M182.864,58.76c-0.004-0.266-0.463-0.331-0.527,0
	C182.631,58.733,182.747,59.143,182.864,58.76z M183.126,59.287c0.161,0.015,0.312,0.04,0.264,0.263c0.176,0,0.351,0,0.526,0
	C184.327,58.902,183.022,58.776,183.126,59.287z M183.917,52.701C183.28,53.585,184.801,52.064,183.917,52.701L183.917,52.701z
	 M184.708,57.18C184.545,56.796,184.389,57.207,184.708,57.18C184.87,57.562,185.026,57.153,184.708,57.18z M185.234,54.019
	C185.54,55.059,185.54,52.977,185.234,54.019L185.234,54.019z M185.498,41.372c-0.133-0.746-0.749-1.007-1.317-1.317
	c-0.076,0.162-0.655,1.014,0,1.054c0.059-0.205,0.221-0.306,0.527-0.263C184.673,41.318,184.969,41.462,185.498,41.372z
	 M212.107,44.534c0.394-0.045,0.972,0.094,1.054-0.264C212.811,43.928,212.18,43.923,212.107,44.534z M212.897,46.904
	C212.735,46.521,212.579,46.931,212.897,46.904C213.059,47.288,213.215,46.878,212.897,46.904z M208.155,46.114
	c0.344,1.469,3.789,0.754,2.898,2.635c1.035-0.018,1.453,0.398,2.107,0c-1.104-0.829-1.152-2.711-2.371-3.425
	c-0.522,0.673,0.273,1.211-0.264,1.581c-0.146-0.537-0.792-0.516-0.264-1.054C209.633,46.011,208.352,45.52,208.155,46.114z
	 M208.418,53.491C208.724,54.532,208.724,52.45,208.418,53.491L208.418,53.491z M207.628,45.324c0.31-0.042,0.747,0.045,0.79-0.263
	C208.108,45.102,207.67,45.015,207.628,45.324z M206.311,43.216c0.205-0.059,0.52-0.007,0.527-0.263
	C206.633,43.012,206.319,42.96,206.311,43.216z M206.311,53.491C206.696,54.364,206.966,52.463,206.311,53.491L206.311,53.491z
	 M206.575,65.083C206.463,64.973,206.747,65.256,206.575,65.083L206.575,65.083z M204.204,40.845
	C205.54,41.563,205.184,39.926,204.204,40.845L204.204,40.845z M203.94,41.372C204.112,41.545,203.829,41.261,203.94,41.372
	L203.94,41.372z M199.198,39.791c0.172,1.234,1.287,1.523,2.371,1.844C201.217,40.582,199.706,40.688,199.198,39.791z
	 M198.67,37.157C198.975,38.197,198.975,36.116,198.67,37.157L198.67,37.157z M198.67,47.168c0.498,0.03,0.184,0.871,0.791,0.791
	c-0.012-0.363,0.123-0.579,0.263-0.791C199.234,47.42,198.844,46.379,198.67,47.168z M197.353,34.522
	C197.516,34.905,197.671,34.495,197.353,34.522c-0.05-0.213-0.265-0.263-0.263-0.527c0.383-0.162-0.027-0.318,0,0
	C195.947,33.863,196.979,35.305,197.353,34.522z M195.772,34.522c0.205-0.059,0.521-0.007,0.527-0.263
	C196.095,34.318,195.78,34.266,195.772,34.522z M195.246,32.678C194.446,33.565,196.219,33.477,195.246,32.678L195.246,32.678z
	 M195.509,35.312C195.682,35.485,195.399,35.202,195.509,35.312L195.509,35.312z M191.03,35.049c0.74,0.065,1.272,1.694,2.107,0.791
	c-0.391-0.312-1.176-0.229-1.053-1.054C191.612,34.752,191.528,35.108,191.03,35.049C190.868,34.667,190.711,35.076,191.03,35.049z
	 M188.922,33.731c-0.252,0.955,1.137,0.268,1.317,0.791C190.132,33.859,189.338,33.312,188.922,33.731z M188.659,29.253
	c0.217,0.662,0.346,1.412,1.318,1.317c-0.209-0.925-0.74-0.866,0-1.581C189.149,28.697,189.28,28.866,188.659,29.253z
	 M188.396,28.199C188.569,28.372,188.286,28.088,188.396,28.199L188.396,28.199z M187.079,40.318
	c0.204-0.059,0.52-0.007,0.526-0.263C187.401,40.114,187.086,40.062,187.079,40.318z M186.815,41.899
	c0.172,1.057,1.882,0.577,1.844,1.844c-0.463,0.151-1.548-0.318-1.58,0.264c0.441,0.35,0.883,0.698,1.844,0.527
	c0.263-0.644,0.088-0.561,0.264-1.581C188.28,42.423,187.596,41.917,186.815,41.899z M188.131,52.701
	c-0.276,0.667,0.89,1.168,1.055,0.527C188.796,53.09,188.522,52.838,188.131,52.701z M188.922,52.437
	C189.227,53.479,189.227,51.396,188.922,52.437L188.922,52.437z M187.079,54.545C186.801,56.074,188.219,54.655,187.079,54.545
	L187.079,54.545z M186.551,28.726C186.724,28.899,186.441,28.615,186.551,28.726L186.551,28.726z M186.288,51.383
	c0.025,0.415-0.035,0.914,0.527,0.791C186.829,51.721,186.612,51.499,186.288,51.383z M186.024,41.899
	C186.198,42.072,185.915,41.788,186.024,41.899L186.024,41.899z M186.551,59.814c-0.16,0.015-0.312,0.039-0.264,0.263
	c1.103,0.414,0.288-1.608,0-0.527C186.448,59.565,186.6,59.59,186.551,59.814z M186.815,60.605
	C186.988,60.777,186.704,60.494,186.815,60.605L186.815,60.605z M186.551,61.132C186.724,61.304,186.441,61.021,186.551,61.132
	L186.551,61.132z M188.396,64.82c-0.86-0.469-1.623-1.218-2.108-0.264c1.058-0.054,1.179,0.067,0.527,0.527
	C187.621,65.274,187.589,64.628,188.396,64.82C188.557,65.203,188.714,64.793,188.396,64.82z M188.922,60.868
	c-0.467,0.06-1.319-0.266-1.054,0.527C188.469,61.468,188.859,61.332,188.922,60.868z M189.186,62.712
	C188.803,62.875,189.212,63.031,189.186,62.712C189.569,62.55,189.159,62.394,189.186,62.712z M189.45,61.395
	c-0.205,0.059-0.52,0.007-0.527,0.264C189.127,61.599,189.442,61.651,189.45,61.395z M190.503,56.916
	C189.438,55.99,189.882,57.764,190.503,56.916L190.503,56.916z M190.766,61.659C190.713,60.87,189.672,61.911,190.766,61.659
	C190.928,62.042,191.084,61.632,190.766,61.659z M190.503,52.701c0,0.263,0,0.527,0,0.79c-0.162,0.366-1.015,0.04-1.054,0.528
	c0.391,0.414,1.177,0.293,1.054-0.528C191.118,53.414,191.118,52.778,190.503,52.701z M191.03,55.072
	C191.415,55.945,191.686,54.044,191.03,55.072L191.03,55.072z M191.557,44.534c-0.079,0.694,0.365,0.865,1.054,0.79
	C192.69,44.629,192.247,44.459,191.557,44.534z M192.611,47.695c0.719-0.192,0.53,0.524,1.054,0.527
	C193.942,47.556,192.776,47.054,192.611,47.695z M193.137,61.132c-0.785-0.235-2.156,0.269-1.316,0.79
	C192.039,60.979,192.743,62.029,193.137,61.132z M193.928,56.126c-0.352-0.263-0.518-0.712-1.054-0.791
	C192.53,56.149,193.622,56.83,193.928,56.126z M194.719,62.449c-0.205,0.059-0.52,0.007-0.527,0.264
	C194.397,62.653,194.711,62.705,194.719,62.449z M194.983,54.019c-0.205,0.059-0.521,0.007-0.527,0.263
	C194.66,54.223,194.975,54.274,194.983,54.019z M195.772,246.343c-0.204,0.06-0.52,0.007-0.526,0.264
	C195.45,246.547,195.765,246.6,195.772,246.343z M197.879,65.61c-0.422-0.456-0.983-0.771-1.58-1.054
	c0.145,0.383-0.308,1.362,0.264,1.318C196.518,65.302,197.497,65.754,197.879,65.61c0.037,0.491,0.174,0.881,0.527,1.054
	C198.346,66.197,198.672,65.345,197.879,65.61z M198.67,59.023c-0.204,0.06-0.52,0.008-0.527,0.264
	C198.348,59.229,198.664,59.28,198.67,59.023z M199.724,67.718C199.897,67.891,199.614,67.607,199.724,67.718L199.724,67.718z
	 M199.724,50.33c-0.825,0.39-1.077,0.011-1.581-0.527c-0.004,0.435-0.73,0.147-0.79,0.527c1.053,0.353,1.512,1.299,2.635,1.581
	C200.178,51.105,199.718,50.95,199.724,50.33z M200.251,60.868C200.907,61.896,200.635,59.995,200.251,60.868L200.251,60.868z
	 M201.042,50.33c0.146,0.538,0.793,0.517,0.264,1.054c0.772,0.301,0.979,0.155,1.317-0.527
	C201.793,50.984,202.026,50.048,201.042,50.33c0.051-0.213,0.265-0.263,0.264-0.527c-0.523-0.439-0.335,0.024-1.054,0
	c0.111-0.551-0.181-0.697-0.264-1.054c-2.403-0.144-3.066-2.027-5.532-2.108c0-0.264,0-0.527,0-0.791
	c-0.805,0.19-0.961-0.269-1.581-0.263c0.194,1.211,1.505,1.306,2.108,2.107c0.195,0.811-0.724,0.507-0.527,1.318
	c0.635-0.108,0.572,0.48,1.316,0.263c0.512-0.396-0.46-1.11,0.527-1.317c0.868,1.338,2.883,1.031,3.952,2.634
	C200.676,50.667,200.705,50.344,201.042,50.33z M202.359,58.76c-0.67-0.136-1.021-0.449-1.054,0.527
	C201.906,59.361,202.295,59.224,202.359,58.76z M202.623,61.132c-0.176,0-0.352,0-0.526,0c0,0.264-0.214,0.313-0.264,0.527
	C202.247,61.633,202.745,61.693,202.623,61.132z M203.149,68.508c0.074-0.601-0.062-0.991-0.526-1.054
	C202.659,67.945,202.795,68.335,203.149,68.508c0,0.176,0,0.351,0,0.527c-1.094-0.252-0.053,0.789,0,0
	C203.481,68.97,203.416,68.512,203.149,68.508z M203.676,60.605C202.417,59.872,203.038,61.469,203.676,60.605L203.676,60.605z
	 M203.676,53.228c-0.744-0.134-1.119-0.637-1.844-0.791C201.346,53.644,203.257,53.799,203.676,53.228z M203.94,52.174
	c0.014-0.336,0.338-0.365,0.264-0.791c-0.395,0.045-0.973-0.094-1.055,0.264c0.205,0.058,0.307,0.22,0.264,0.527
	C203.588,52.174,203.764,52.174,203.94,52.174z M205.256,62.712c-0.458,0.02-0.818-0.059-1.053-0.264
	c0.114,0.588,0.465,0.939,1.053,1.054C205.256,63.239,205.256,62.976,205.256,62.712z M205.52,45.061
	c2.008,0.079,0.531-1.921-0.527-1.844C204.749,44.251,205.91,43.881,205.52,45.061z M206.838,68.245
	c-0.205,0.059-0.52,0.007-0.527,0.263C206.516,68.449,206.831,68.501,206.838,68.245z M207.628,72.987
	c-0.205,0.059-0.521,0.007-0.526,0.263C207.305,73.191,207.621,73.243,207.628,72.987z M207.102,66.401
	C206.991,66.29,207.274,66.573,207.102,66.401L207.102,66.401z M207.628,56.916c-0.003-0.266-0.462-0.331-0.526,0
	C207.397,56.889,207.511,57.299,207.628,56.916z M209.736,69.299c-0.356-0.083-0.503-0.375-1.054-0.264c0,0.264,0,0.527,0,0.791
	C209.172,69.79,209.562,69.652,209.736,69.299z M209.999,67.718c-0.413,0.024-0.913-0.036-0.789,0.527
	C209.663,68.259,209.884,68.042,209.999,67.718z M209.736,57.97c0-0.175,0-0.351,0-0.527c-0.176,0-0.351,0-0.526,0
	c0,0.176,0,0.352,0,0.527C209.385,57.97,209.56,57.97,209.736,57.97z M210.262,59.023c0.357,0.083,0.504,0.375,1.055,0.264
	C211.739,58.554,210.178,58.559,210.262,59.023z M211.58,55.862c-1.338-0.945-2.862-1.704-4.741-2.108
	c-0.189,0.942,1.185,2.428,1.316,1.318c1.16,0.685,2.486,1.202,3.162,2.371C211.125,56.637,211.771,56.668,211.58,55.862z
	 M213.952,57.97c-1.163,0.109-1.162-0.946-2.108-1.054c-0.446,1.152,1.922,1.525,2.372,2.634
	C214.406,58.745,213.76,58.776,213.952,57.97z M242.932,91.166C243.237,92.207,243.237,90.125,242.932,91.166L242.932,91.166z
	 M241.087,87.214C241.471,88.087,241.743,86.187,241.087,87.214L241.087,87.214z M239.243,84.053
	C239.548,85.093,239.548,83.012,239.243,84.053L239.243,84.053z M238.19,84.58C239.077,85.38,238.988,83.605,238.19,84.58
	L238.19,84.58z M235.292,66.137c0.041,0.31-0.045,0.748,0.264,0.791C235.85,66.548,235.838,66.285,235.292,66.137z M235.028,80.364
	C235.684,81.392,235.412,79.491,235.028,80.364L235.028,80.364z M231.077,63.502c0.611,0.142,1.815-0.426,1.053-0.79
	c-0.039,0.655-0.892,0.077-1.053,0C231.077,62.976,231.077,63.239,231.077,63.502z M230.813,78.256
	c0.16,1.202,1.533,1.075,0.526,2.108c0.635-0.108,0.573,0.481,1.317,0.263C232.646,79.233,231.735,78.739,230.813,78.256z
	 M232.393,86.16C232.283,86.05,232.566,86.333,232.393,86.16L232.393,86.16z M231.077,86.951
	C230.44,87.834,231.959,86.314,231.077,86.951L231.077,86.951z M230.813,59.023C230.702,58.913,230.985,59.196,230.813,59.023
	L230.813,59.023z M229.231,57.18C229.393,57.562,229.549,57.153,229.231,57.18C229.07,56.796,228.913,57.207,229.231,57.18z
	 M228.705,59.023C229.01,60.065,229.01,57.982,228.705,59.023L228.705,59.023z M228.178,57.707c0.295-0.027,0.41,0.383,0.526,0
	C228.702,57.441,228.243,57.375,228.178,57.707z M228.442,60.868C228.747,61.909,228.747,59.827,228.442,60.868L228.442,60.868z
	 M227.124,74.832c0.858,0.075,1.026,1.002,0.264,1.317c0.994-0.116,1.237,0.52,1.844,0.791
	C230.149,75.74,228.072,74.141,227.124,74.832z M227.387,56.389c-0.089-0.213-0.699-0.318-0.79,0
	C226.422,57,227.626,56.959,227.387,56.389z M226.861,73.514C226.75,73.404,227.034,73.687,226.861,73.514L226.861,73.514z
	 M225.543,57.97c0.176,0,0.352,0,0.527,0c0-0.175,0-0.351,0-0.527c-0.176,0-0.352,0-0.527,0
	C225.543,57.619,225.543,57.794,225.543,57.97z M225.543,71.934c-0.077,0.162-0.656,1.014,0,1.054
	C225.774,72.522,226.425,72.171,225.543,71.934z M225.28,71.406C225.442,71.789,225.598,71.38,225.28,71.406
	C225.118,71.023,224.961,71.433,225.28,71.406z M224.227,69.299C224.116,69.188,224.399,69.472,224.227,69.299L224.227,69.299z
	 M222.118,67.191c-0.044-0.395,0.095-0.973-0.263-1.054C221.513,66.487,221.508,67.117,222.118,67.191z M221.329,79.837
	c-0.012,0.451,0.195,0.683,0.526,0.791c0.083,1.3,1.192,0.191,0,0C221.866,80.177,221.659,79.945,221.329,79.837z M220.274,50.33
	c0.205-0.059,0.52-0.007,0.527-0.263C220.596,50.125,220.282,50.073,220.274,50.33z M221.065,65.347
	c-0.308-0.044-0.286-0.416-0.264-0.791c-0.459,0.02-0.819-0.058-1.054-0.263C219.45,65.226,220.752,65.895,221.065,65.347z
	 M218.958,50.593c0.024,0.414-0.036,0.914,0.526,0.79C219.498,50.93,219.282,50.708,218.958,50.593z M218.167,76.939
	c0,0.351,0,0.702,0,1.054c0.803-0.103,1.342,0.692,1.581-0.264C218.599,78.087,218.793,77.102,218.167,76.939z M218.167,80.364
	C218.338,80.536,218.055,80.253,218.167,80.364L218.167,80.364z M218.167,47.695c-0.348-0.003-0.24-0.461-0.527-0.527
	C216.998,47.473,217.934,48.409,218.167,47.695z M216.849,48.486c0.042,0.31-0.046,0.748,0.263,0.79
	c0.016-0.161,0.04-0.312,0.264-0.263C217.346,48.691,217.297,48.389,216.849,48.486z M215.004,240.02
	C215.311,241.061,215.311,238.979,215.004,240.02L215.004,240.02z M215.532,81.945C215.705,82.118,215.421,81.834,215.532,81.945
	L215.532,81.945z M215.532,81.418C215.705,81.591,215.421,81.307,215.532,81.418L215.532,81.418z M216.585,74.568
	c-0.348-0.003-0.241-0.461-0.526-0.527C215.756,74.581,216.473,75.297,216.585,74.568z M217.375,64.556
	c-0.497-0.029-0.182-0.871-0.79-0.79C216.224,64.517,217.058,65.35,217.375,64.556z M218.694,84.58
	c0.079-0.694-0.365-0.865-1.055-0.791c0.043,0.306-0.058,0.469-0.264,0.527c-0.161-0.383-0.318,0.027,0,0c0,0.088,0,0.176,0,0.264
	C217.878,85.074,217.852,84.423,218.694,84.58z M218.43,131.739c0.205-0.059,0.52-0.008,0.527-0.264
	C218.752,131.534,218.438,131.482,218.43,131.739z M218.167,235.014c-0.182,0.709,0.545,0.51,0.791,0.791
	C219.139,235.096,218.413,235.295,218.167,235.014z M220.274,135.69c0.041-0.655-0.414-0.815-0.526-1.317
	c0.299-0.05,0.146-0.264,0-0.263c0.077-0.693-1.022-0.208-0.79-1.054c-1.486,0.069-0.488,1.056-1.055,1.844
	c0.463,0.152,1.549-0.318,1.581,0.264c0,0.175,0,0.351,0,0.527c-0.324-0.294-0.541-0.229-0.526,0.263
	C219.702,136.171,219.639,135.583,220.274,135.69z M221.591,86.687c0.012-0.451-0.196-0.682-0.526-0.791
	c-0.162-0.383-0.318,0.027,0,0c0,0.264,0,0.527,0,0.791c-0.374-0.022-0.746-0.043-0.791,0.264
	C220.885,87.034,221.286,86.908,221.591,86.687z M221.591,232.643c-0.015,0.161-0.039,0.312-0.263,0.264c0,0.176,0,0.352,0,0.527
	C221.976,233.843,222.102,232.54,221.591,232.643z M222.381,86.16C222.307,85.123,221.221,86.209,222.381,86.16
	C222.543,86.543,222.7,86.133,222.381,86.16z M223.436,54.019c-0.176,0-0.352,0-0.527,0c0.05-0.214,0.265-0.263,0.264-0.528
	c-0.611,0.084-1.012-0.042-1.317-0.263c-0.079,0.694,0.364,0.865,1.054,0.791c-0.051,0.213-0.264,0.262-0.264,0.527
	c0.426-0.075,0.453,0.249,0.791,0.263C223.436,54.545,223.436,54.282,223.436,54.019z M224.49,83.262
	c-0.31,0.042-0.748-0.045-0.791,0.264C224.009,83.484,224.448,83.571,224.49,83.262z M224.49,128.577
	C224.794,129.618,224.794,127.536,224.49,128.577L224.49,128.577z M225.28,91.166C225.663,91.004,225.253,90.848,225.28,91.166
	c-0.213-0.05-0.262-0.264-0.527-0.264C224.372,91.665,225.477,92.125,225.28,91.166z M225.543,93.01
	C226.333,92.957,225.292,91.916,225.543,93.01C224.754,93.063,225.795,94.104,225.543,93.01z M226.597,94.064
	c0.06,0.335,0.786,0.345,0.79,0C227.042,93.748,226.973,93.961,226.597,94.064c-0.192-0.246-0.479-0.399-0.79-0.527
	C225.684,94.099,226.183,94.039,226.597,94.064z M227.387,226.321C227.561,226.493,227.278,226.209,227.387,226.321L227.387,226.321
	z M227.915,96.172c0.299-0.051,0.146-0.265,0-0.264c0.05-0.213,0.264-0.263,0.264-0.527c-0.469-0.234-0.67-0.735-1.581-0.527
	c-0.04,0.831,1.068,0.513,1.317,1.054C227.915,95.996,227.915,96.084,227.915,96.172C227.532,96.333,227.942,96.49,227.915,96.172z
	 M228.442,227.375c-0.205,0.06-0.521,0.007-0.527,0.263C228.119,227.579,228.434,227.63,228.442,227.375z M228.442,226.321
	c-0.176,0-0.352,0-0.527,0c0,0.176,0,0.352,0,0.527c0.176,0,0.352,0,0.527,0C228.442,226.672,228.442,226.497,228.442,226.321z
	 M228.968,225.53c-0.045-0.394,0.094-0.973-0.264-1.054c-0.078,0.536-0.527,0.702-0.79,1.054
	C228.438,225.969,228.25,225.506,228.968,225.53z M229.758,224.739c-0.204,0.061-0.52,0.008-0.527,0.264
	C229.436,224.944,229.751,224.996,229.758,224.739z M230.022,78.52c0.709,0.181,0.51-0.545,0.791-0.791
	c-0.848,0.232-0.361-0.868-1.055-0.79c-0.002,0.348-0.461,0.241-0.527,0.527C229.617,77.696,230.252,77.675,230.022,78.52z
	 M230.813,225.793c-0.205,0.059-0.52,0.008-0.527,0.264C230.491,225.999,230.805,226.049,230.813,225.793z M230.813,223.686
	c0.033-0.66,0.502-0.824-0.264-1.055c-0.008,0.257-0.322,0.205-0.527,0.264c0,0.176,0,0.352,0,0.527
	c0.225-0.049,0.249,0.104,0.264,0.264C230.461,223.686,230.637,223.686,230.813,223.686
	C231.124,224.487,232.21,223.4,230.813,223.686z M231.867,225.266C230.979,224.467,231.067,226.241,231.867,225.266L231.867,225.266
	z M232.92,220.261c-0.264,0-0.527,0-0.791,0c0.296,0.829,0.024,0.596,0,1.581c-0.213-0.051-0.262-0.265-0.526-0.264
	c-0.579,0.654,0.548,1.203,1.317,1.316C232.586,221.768,232.94,221.592,232.92,220.261z M233.71,90.639
	c0.308-0.706,0.688,0.686,1.054,0.79c0.984-1.221-1.845-1.007-0.79-2.371c-0.459,0.02-0.819-0.059-1.054-0.264
	C232.735,89.857,233.459,90.011,233.71,90.639z M233.71,91.429C234.016,92.47,234.016,90.388,233.71,91.429L233.71,91.429z
	 M236.083,92.483c0.011-0.45-0.196-0.682-0.527-0.79c0.252-1.095-0.789-0.053,0,0c0.152,1.044-2.94,0.204-1.845,1.317
	C234.149,91.952,235.529,93.033,236.083,92.483z M236.345,217.889c-0.206-0.057-0.306-0.221-0.263-0.526c-0.177,0-0.353,0-0.527,0
	c-0.015,0.337-0.338,0.365-0.264,0.79C235.686,218.108,236.264,218.247,236.345,217.889z M237.663,83.526
	c0.247-0.223,0.884-1.359,0.264-1.581c-0.998,0.853-0.444-0.708-1.317-1.054c-0.108,0.449-0.34-0.056-0.791,0
	C236.018,82.185,236.874,82.822,237.663,83.526z M237.135,87.478c0.499-0.053,1.746-0.68,1.055-1.054
	c0.049-0.213,0.264-0.262,0.264-0.527c-0.562,0.123-0.503-0.376-0.527-0.79c-0.473-0.034-0.556,0.323-1.055,0.263
	C236.975,86.602,237.033,86.245,237.135,87.478z M238.19,87.478C238.495,88.519,238.495,86.436,238.19,87.478L238.19,87.478z
	 M237.399,154.132C237.289,154.022,237.571,154.305,237.399,154.132L237.399,154.132z M237.926,218.153
	C237.764,217.77,237.608,218.18,237.926,218.153C238.088,218.536,238.245,218.126,237.926,218.153z M238.98,153.87
	C240.017,153.794,238.93,152.708,238.98,153.87c-0.214,0.049-0.263,0.264-0.526,0.263c0.043-0.306-0.059-0.468-0.264-0.526
	c0.303-1.688-0.805-0.578,0,0c0,0.264,0,0.526,0,0.79C238.899,154.697,239.456,154.551,238.98,153.87z M239.77,154.923
	c-0.31,0.041-0.748-0.046-0.79,0.263C239.29,155.145,239.727,155.232,239.77,154.923z M240.034,85.633
	C239.872,85.25,239.715,85.66,240.034,85.633c0.295,0.324,0.229,0.541-0.264,0.527c-0.162-0.383-0.318,0.027,0,0
	c0.439,0.523-0.023,0.335,0,1.054C240.514,87.465,241.071,85.5,240.034,85.633z M242.405,88.794
	c-0.466-0.489-0.77,0.115-1.317,0.264c-0.08,0.853,1.077,1.813,1.317,0.791C240.875,89.962,242.294,89.292,242.405,88.794z
	 M242.932,92.483c0.068-0.41,0.577-0.182,0.79,0c0-0.175,0-0.351,0-0.527C243.706,91.22,242.008,92.279,242.932,92.483z
	 M244.249,93.01c-0.611,0.084-1.012-0.042-1.316-0.263C242.831,93.563,244.2,93.819,244.249,93.01z M243.986,206.034
	c-0.448-0.097-0.497,0.206-0.527,0.527c-0.383,0.162,0.026,0.318,0,0c0.176,0,0.352,0,0.527,0
	C243.986,206.385,243.986,206.209,243.986,206.034z M244.776,201.819c-0.414,0.025-0.914-0.035-0.79,0.526
	C244.439,202.36,244.661,202.143,244.776,201.819z M247.411,85.37c-0.004,0.435-0.73,0.147-0.791,0.527
	C247.157,86.122,248.256,85.667,247.411,85.37z M254.26,101.178C254.565,102.218,254.565,100.136,254.26,101.178L254.26,101.178z
	 M253.734,100.65C253.907,100.823,253.624,100.54,253.734,100.65L253.734,100.65z M254.26,100.123c0-0.175,0-0.351,0-0.527
	c-0.176,0-0.352,0-0.526,0c0,0.176,0,0.352,0,0.527C253.909,100.123,254.084,100.123,254.26,100.123z M254.26,101.968
	C254.917,102.995,254.645,101.094,254.26,101.968L254.26,101.968z M255.315,102.495
	C255.963,100.856,254.489,101.625,255.315,102.495L255.315,102.495z M145.979,11.864c-0.037-0.49-0.174-0.88-0.527-1.054
	C145.512,11.277,145.186,12.13,145.979,11.864z M129.908,11.601C130.731,12.461,130.351,10.669,129.908,11.601L129.908,11.601z
	 M146.77,11.601C147.075,12.642,147.075,10.561,146.77,11.601L146.77,11.601z M129.908,11.601
	C129.525,11.763,129.934,11.919,129.908,11.601L129.908,11.601z M166.792,11.864C166.231,13.827,167.194,10.458,166.792,11.864
	L166.792,11.864z M168.636,11.601C167.836,12.489,169.61,12.4,168.636,11.601L168.636,11.601z M142.553,12.128
	c-0.212,0.183-0.721,0.41-0.789,0c-0.58,0.385-0.359,3.139,0.526,2.108C142.604,13.479,142.842,12.837,142.553,12.128z
	 M124.902,13.709c0.61-0.279-0.125-1.881-0.527-1.054C125.09,12.466,124.187,13.897,124.902,13.709z M126.483,13.709
	c0.125-0.828-0.329-1.077-0.791-1.318c0.185,0.811,0.185,0.507,0,1.318C125.956,13.709,126.219,13.709,126.483,13.709z
	 M170.48,12.655C170.865,13.528,171.136,11.627,170.48,12.655L170.48,12.655z M123.321,12.918c-0.233-0.551-1.471,0.085-1.317,0.791
	C122.766,13.229,123.205,13.659,123.321,12.918z M149.14,12.918C148.978,12.536,148.822,12.945,149.14,12.918L149.14,12.918z
	 M149.14,12.918c-0.089,0.529,0.054,0.824,0.526,0.791C149.678,13.258,149.471,13.026,149.14,12.918z M145.979,14.236
	c0-0.351,0-0.703,0-1.054C145.522,13.42,145.25,14.151,145.979,14.236z M162.313,13.445c-0.336-0.359-1.29-0.407-1.316,0.264
	C161.379,13.564,162.358,14.017,162.313,13.445z M143.081,13.709C142.444,14.593,143.964,13.072,143.081,13.709L143.081,13.709z
	 M147.296,13.445c-0.205,0.06-0.521,0.007-0.526,0.264C146.973,13.65,147.289,13.701,147.296,13.445z M124.902,13.709
	C125.064,14.092,125.22,13.682,124.902,13.709L124.902,13.709z M162.84,13.972C163.145,15.014,163.145,12.931,162.84,13.972
	L162.84,13.972z M147.296,13.972c-0.257,0.007-0.205,0.323-0.264,0.527C147.289,14.492,147.237,14.177,147.296,13.972z
	 M119.633,14.5C119.471,14.116,119.314,14.526,119.633,14.5L119.633,14.5z M140.182,14.5c0.406-0.14,0.018-0.275-0.264-0.264
	C139.872,14.46,140.022,14.484,140.182,14.5z M145.979,14.236c0.646,0.209-0.748,1.614,0.526,1.581
	c0.269-0.346,0.259-0.971,0.527-1.317C146.559,14.533,146.477,14.177,145.979,14.236z M156.78,14.763
	c0.499-0.059,0.582,0.297,1.055,0.264C157.904,14.256,156.812,14.014,156.78,14.763z M174.696,14.236
	c-0.205,0.059-0.52,0.007-0.527,0.264C174.374,14.44,174.688,14.492,174.696,14.236z M145.188,14.763
	C145.27,16.364,145.704,13.758,145.188,14.763L145.188,14.763z M158.625,15.026C158.93,16.067,158.93,13.985,158.625,15.026
	L158.625,15.026z M163.893,15.29C164.277,15.127,163.868,14.971,163.893,15.29L163.893,15.29z M148.35,15.553
	C148.522,15.726,148.24,15.442,148.35,15.553L148.35,15.553z M163.893,15.29C163.511,15.452,163.92,15.608,163.893,15.29
	L163.893,15.29z M158.888,15.816C159.271,15.655,158.862,15.498,158.888,15.816L158.888,15.816z M173.116,15.816
	C173.004,15.706,173.288,15.989,173.116,15.816L173.116,15.816z M163.367,16.08C163.54,16.253,163.256,15.969,163.367,16.08
	L163.367,16.08z M108.567,16.08c-0.204,0.059-0.52,0.007-0.527,0.263C108.245,16.284,108.561,16.336,108.567,16.08z M171.007,19.769
	c0.034-0.65,0.04-1.27-0.264-1.581C169.598,18.163,170.776,19.507,171.007,19.769z M101.718,19.769
	c-0.451-0.012-0.682,0.195-0.791,0.527C101.456,20.385,101.751,20.241,101.718,19.769z M171.271,20.032
	c0.048-0.224-0.103-0.249-0.264-0.263C170.959,19.993,171.11,20.017,171.271,20.032z M171.271,20.032
	C171.793,21.401,172.403,19.19,171.271,20.032L171.271,20.032z M174.432,20.032c-0.204,0.06-0.52,0.007-0.527,0.264
	C174.11,20.236,174.425,20.288,174.432,20.032z M100.4,21.086c0.176,0,0.351,0,0.527,0c0-0.264,0-0.527,0-0.791
	c-0.212,0.227-0.722,0.156-0.79,0.527C100.361,20.774,100.385,20.925,100.4,21.086z M174.168,20.559
	c-0.447-0.097-0.497,0.206-0.526,0.527c0.175,0,0.351,0,0.526,0C174.168,20.91,174.168,20.734,174.168,20.559z M173.642,21.086
	C173.258,21.248,173.668,21.404,173.642,21.086L173.642,21.086z M92.496,21.613C92.879,21.45,92.47,21.294,92.496,21.613
	L92.496,21.613z M94.868,21.613C95.04,21.786,94.757,21.502,94.868,21.613L94.868,21.613z M179.438,21.349
	c-0.126,0.917-0.049,1.63,1.054,1.317C180.202,22.138,180.623,21.442,179.438,21.349z M92.496,21.613
	C92.114,21.775,92.523,21.931,92.496,21.613L92.496,21.613z M175.486,21.613c-0.175,0-0.351,0-0.526,0c0,0.175,0,0.351,0,0.527
	c0.176,0,0.352,0,0.526,0C175.486,21.964,175.486,21.788,175.486,21.613z M176.012,21.876
	C175.375,22.76,176.897,21.239,176.012,21.876L176.012,21.876z M96.448,21.876c-0.204,0.059-0.52,0.007-0.527,0.264
	C96.126,22.08,96.441,22.132,96.448,21.876z M106.987,22.667c0.088,0,0.176,0,0.264,0C107.2,22.368,106.986,22.521,106.987,22.667z
	 M178.911,23.193c0-0.088,0-0.176,0-0.264c-0.224,0.049-0.248-0.103-0.264-0.263c-0.175,0-0.351,0-0.526,0c0,0.175,0,0.351,0,0.527
	c0.214,0.05,0.263,0.265,0.526,0.263C178.663,23.296,178.687,23.145,178.911,23.193z M105.669,23.457
	c0.369-0.093,0.023-0.463-0.263-0.527C105.363,23.236,105.464,23.399,105.669,23.457z M178.647,23.457
	c-0.459,1.067,2.252,0.446,1.055,0c-0.281,0.897-0.082-0.733-0.791-0.263C178.959,23.417,178.808,23.442,178.647,23.457z
	 M105.142,23.983C104.506,24.868,106.026,23.347,105.142,23.983L105.142,23.983z M183.39,24.248
	C183.228,23.864,183.072,24.274,183.39,24.248L183.39,24.248z M184.18,24.511c-0.212-0.14-0.428-0.275-0.79-0.263
	c0,0.088,0,0.175,0,0.263C183.602,24.693,184.112,24.92,184.18,24.511z M77.479,28.199c-0.176,0-0.352,0-0.527,0
	c0,0.175,0,0.351,0,0.527c0.175,0,0.351,0,0.527,0C77.479,28.55,77.479,28.375,77.479,28.199z M192.348,28.989
	C192.653,30.03,192.653,27.948,192.348,28.989L192.348,28.989z M193.665,29.253C193.969,30.294,193.969,28.212,193.665,29.253
	L193.665,29.253z M199.724,30.307C199.563,29.924,199.406,30.333,199.724,30.307L199.724,30.307z M192.348,30.57
	C193.003,31.598,192.731,29.697,192.348,30.57L192.348,30.57z M199.724,30.307C199.886,30.689,200.042,30.28,199.724,30.307
	L199.724,30.307z M193.928,30.834c-0.176,0-0.352,0-0.527,0c0.001,0.264-0.213,0.313-0.264,0.527
	C193.551,31.335,194.051,31.396,193.928,30.834z M192.348,31.624C193.003,32.651,192.731,30.751,192.348,31.624L192.348,31.624z
	 M202.359,31.888C202.665,32.929,202.665,30.847,202.359,31.888L202.359,31.888z M169.426,32.678
	c0.084,0.611-0.042,1.011-0.264,1.317c0.441,0.35,0.883,0.698,1.845,0.527C170.956,33.432,170.172,33.073,169.426,32.678z
	 M192.875,33.205C192.712,32.822,192.556,33.231,192.875,33.205L192.875,33.205z M199.988,36.367
	C199.826,35.983,199.669,36.393,199.988,36.367L199.988,36.367z M200.515,36.103c-0.214,0.051-0.263,0.265-0.527,0.264
	c0,0.175,0,0.351,0,0.527c0.087,0,0.175,0,0.264,0C200.111,36.514,201.278,36.25,200.515,36.103z M204.73,37.947
	c0.147-1.443,0.543-0.12,2.108-0.264c-0.296-1.021-1.775-1.362-2.635-1.054C204.32,37.127,203.844,38.217,204.73,37.947z
	 M213.424,36.894C213.262,36.51,213.106,36.92,213.424,36.894L213.424,36.894z M213.424,36.894
	C213.586,37.276,213.743,36.867,213.424,36.894L213.424,36.894z M215.268,37.684C215.574,38.725,215.574,36.643,215.268,37.684
	L215.268,37.684z M207.628,38.474C207.466,38.091,207.31,38.501,207.628,38.474L207.628,38.474z M207.628,38.474
	C207.79,38.857,207.947,38.447,207.628,38.474L207.628,38.474z M208.682,39.528C208.934,38.434,207.893,39.475,208.682,39.528
	L208.682,39.528z M205.52,39.528C205.41,39.417,205.694,39.701,205.52,39.528L205.52,39.528z M207.102,39.528
	C206.991,39.417,207.274,39.701,207.102,39.528L207.102,39.528z M208.682,39.528C208.43,40.622,209.471,39.581,208.682,39.528
	L208.682,39.528z M206.575,40.318C206.463,40.208,206.747,40.491,206.575,40.318L206.575,40.318z M209.999,41.108
	C209.722,42.638,211.141,41.218,209.999,41.108L209.999,41.108z M207.365,41.899C207.538,42.072,207.254,41.788,207.365,41.899
	L207.365,41.899z M208.418,42.426c0.038-0.312,0.469-0.598,0-0.791C208.381,41.947,207.95,42.232,208.418,42.426z M213.688,41.899
	C213.993,42.94,213.993,40.858,213.688,41.899L213.688,41.899z M213.161,42.689C212.999,42.307,212.842,42.716,213.161,42.689
	L213.161,42.689z M213.688,44.007c1.387-0.833,0.209-0.828-0.527-1.317c-0.111,0.55,0.181,0.698,0.264,1.054
	C213.584,43.758,213.737,43.783,213.688,44.007z M215.795,42.953c-0.204,0.059-0.52,0.007-0.527,0.263
	C215.473,43.157,215.788,43.209,215.795,42.953z M215.532,44.007c-0.309,0.042-0.222,0.48-0.264,0.79
	C216.145,44.979,215.693,44.252,215.532,44.007z M218.43,44.797C218.735,45.838,218.735,43.756,218.43,44.797L218.43,44.797z
	 M214.742,46.904c0.739-0.438,1.458-1.428,0.526-2.107c-0.484,1.438-0.381,0.269-1.316,1.054
	C214.215,46.201,214.2,46.831,214.742,46.904z M219.221,45.061C219.526,46.102,219.526,44.02,219.221,45.061L219.221,45.061z
	 M217.903,45.324C218.065,45.707,218.221,45.297,217.903,45.324L217.903,45.324z M218.958,45.587
	C218.795,45.204,218.639,45.614,218.958,45.587L218.958,45.587z M220.01,45.587c-0.224-0.048-0.248,0.103-0.263,0.263
	C219.971,45.899,219.996,45.748,220.01,45.587z M225.807,47.168c0,0.176,0,0.351,0,0.527c0.264,0,0.527,0,0.79,0
	C226.631,47.222,226.335,47.079,225.807,47.168z M222.645,47.695C222.951,48.736,222.951,46.654,222.645,47.695L222.645,47.695z
	 M223.699,48.749C224.559,47.925,222.767,48.306,223.699,48.749L223.699,48.749z M49.816,49.013
	C50.199,48.85,49.789,48.694,49.816,49.013L49.816,49.013z M223.699,48.749C223.862,49.132,224.017,48.722,223.699,48.749
	L223.699,48.749z M49.816,49.013c-0.212,0.226-0.721,0.156-0.79,0.527c0.212,0.139,0.428,0.274,0.79,0.263
	C49.816,49.54,49.816,49.276,49.816,49.013z M49.026,49.54c-0.351,0.264-0.795,0.434-1.054,0.79
	c0.472-0.033,0.555,0.323,1.054,0.264C49.026,50.242,49.026,49.891,49.026,49.54z M228.178,50.33
	C228.833,51.357,228.562,49.457,228.178,50.33L228.178,50.33z M222.909,50.33c1.641-0.243,3.748,0.182,2.635,1.844
	C224.52,51.542,223.252,50.92,222.909,50.33z M225.016,51.12C225.178,51.503,225.334,51.093,225.016,51.12
	C224.854,50.737,224.698,51.147,225.016,51.12z M45.337,52.701C45.993,53.729,45.721,51.828,45.337,52.701L45.337,52.701z
	 M225.543,52.964c0.205-0.059,0.52-0.007,0.527-0.263C225.866,52.76,225.551,52.708,225.543,52.964z M234.5,55.599
	c0.231-0.543-0.683-1.184-0.79-0.527C233.979,55.243,233.983,55.678,234.5,55.599z M235.028,56.126
	c0.097-0.448-0.205-0.498-0.527-0.527c0,0.087,0,0.175,0,0.263C234.714,55.913,234.764,56.126,235.028,56.126z M234.5,55.862
	C234.118,56.024,234.528,56.181,234.5,55.862L234.5,55.862z M41.122,56.126c-0.205,0.059-0.52,0.007-0.527,0.263
	C40.799,56.33,41.115,56.382,41.122,56.126z M235.028,56.126C235.19,56.509,235.346,56.099,235.028,56.126L235.028,56.126z
	 M42.176,56.389c-0.204,0.059-0.52,0.007-0.527,0.264C41.854,56.594,42.169,56.646,42.176,56.389z M38.224,58.497
	c0.05-0.213,0.264-0.263,0.264-0.527C37.589,57.709,37.46,59.264,38.224,58.497z M39.277,58.233
	C39.583,59.274,39.583,57.192,39.277,58.233L39.277,58.233z M38.224,58.497C38.386,58.88,38.542,58.47,38.224,58.497L38.224,58.497z
	 M35.589,59.55c0.063-0.375,0.434-0.444,0.527-0.79C35.574,58.529,34.933,59.444,35.589,59.55z M34.272,59.814
	C34.161,59.704,34.445,59.987,34.272,59.814L34.272,59.814z M33.218,60.077c-0.181,0.877,0.545,0.425,0.791,0.264
	C34.19,59.465,33.464,59.917,33.218,60.077z M34.008,60.341c-0.097,0.448,0.206,0.497,0.527,0.527
	C34.418,60.633,34.304,60.397,34.008,60.341z M31.901,61.132C32.285,62.004,32.557,60.104,31.901,61.132L31.901,61.132z
	 M234.5,61.132C234.806,62.173,234.806,60.09,234.5,61.132L234.5,61.132z M233.448,61.132c-0.205,0.059-0.521,0.007-0.527,0.263
	C233.125,61.336,233.44,61.388,233.448,61.132z M239.77,61.395c0,0.176,0,0.351,0,0.527c0.264,0,0.313,0.213,0.527,0.264
	C240.272,61.771,240.333,61.271,239.77,61.395z M240.561,62.449C239.924,63.333,241.444,61.812,240.561,62.449L240.561,62.449z
	 M241.615,63.766c0.458-0.127-0.101-1.907-0.527-1.054C241.803,62.524,240.899,63.954,241.615,63.766z M233.71,63.239
	c0.049-0.224-0.103-0.249-0.263-0.264C233.399,63.2,233.549,63.224,233.71,63.239z M233.71,63.239
	C233.873,63.622,234.029,63.212,233.71,63.239L233.71,63.239z M238.716,65.083C239.1,64.921,238.69,64.765,238.716,65.083
	L238.716,65.083z M242.668,65.874c0.23-0.542-0.684-1.183-0.791-0.527C242.145,65.518,242.151,65.953,242.668,65.874z
	 M241.877,65.347C241.495,65.509,241.905,65.665,241.877,65.347L241.877,65.347z M238.98,67.455
	c0.181,0.204,1.569,0.686,1.317-0.263C240.188,66.606,238.852,66.938,238.98,67.455z M240.824,70.879
	c1.195-0.095,0.955-1.946,0.526-2.107c-0.057,0.205-0.22,0.306-0.526,0.263c-0.226,0.84,0.415,0.815,0.526,1.317
	C241.055,70.408,240.941,70.645,240.824,70.879z M245.04,69.826C244.928,69.715,245.212,69.999,245.04,69.826L245.04,69.826z
	 M245.567,70.353C245.456,70.242,245.739,70.525,245.567,70.353L245.567,70.353z M246.093,70.879
	C245.457,71.764,246.977,70.243,246.093,70.879L246.093,70.879z M243.196,71.934c-0.016,0.161-0.039,0.312-0.264,0.263
	c0,0.176,0,0.352,0,0.527C243.581,73.133,243.707,71.829,243.196,71.934z M243.986,73.25
	C243.875,73.14,244.159,73.423,243.986,73.25L243.986,73.25z M247.147,72.987c-0.205,0.059-0.52,0.007-0.527,0.263
	C246.825,73.191,247.139,73.243,247.147,72.987z M244.776,75.358c0.077-0.162,0.655-1.015,0-1.054
	c0.043,0.306-0.059,0.468-0.264,0.527C244.469,75.138,244.571,75.3,244.776,75.358z M244.512,74.832
	C244.35,74.448,244.194,74.858,244.512,74.832L244.512,74.832z M243.458,76.148c0.176,0,0.352,0,0.527,0c0-0.175,0-0.351,0-0.527
	c-0.176,0-0.352,0-0.527,0C243.458,75.797,243.458,75.973,243.458,76.148z M247.147,82.735c0.447-0.171,0.164-0.605-0.264-0.527
	C246.589,82.532,246.654,82.75,247.147,82.735z M238.19,86.423c-0.176,0-0.352,0-0.527,0
	C237.728,86.755,238.186,86.689,238.19,86.423z M253.207,94.327c-0.003-0.266-0.462-0.331-0.526,0
	C252.975,94.3,253.09,94.71,253.207,94.327z M253.469,97.489C252.405,96.562,252.848,98.336,253.469,97.489L253.469,97.489z
	 M256.631,98.016C257.288,99.043,257.016,97.143,256.631,98.016L256.631,98.016z M257.949,101.968
	c-0.269,0.346-0.259,0.971-0.526,1.317C258.083,103.207,258.879,102.117,257.949,101.968z M258.475,104.075c0,0.176,0,0.352,0,0.527
	c0.265,0,0.314,0.213,0.527,0.264C258.977,104.452,259.038,103.953,258.475,104.075z M257.685,105.656
	c0.212,0.14,0.428,0.275,0.79,0.264c0.051-0.213,0.265-0.263,0.264-0.527C258.322,105.415,257.735,105.266,257.685,105.656z
	 M259.53,106.183c0.176,0,0.351,0,0.527,0c0.408-0.648-0.896-0.774-0.791-0.263C259.426,105.935,259.579,105.958,259.53,106.183z
	 M258.475,105.919C258.637,106.302,258.793,105.893,258.475,105.919L258.475,105.919z M12.932,107.237
	c-0.036-0.491-0.173-0.881-0.527-1.055C11.99,106.575,12.111,107.36,12.932,107.237z M256.631,108.291
	c0.379,0.294,0.643,0.284,0.791-0.264c-0.363,0.011-0.578-0.124-0.791-0.263C256.631,107.939,256.631,108.115,256.631,108.291z
	 M12.405,108.027c-0.448-0.097-0.497,0.205-0.527,0.527c0.176,0,0.352,0,0.527,0C12.405,108.379,12.405,108.203,12.405,108.027z
	 M11.878,110.135c-0.762-0.422-0.318-0.985,0-1.581c-1.991,0.137-0.216,2.351-1.317,3.688
	C11.942,112.482,10.861,110.26,11.878,110.135z M12.668,109.872C12.506,109.488,12.35,109.898,12.668,109.872L12.668,109.872z
	 M259.002,113.033c0.176,0,0.352,0,0.527,0c0-0.176,0-0.351,0-0.527c-0.176,0-0.352,0-0.527,0
	C259.002,112.682,259.002,112.857,259.002,113.033z M10.561,113.033C10.866,114.074,10.866,111.992,10.561,113.033L10.561,113.033z
	 M10.034,113.56C10.339,114.601,10.339,112.519,10.034,113.56L10.034,113.56z M9.243,120.937c1.987,0.258,0.768-3.668,0-2.898
	c0.537,0.37-0.259,0.908,0.264,1.581c-0.234,0.117-0.471,0.231-0.527,0.527C9.99,120.099,9.076,120.362,9.243,120.937z
	 M11.878,119.62c0.007,0.256,0.323,0.204,0.527,0.263C12.398,119.627,12.083,119.678,11.878,119.62z M10.824,120.146
	C11.129,121.187,11.129,119.105,10.824,120.146L10.824,120.146z M8.98,120.146C8.597,120.308,9.007,120.465,8.98,120.146
	L8.98,120.146z M10.297,121.727c0.649,0.41,0.775-0.895,0.264-0.79c-0.015,0.16-0.04,0.312-0.264,0.263
	C10.297,121.376,10.297,121.552,10.297,121.727z M8.189,127.523c1.688-0.333,1.392-2.648,2.372-3.689
	c-0.75-0.302-0.262-0.909,0-1.581c-1.126-0.226-0.178-0.996-1.581-1.054c-0.177,1.789-0.936,2.975,0.263,4.215
	c-0.264,0-0.313,0.213-0.527,0.264c0.034-0.474-0.261-0.617-0.79-0.527C8.436,126.396,7.268,126.691,8.189,127.523z M7.926,124.361
	C7.29,125.246,8.81,123.725,7.926,124.361L7.926,124.361z M12.405,125.152C12.243,124.769,12.086,125.179,12.405,125.152
	L12.405,125.152z M8.453,128.05c0,0.263,0,0.527,0,0.79c0.175,0,0.351,0,0.527,0c0-0.176,0-0.351,0-0.527
	C8.767,128.264,8.717,128.049,8.453,128.05z M7.926,129.367c0.448,0.097,0.497-0.205,0.527-0.527c-0.176,0-0.352,0-0.527,0
	C7.926,129.016,7.926,129.192,7.926,129.367z M8.98,128.84C8.931,130.001,10.017,128.915,8.98,128.84L8.98,128.84z M8.189,136.217
	c-0.037-0.756,1.333-1.454,0.791-1.844c0,0.146-0.213,0.299-0.264,0c0.088,0,0.176,0,0.264,0c-0.683-1.384-0.078-2.899-0.264-4.742
	c-0.956-0.259-0.221,1.383-1.054,0.527c0.333,2.021,0.201,1.415-0.527,2.898c0,0.088,0,0.176,0,0.264c0.264,0,0.527,0,0.791,0
	C6.801,133.918,8.178,135.156,8.189,136.217z M9.77,130.158c-0.204,0.059-0.519,0.007-0.527,0.263
	C9.448,130.362,9.763,130.414,9.77,130.158z M11.351,130.421C11.189,130.039,11.033,130.448,11.351,130.421L11.351,130.421z
	 M11.351,130.421C11.513,130.804,11.669,130.394,11.351,130.421L11.351,130.421z M8.98,130.948
	C9.061,132.55,9.496,129.943,8.98,130.948L8.98,130.948z M219.748,134.373c0-0.088,0-0.176,0-0.263
	C219.448,134.16,219.601,134.374,219.748,134.373z M11.351,135.164c-0.205,0.059-0.52,0.007-0.527,0.263
	C11.029,135.368,11.344,135.42,11.351,135.164z M7.663,136.48c0,0.176,0,0.352,0,0.527c0.264,0,0.527,0,0.791,0
	C8.487,136.535,8.191,136.391,7.663,136.48z M8.716,136.744c0.205-0.059,0.52-0.007,0.527-0.264
	C9.039,136.54,8.724,136.488,8.716,136.744z M9.243,138.325C9.548,139.366,9.548,137.284,9.243,138.325L9.243,138.325z
	 M13.458,156.504c0-0.088,0-0.176,0-0.264C13.16,156.291,13.312,156.504,13.458,156.504z M12.668,156.504
	C12.83,156.887,12.987,156.477,12.668,156.504L12.668,156.504z M13.986,172.311c0.448,0.098,0.497-0.205,0.527-0.527
	C14.278,171.901,14.041,172.016,13.986,172.311z M16.357,177.053c0.022,0.418-0.127,1.005,0.264,1.054
	c0.387-0.894,0.104-2.272-1.054-2.37c-0.346,0.092-0.414,0.463-0.791,0.526c-0.033,0.911,0.515,1.241,0.791,1.844
	C16.021,177.656,15.179,177.072,16.357,177.053z M16.621,178.107C16.782,178.491,16.939,178.081,16.621,178.107L16.621,178.107z
	 M16.094,178.371c-0.605,0.343,0.364,2.212,0.79,1.581C16.515,179.179,17.024,178.819,16.094,178.371z M18.464,181.795
	C18.848,181.634,18.438,181.477,18.464,181.795L18.464,181.795z M19.518,190.491c-0.073,0.6,0.064,0.99,0.527,1.053
	c0.004-0.523,0.719-0.334,0.527-1.053C20.221,190.491,19.87,190.491,19.518,190.491z M24.261,192.071
	c-0.049,0.225,0.103,0.248,0.263,0.264C24.573,192.11,24.421,192.086,24.261,192.071z M21.626,194.442
	c0.081,0.607-0.761,0.293-0.791,0.79c0.39,0.138,0.664,0.39,1.054,0.526C21.438,195.086,22.191,194.836,21.626,194.442z
	 M22.417,196.549c0.376,0.063,0.444,0.434,0.791,0.527C23.438,196.534,22.523,195.893,22.417,196.549z M247.937,197.077
	c-0.015,0.16-0.039,0.312-0.263,0.264c0,0.176,0,0.352,0,0.526C248.323,198.276,248.449,196.972,247.937,197.077z M23.47,197.867
	c0.205-0.06,0.52-0.007,0.527-0.263c-0.685-0.479-0.794,0.113-1.581-0.264c0.086,0.615,0.316,1.088,0.527,1.58
	c0.352,0,0.703,0,1.054,0C24.189,198.202,23.474,198.39,23.47,197.867z M246.62,199.184
	C246.925,200.225,246.925,198.143,246.62,199.184L246.62,199.184z M26.104,201.819c0.322-0.029,0.624-0.079,0.527-0.527
	c-0.914,0.23-0.904-0.405-0.527-0.79c-1.2,0.322-1.033-0.724-2.107-0.526c0.908,1.629,1.972,1.956,1.581,4.479
	c0.621,0.006,0.776-0.454,1.581-0.264c-0.303-0.738-0.303-1.369,0-2.107C26.499,202.115,26.334,202.584,26.104,201.819z
	 M246.093,202.345c0.204-0.059,0.52-0.007,0.526-0.263C246.416,202.141,246.1,202.089,246.093,202.345z M246.356,202.873
	C246.662,203.913,246.662,201.832,246.356,202.873L246.356,202.873z M246.093,203.926
	C246.729,205.282,246.774,203.019,246.093,203.926L246.093,203.926z M27.159,204.98c-0.376-0.063-0.444-0.434-0.791-0.526
	C26.137,204.997,27.052,205.637,27.159,204.98z M26.631,206.034C26.804,206.207,26.521,205.923,26.631,206.034L26.631,206.034z
	 M34.536,216.573c-1.296-1.07-2.25,0.385-2.635-1.844c0.213,0.049,0.263,0.264,0.527,0.263c-0.818-1.466-1.584-2.983-3.161-3.688
	c0.149-1.906-1.283-2.23-1.845-3.426c-0.19-0.805,0.455-0.774,0.264-1.58c0.773,0.105,0.892,0.865,1.581,1.054
	c-0.261,1.813,1.341,2.665,2.371,2.108c-1.531,2.172,1.191,3.637,1.581,5.532c0.307,0.042,0.469-0.058,0.528-0.263
	C33.957,215.636,34.04,215.625,34.536,216.573z M28.476,207.088c-0.205,0.059-0.52,0.007-0.527,0.263
	C28.153,207.292,28.469,207.344,28.476,207.088z M40.332,206.297C39.949,206.459,40.358,206.616,40.332,206.297L40.332,206.297z
	 M30.057,208.141C30.712,209.169,30.441,207.268,30.057,208.141L30.057,208.141z M32.955,208.668
	c-0.35-0.342-0.98-0.348-1.054,0.264C32.295,208.887,32.873,209.026,32.955,208.668z M33.481,209.196
	c-0.256,0.007-0.204,0.322-0.264,0.527c0.307,0.043,0.469-0.059,0.528-0.264C33.584,209.444,33.434,209.42,33.481,209.196z
	 M32.955,209.986c0.14,0.405,0.275,0.017,0.263-0.263C32.994,209.674,32.97,209.825,32.955,209.986z M34.536,211.567
	C34.697,211.95,34.854,211.54,34.536,211.567L34.536,211.567z M32.691,212.621C32.864,212.793,32.581,212.51,32.691,212.621
	L32.691,212.621z M35.062,212.357c-0.088,0-0.176,0-0.263,0C34.849,212.657,35.063,212.503,35.062,212.357z M36.643,214.202
	c-0.043,0.306,0.059,0.469,0.264,0.527C36.95,214.422,36.848,214.259,36.643,214.202z M34.799,214.992
	C34.88,216.594,35.315,213.987,34.799,214.992L34.799,214.992z M37.17,214.729c-0.088,0-0.175,0-0.263,0
	C36.957,215.028,37.171,214.875,37.17,214.729z M36.116,218.68c-0.676-0.027-0.423-0.982-0.79-1.317
	c-0.459,0.021-0.82-0.06-1.054-0.264c-0.222,0.306-0.348,0.706-0.264,1.317C34.746,218.694,35.494,219.727,36.116,218.68z
	 M35.853,219.47c2.599,2.758,4.227,6.487,7.64,8.431c-1.872-3.188-5.671-6.48-6.586-8.957
	C36.867,219.43,36.014,219.106,35.853,219.47z M48.762,219.208c0,0.087,0,0.175,0,0.263
	C49.061,219.42,48.909,219.206,48.762,219.208z M232.129,221.842C232.292,222.225,232.448,221.815,232.129,221.842L232.129,221.842z
	 M232.92,226.321C233.083,226.704,233.239,226.293,232.92,226.321L232.92,226.321z M229.758,226.848
	C229.506,227.942,230.547,226.901,229.758,226.848L229.758,226.848z M230.549,227.901
	C230.854,228.942,230.854,226.86,230.549,227.901L230.549,227.901z M47.182,230.272c0.097,0.449-0.206,0.498-0.527,0.527
	c-0.008-1.578-2.132-2.428-2.898-2.371c1.421,1.126,2.37,2.725,4.216,3.424C47.272,231.174,48.008,230.586,47.182,230.272z
	 M47.972,231.852C48.134,232.236,48.291,231.827,47.972,231.852L47.972,231.852z M49.816,231.852
	c-0.745-0.217-0.682,0.372-1.317,0.264c-0.069,1.241,2.185,1.389,2.371,0.265C50.2,232.516,49.848,232.829,49.816,231.852z
	 M225.543,232.38C225.706,232.762,225.862,232.354,225.543,232.38L225.543,232.38z M63.252,233.17
	c0.036,0.49,0.173,0.881,0.527,1.054c0-0.351,0-0.702,0-1.054C63.604,233.17,63.428,233.17,63.252,233.17z M223.436,233.961
	C223.741,235.002,223.741,232.92,223.436,233.961L223.436,233.961z M69.575,236.858c0.049-0.224-0.102-0.248-0.263-0.263
	C69.264,236.819,69.415,236.844,69.575,236.858z M69.575,236.858c0.395,0.309,0.645,0.762,1.318,0.791
	C71.014,236.826,70.33,236.807,69.575,236.858z M72.21,236.858c-0.67,0.033-1.021,0.385-1.054,1.055c0.264,0,0.527,0,0.791,0
	C71.927,237.454,72.006,237.093,72.21,236.858z M60.091,240.547C59.98,240.437,60.263,240.719,60.091,240.547L60.091,240.547z
	 M61.935,241.075c0.511,0.104,0.385-1.201-0.263-0.791C61.649,240.658,61.628,241.03,61.935,241.075z M210.262,243.971
	C209.625,244.856,211.147,243.334,210.262,243.971L210.262,243.971z M204.993,246.607
	C205.156,246.99,205.312,246.581,204.993,246.607L204.993,246.607z M134.386,263.731c-0.048,0.225,0.103,0.249,0.264,0.264
	C134.698,263.771,134.547,263.747,134.386,263.731z"/>
</svg>
