<?xml version="1.0" encoding="utf-8"?>
<!-- Generator: Adobe Illustrator 16.0.0, SVG Export Plug-In . SVG Version: 6.00 Build 0)  -->
<!DOCTYPE svg PUBLIC "-//W3C//DTD SVG 1.1//EN" "http://www.w3.org/Graphics/SVG/1.1/DTD/svg11.dtd">
<svg version="1.1" id="Layer_1" xmlns="http://www.w3.org/2000/svg" xmlns:xlink="http://www.w3.org/1999/xlink" x="0px" y="0px"
	 width="1043px" height="959px" viewBox="0 0 1043 959" enable-background="new 0 0 1043 959" xml:space="preserve">
<path fill="#0D0D0D" d="M476.77,220.04c-1.19-1.44-0.55-4.341,1.71-3.58C479.05,218.13,478.48,219.32,476.77,220.04z"/>
<path fill="#0D0D0D" d="M927.119,267.04c0.07-1.721-0.109-3.48,0.57-5.12c3.16-0.061,2.75,3.06,3.09,5.04
	c-2.68,1.24-4.01,3.93-5.56,6.26c-1.601,1.65-3.601,2.68-5.94,2.54c0.48-2.01,1.101-3.98,1.601-5.98
	C923.05,269.13,925.409,268.67,927.119,267.04z"/>
<path fill="#0D0D0D" d="M739.159,579.42C742.539,579.72,737.38,582.19,739.159,579.42z"/>
<g>
	<path fill="#0D0D0D" d="M695.15,954.49c1.15-2.17,2.26-4.35,3.32-6.56c-2.46,2.439-4.88,4.91-7.62,7.03
		c-0.09-5.44,4.45-8.66,7.75-12.221c-3.771,1.08-7.08,3.24-10.63,4.84c1.85-5.6,6.75-8.939,11.14-12.43
		c-4.899,1.62-8.399,5.561-12.57,8.39c0.011-1.229,0.03-3.689,0.051-4.92c1.449-1.029,2.92-2.05,4.38-3.069
		c1.14-0.41,2.28-0.811,3.41-1.25c-2.67,0.439-5.301,1.09-7.92,1.739c-0.24-1.64-0.45-3.26-0.641-4.88c-0.35,2.03-0.72,4.08-1.52,6
		c-2.3,1.99-4.9,3.61-7.44,5.271c1.11-3.891,3.54-7.15,5.561-10.58c-3.181,2.28-5.891,5.09-8.53,7.96
		c-0.86,1.25-2.44,0.64-3.68,0.75c0.529-1.23,1.069-2.46,1.619-3.67c-2.899,1.57-5.229,4.67-8.75,4.649
		c2.71-5.17,8.221-7.31,13.37-9.21c-5.989-0.859-10.96,2.99-15.77,5.91c5.87-8.52,15.42-13.6,24.54-17.95
		c-12.65,2.561-23.46,10.711-32.26,19.82c1.119-4.88,5.76-7.62,9.01-11.01c-5.09,1.79-9.58,4.8-13.71,8.22
		c0.27-4.16,1.5-8.29,0.92-12.47c-1.16-2.36-3.44-3.84-5.3-5.57c-2.24,2.181-4.98,4.12-6.13,7.15c-1.23,3.08-2.08,6.3-3.11,9.45
		c-2.57-7.23,2.61-14.08,7.399-18.99c-3.85,1.18-6.359,4.41-8.369,7.7c-1.15-3.71-2.301-7.46-4.381-10.771
		c-0.529-0.109-1.59-0.34-2.119-0.45c0.26,0.32,0.77,0.971,1.029,1.301c0.54,2.81,1.25,5.6,2.15,8.33
		c-1.24,3.529-1.47,7.899-4.83,10.199c0.76-3.699,1.64-7.42,1.19-11.229c-1.28,3.12-2.421,6.319-4.301,9.16
		c-1.609-4.591,0.99-8.851,2.301-13.12c0.239-0.51,0.71-1.53,0.949-2.04c-2.3,2.75-4.729,5.399-7.399,7.81
		c-2.61-6.31,0.649-12.729,4.7-17.52c3.409-0.88,5.96,1.029,8.05,3.5c-1.17-1.37-2.36-2.71-3.521-4.061
		c-2.34,0.09-4.83-0.229-6.95,0.971c-2.25,1.26-3.76,3.42-5.31,5.409c-1.229-1.399-2.46-2.77-3.69-4.149
		c0.931,2.64,2.271,5.26,2.301,8.12c-0.4,3.189-1.46,6.27-1.87,9.479c-1.97-2.359-4.44-4.55-5.061-7.7
		c-1.729-8.27-0.27-16.729,1.471-24.869c0.779-3.25,2.199-6.49,1.819-9.891c-1.58-8.31,2.4-16.729,0.261-25.02
		c-1.36-4.811-0.471-10.12-3.021-14.601c-2.03-3.67-2.52-7.91-4.32-11.66c-3.83-7.479-7.58-14.979-11.51-22.399
		c-0.06-0.29-0.2-0.87-0.27-1.17c-4.351-5.431-6.87-12-10.54-17.86c-3.63-7.41-7.101-14.899-10.891-22.22
		c-1.83-5.65-3.42-11.43-6.279-16.67c-3.29-6.11-4.78-12.88-6.46-19.53c-1.221-7.09-3.75-13.86-5.24-20.87
		c-0.37-4.97-0.83-9.97-2.45-14.72c-1.36-3.65-0.86-7.59-1.24-11.39c-2.37-16.53-3.45-33.33-2.069-50
		c0.08-6.65,0.529-13.29,0.59-19.94c1.88-13.54,2.79-27.42,0.41-40.95c-0.95-5.92-0.841-11.939-1.46-17.89
		c-1.11-1.98-2.271-3.94-3.07-6.061c-0.59-4.1,1.35-7.97,2.84-11.659c2.2-4.45,4-9.12,6.66-13.33c3.87-6.561,6.38-13.801,9.64-20.66
		c3.01-3.59,7.42-5.61,11.01-8.54c2.25-2.49,4.29-5.16,6.311-7.83c4.87-6.49,6.89-14.47,10.17-21.76
		c3.02-7.15,3.93-15.141,8.05-21.82c2.22-3.45,4.91-6.71,8.521-8.77c2.939-1.761,5.1-4.48,6.609-7.521
		c-3.399-0.021-6.779,0.271-10.17,0.4c-0.6-8.65,5.75-15.17,11.34-20.86c5.04-4.25,11.101-7.02,16.5-10.76
		c10.641-6.58,20.721-14.271,32.45-18.88c2.061,6.25,4.641,12.41,8.66,17.689c2.8,3.381,3.38,8.83,7.98,10.44
		c3.22,0.729,6.569,0.31,9.84,0.1c0.16-0.58,0.479-1.75,0.64-2.33c2.92-2.5,5.44-5.43,8.41-7.869c4.21-3.381,10.2-2.37,14.57-5.431
		c4.27-2.87,8.869-5.18,13.22-7.899c4.12-2.63,8.79-4.25,12.84-7.021c6.37-1.22,12.08-4.49,18.25-6.35
		c6.29-1.24,12.78-1.3,19.04-2.82c2.52,0.95,5.21,1.25,7.9,1.13c2.989,1.07,6.26,1.57,8.92,3.431c4.29,2.949,8.43,6.119,12.84,8.909
		c0.89-1.199,1.78-2.399,2.689-3.58c-4.189-2.8-8.399-5.569-12.76-8.1c-0.41-0.94-0.81-1.87-1.21-2.8
		c-0.8-0.141-2.42-0.42-3.22-0.561c0.07-0.25,0.229-0.77,0.31-1.02c0.82-0.55,1.681-1.08,2.53-1.61c2.12,3.73,7,3.061,10.6,4.141
		c1.62,1.89,3.9,2.859,6.311,3.31c1.49,1.53,2.97,3.07,4.439,4.63c0.79-1.88,1.57-3.76,2.431-5.609c1.14-0.99,2.279-1.99,3.37-3.051
		c0.01-1.819,0.38-3.609,1.21-5.239c8.229,0.27,16.47,0.069,24.689-0.4c-3.18-0.55-6.16-1.69-8.13-4.36
		c-3.78-0.31-7.62-0.529-11.35,0.25c-0.721-0.29-2.16-0.88-2.88-1.18c4.56-5.92,10.359-11.15,17.54-13.57
		c3.96-1.08,8.1-0.859,12.159-0.89c0.71,0.8,1.431,1.6,2.16,2.41c-0.08,0.939-0.22,2.82-0.29,3.77c2.2-0.979,4.23-2.31,6.07-3.88
		c6.15-1.76,11.81-4.83,17.63-7.42c2.47-0.64,4,1.69,5.62,3.09c3.53,3.521,8.61,4.891,13.51,4.46c-1.83,5.09-6.88,7.88-11.189,10.65
		c0.93,0.28,1.869,0.59,2.81,0.9c3.06-2.86,6.72-5.101,9.3-8.461c1.16-1.26,2.051-3.159,3.971-3.329c3.76-0.61,7.59-0.15,11.38,0.04
		c0.54-6.08-2.171-12.171,0.02-18.101c8.38-0.72,16.88-1.09,24.9-3.91c3.28,3.32,8.09,2.8,12.359,2.95
		c-0.029-1.03-0.05-2.05-0.05-3.07c-4.46-0.35-10.7,0.96-12.9-4.09c-6.1,2.07-12.109,4.67-18.64,4.851
		c0.8-2.03,1.101-4.601,3.14-5.83c4.351-2.8,9.75-4.15,14.891-3.311c3.79,0.44,7.82-0.229,11.4,1.36c3.02,1.24,5.93,3.36,9.359,2.97
		c3.5-2.1,5.55-6.1,9.1-8.069c1.32,0.6,2.601,1.329,3.91,2.029c-1.35,1.82-2.43,3.851-3.92,5.561c-2.41,1.67-5.069,2.93-7.609,4.359
		c1.04,1.58,2.04,3.21,3.01,4.851c3.34-6.28,9.859-9.811,13.21-16.07c2.83-0.39,5.29,1.23,7.71,2.44
		c4.55-3.9,9.25-7.67,14.39-10.771c2.78-1.66,5.891,0.48,8.681,1.04c-0.681,2.2-2.34,3.771-3.891,5.36
		c2.811-1.021,5.721-1.891,8.37-3.311c5.11-2.8,9.05-7.16,13.561-10.77c0.989-0.771,1.42-1.99,2.069-3.021
		c-1.609,0.36-3.199,0.78-4.77,1.23c-0.41,0.59-1.23,1.78-1.641,2.38c-0.569-0.46-1.699-1.37-2.26-1.83
		c-0.09-0.5-0.26-1.51-0.35-2.02c-2.48-2.08-4.53-4.9-7.71-5.931c-2.7-0.779-5.48-1.149-8.21-1.7c0.34-0.81,1.02-2.449,1.359-3.27
		c0.83,0.15,2.511,0.46,3.34,0.61c0.94-1.271,1.851-2.561,2.771-3.851c1.729-0.609,3.47-1.22,5.2-1.859
		c-1.65-0.37-3.34-0.641-4.99-0.9c-2.689,2.78-6.17,4.479-9.56,6.22c0.27-1.85,0.529-3.689,0.779-5.54
		c2.99-1.43,6.19-3.21,7.471-6.47c-1.601-1.53-3.78,0.02-5.5,0.4c-2.29,0.979-4.79,0.83-7.2,0.819c-0.01-0.819-0.04-2.45-0.05-3.27
		c1.399,0.01,2.81,0.03,4.239,0.05c0.5-1.41,1.07-2.8,1.471-4.24c-2.59-2.229-5.061-4.609-6.891-7.51
		c-2.899,0.11-5.8,0.19-8.689,0.19c-1.36,1.399-2.83,2.729-4.7,3.369c0.35-1.42,0.74-2.829,1.17-4.229
		c-0.3-0.53-0.899-1.59-1.2-2.12c5.28-3.06,11.29-1.979,17.08-2.11c-1.31-1.42-2.71-2.77-4.12-4.069
		c-1.29-4.03-2.03-8.19-2.06-12.42c-0.51,0.489-1.54,1.449-2.061,1.939c1.051-3.02,0.101-5.87-1.399-8.46
		c-5.74,3.25-9.87,8.66-13.19,14.23c-1.35,1.97,0.34,4.239,0.62,6.3c-1.479-1.021-2.93-2.101-4.34-3.2
		c-4.61-1.24-9.37-1.229-14.101-1.17c-1.909,0.22-3.5-0.85-5.09-1.71c1.67-0.561,3.351-1.1,5.051-1.62
		c0.58-0.91,1.18-1.82,1.789-2.729c1.78,0.27,3.58,0.539,5.391,0.81c-1.01-2.79-2.061-5.61-1.93-8.62
		c3.92-2.25,7.88-4.57,10.91-7.99c-4.291,1.7-8.141,4.301-12.011,6.75c-2.899,0.94-5.979,0.16-7.739-2.37
		c-3.82-0.6-8.371,1.221-11.65-1.05c0.25-1.75,0.7-3.45,1.13-5.16c-1.81,1.86-3.64,3.7-5.54,5.45c-1.85-0.77-3.689-1.54-5.52-2.3
		c-0.101-2.97-0.15-5.94-0.091-8.9c2.021-0.909,4.07-1.84,5.83-3.21c-1.52,0.17-3,0.42-4.479,0.7c-0.98,1.04-1.94,2.101-3.03,3.01
		c-3.57-0.35-7.12-1.159-10.521-2.279c-0.459-2.95,1.061-5.67,1.45-8.521c-2.09-1.56-4.93,0.07-7.3,0.09
		c-4.18,1.11-8.22-0.72-12.229-1.609c-1.58-3.96-2.74-8.141-2.721-12.431c-1.35,0.101-2.67,0.21-3.989,0.33
		c-0.49,1.38-0.971,2.761-1.44,4.141c-1.92,0.09-3.84,0.21-5.74,0.33c-0.25-1.471-0.489-2.931-0.72-4.391
		c0.82,0.101,2.46,0.311,3.28,0.41c0.79-4.11,4.13-7.63,3.59-11.93c-3.4-1.771-7.36-3.3-11.101-1.54
		c-0.529-0.19-1.6-0.561-2.13-0.75l2.57,1.35c-2.979,0.78-5.71,2.141-8.38,3.601c0.03,0.699,0.08,2.1,0.11,2.8
		c-1.58-0.3-3.08-0.99-4.671-1.16c-1.72,0.44-3.31,1.22-4.92,1.91c2.99,0.899,6.101,1.25,9.23,1.21c0.07,1.39,0.16,2.8,0.25,4.2
		c-2.01-0.03-4.12,0.35-6.03-0.311c-1.729-1.02-3.1-2.5-4.58-3.79c-5.43,3.12-11.95,4.42-17.95,2.13c0.37-0.71,1.11-2.14,1.48-2.85
		c-2.04,0.89-3.95,2.05-5.55,3.6c-4.01,1.75-8.44,1.45-12.69,1.12c0.73-2.189,1.63-4.319,2.51-6.47c-4.01,0.03-7.01,3-10.84,3.63
		c-3.63,1.14-7.43,0.521-11.14,0.58c-0.84-0.58-1.67-1.16-2.49-1.74c0.16-0.92,0.34-1.83,0.53-2.74c1.66-0.619,3.31-1.35,5.1-1.59
		c2.141,0.53,3.84,2.061,5.801,3.011c-0.561-1.761-1.11-3.5-1.671-5.25c-1.1-0.58-2.189-1.15-3.27-1.721
		c-0.4-3.66-1.37-7.26-3.3-10.41c-0.141,4.141,1.26,8.551-0.771,12.431c-4.83,3.04-10.81,4.88-16.439,3.14
		c0.609-2.97,2.12-5.59,3.899-8.01c-0.02-1.42-0.02-2.84-0.02-4.25c-0.67,0.06-2.01,0.189-2.68,0.26
		c-0.141,2.16-0.25,4.33-0.33,6.51c-0.61-0.159-1.83-0.479-2.44-0.64c-0.479,2.01-0.79,4.09-1.58,6.01
		c-1.88,1.471-3.92,2.811-6.12,3.74c-2.46,0.87-4.859-0.57-7.06-1.51c0.58-0.931,1.18-1.851,1.79-2.771
		c1.05-0.359,2.109-0.729,3.18-1.09c3.22-2.2,6.9-4.25,7.99-8.32c-3.34,0.761-6.44,2.62-9.93,2.49c-4.12,0.01-8.45,0.53-12.261-1.41
		c-0.109-0.6-0.33-1.8-0.45-2.399c-0.67-0.16-2.01-0.471-2.68-0.63c-0.12-0.61-0.359-1.851-0.479-2.471
		c0.22-0.39,0.64-1.17,0.85-1.56c0.521,0.58,1.56,1.75,2.08,2.33c1.9-1.561,3.88-3.061,5.45-4.99c-4.181-0.22-8.53,0.48-12.471-1.28
		c-2.949-3.06-7.17-4.279-10.5-6.819c-0.5-1.86-1.06-3.69-1.699-5.5c0.609-2.391,1.189-4.79,1.87-7.16
		c-2.301-0.12-4.58-0.28-6.86-0.45c-0.4,0.5-1.19,1.5-1.59,2c-1.15-0.36-2.3-0.71-3.44-1.07c0.521-3.39,0.641-6.819,0.95-10.229
		c-2.09,0.18-3.98,1-5.51,2.43c-0.38,0.09-1.13,0.28-1.5,0.37c-0.141-1.6-0.271-3.2-0.42-4.8c0.489-0.75,0.979-1.51,1.489-2.26
		c4.12-0.841,7.53-3.37,11.301-5.08c1.17-0.48,1.75-1.65,2.55-2.551c-2.69-0.319-5.36,0.181-7.48,1.9
		c-1.96,1.83-4.699,1.44-7.149,1.59c-0.19-0.529-0.58-1.58-0.78-2.1c-3.52,0.16-7.14,0.22-10.43,1.6
		c-2.431,0.04-4.851,0.181-7.221,0.66c-0.439-2.07-1.699-3.7-3.399-4.9c1.8-3.899,6.01-5.21,9.77-6.439
		c2.601-0.53,5.37,0.03,7.92-0.8c2.66-1.61,4.721-4.021,6.98-6.13c-3.92-0.33-7.92-0.4-11.68,0.92c0.069,0.47,0.22,1.399,0.29,1.87
		c-4.2,0.159-8.301,1.27-12.521,1.199c-5.22,0.351-10.64-0.649-15.67,1.24c4.66,0.811,9.52,0.88,13.9,2.87
		c-1.801,1.91-3.601,3.83-5.23,5.88c-2.46,0.01-4.91,0-7.34,0.15c-0.8-2.71-3.061-4.42-5.3-5.891
		c-1.301-1.01-2.601-2.029-3.84-3.109c-1.881-0.78-4.011-1.15-5.601-2.49c-2.71-2.91-4.53-6.69-7.89-8.97
		c-3.13,0.689-6.101,1.979-9.24,2.63c1.14,1.28,2.28,2.56,3.4,3.859c-2.061,0.061-4.12,0.07-6.181,0.021c-2-3.1-4.39-5.92-6.41-9
		c-1.159,0.51-2.319,0.979-3.409,1.59c0,1.62,0.279,3.23,0.51,4.83c1.26,0.59,2.53,1.16,3.81,1.74c-0.09,1.5-0.189,3-0.29,4.5
		c-4.12,0.77-7.64-1.17-10.989-3.271c-1.49-5.08-0.78-10.37-0.561-15.56c-0.939-0.05-1.87-0.101-2.79-0.141
		c-0.08,1.7-0.16,3.4-0.24,5.101c-0.77-0.05-2.319-0.16-3.09-0.21c-0.35,1.729-0.7,3.47-1.05,5.2c-2.9,1.55-5.56-0.4-8.11-1.641
		c0.36-1.85,0.75-3.68,1.15-5.52c2.34-0.13,4.7-0.19,7.05-0.24c-0.149-1.83-0.31-3.66-0.43-5.5c-0.89-0.18-1.771-0.37-2.65-0.56
		c-3.229-1.9-7.22-2.051-10.12-4.58c-4.189-0.13-8,1.81-12.109,2.08c1.37-2.65,3.01-5.16,4.49-7.761c-0.78-2.34-1.58-4.68-2.36-7.02
		c-2.78-0.74-5.8-1.271-8.03-3.22c0.17-1.66,0.75-3.24,1.19-4.851c0.41-0.22,1.229-0.67,1.64-0.899
		c-4.439-0.721-8.939-0.381-13.4-0.271c-0.289-1.33-0.56-2.67-0.829-4.01c-4.57,0.53-10.23-0.01-13.08,4.41
		c-3.95-1.311-2.851-6.86-6.721-8.44c-1.26,2.54-2.39,5.2-4.17,7.43c-1.52-0.239-2.66-1.31-3.85-2.18c-2.7-0.42-5.43-0.45-8.14-0.16
		c-2.08,3.57-3.551,7.53-3.53,11.721c-3.46,1.869-7.2,3.399-10.021,6.21c-1.399,1.34-3.05,2.35-4.71,3.319
		c-0.35,0.38-1.05,1.13-1.399,1.511c-0.41,0.1-1.23,0.29-1.641,0.38c-0.319-2.051-0.649-4.101-0.949-6.16
		c1.949-0.48,3.899-0.98,5.829-1.561c-2.859-2.84-6.819-1.27-10.069-0.229c-4.57,1.36-8.16,4.63-11.62,7.76
		c-0.22-0.03-0.66-0.07-0.88-0.09c-0.931-1.09-1.86-2.16-2.8-3.21c-1.021,1.67-2.051,3.34-3.11,4.979
		c0.05,0.591,0.15,1.761,0.189,2.351c-1.13-0.04-2.25-0.08-3.359-0.12c-0.8-0.84-1.601-1.68-2.391-2.51
		c-0.039-0.8-0.13-2.38-0.18-3.17c0.47-0.16,1.41-0.48,1.87-0.641c0.03-1.52,0.05-3.04,0.08-4.56c-2.04-0.16-4.07-0.34-6.101-0.45
		c1.011-0.84,2.021-1.69,3.03-2.54c-1.819-1.13-2.12-3-1.939-4.97c-1.04,1.05-2.08,2.08-3.12,3.1c0.1-0.91,0.3-2.729,0.399-3.649
		c-0.68-1.58-1.739-3.351-0.93-5.091c1.49-4.39,4.78-7.779,7.45-11.46c-2.811-0.04-5.67-0.08-8.311,1.021
		c-0.119-1.561-0.229-3.12-0.319-4.69c-0.25,0.59-0.73,1.761-0.97,2.351c-6.66-0.23-12.801,3.87-15.7,9.75
		c-0.73,0.63-1.45,1.26-2.17,1.89c-0.16,1.93-0.311,3.85-0.49,5.78c-2.2-0.01-3.99-0.97-5.05-2.9c-1.29-1.069-2.601-2.109-3.98-3.05
		c0.54,2.11,1.36,4.13,2.23,6.12c-2.021,2-3.71,4.31-5.15,6.76c-1.62,0.39-3.24,0.78-4.85,1.18l-0.051-1.439
		c-0.75,0.55-1.479,1.1-2.21,1.66c1.221,1.38,2.46,2.779,3.721,4.14c1.97,0.68,3.18,2.22,3.93,4.1
		c-3.69,3.931-4.979,9.261-4.479,14.53c-1.851,2.4-3.58,4.931-6,6.8c-0.61-0.43-1.221-0.869-1.82-1.29
		c0.88-3.68,2.939-6.81,6.08-8.949c-1.34-3.051-1.25-6.391-1.13-9.641c-1.29-1.689-2.521-3.399-3.841-5.05
		c0.25-1.49,0.54-2.979,0.87-4.45c3.5-0.46,3.25-4.859,1.86-7.13c-2.6,0.48-4.33,2.641-5.54,4.82c-1.87,3.29-4.021,6.399-6.03,9.6
		c-0.41-0.51-1.229-1.529-1.64-2.04c-2.58-0.029-5.16-0.029-7.73,0.08c-1.609,1.431-3.3,2.771-5.05,4.021
		c-3.09-0.33-6.08,0.52-8.71,2.1c-1.899-1.439-1.189-3.74-0.95-5.729c0.73-0.99,2.87-1.681,1.971-3.19
		c-0.681-0.39-2.04-1.16-2.721-1.54c-0.05,1.08-0.13,3.26-0.18,4.35c-3.01-1.52-5.75-3.63-9.07-4.5c0.681,2.03,1.801,3.86,3.48,5.21
		c-0.85,2.57-1.74,5.12-2.85,7.591c-2.261-2.24-3.16-5.24-3.69-8.301c-0.51,0.011-1.53,0.03-2.04,0.04
		c-0.43,1.69-0.9,3.381-1.38,5.051c-2.271-3.051-3.59-6.891-3.181-10.721c0.19-1.979-1.439-3.52-2.09-5.26
		c-0.739,3.12-1.54,6.24-2.069,9.41c-0.38,2.78,1.279,5.26,1.729,7.93c-0.79,1.971-1.85,3.8-2.81,5.681
		c-1.311-0.7-2.601-1.45-3.851-2.24c-0.439-0.101-1.319-0.311-1.76-0.41c0.93-0.34,1.87-0.66,2.82-0.95c0.76-3,1.06-6.09,1.71-9.109
		c-2.04-0.591-2.97,1.39-4.23,2.43c-0.359-1.58-0.72-3.15-1.08-4.73c-0.529,0.03-1.59,0.08-2.12,0.11
		c0.301,1.82,0.631,3.65,1.03,5.46c-0.97,2.29-1.6,4.92-3.739,6.45c-4.561,3.729-8.391,8.27-11.211,13.45
		c-4.899-3.801-9.819-7.58-14.3-11.86c-4.29-5.09-8.859-9.92-13.01-15.13c-1.26-2.44-3.03-4.561-5.06-6.391
		c0.659,4.36,4.109,7.79,4.13,12.29c2.52,2.71,5.47,5.04,7.77,7.94c0.2,2.99-3.43,3.27-5.16,1.54c-5.85-3.06-8.08-9.53-11.81-14.51
		c-0.7-0.4-2.1-1.21-2.8-1.61c0.05,3.79,2.06,7.46,1.42,11.25c-1.67,3.65-5.811,4.92-8.3,7.85c-0.83,1.25-2.33,1.25-3.65,1.45
		c-0.07-2.279-0.13-4.55-0.21-6.819c-0.56,0.399-1.68,1.21-2.24,1.609c0.05-0.609,0.16-1.819,0.22-2.43
		c3.32-4.021,2.431-9.55,3.091-14.38c-3.561,0.51-2.91,4.52-3.721,7.109c-0.52-0.13-1.55-0.38-2.06-0.5
		c-0.7,3.471-1.84,7.061-0.61,10.561c1.011,6.04,3.34,12.08,8.3,15.99c1.301-3.351,1.16-6.96,1.221-10.48
		c1.25-0.54,2.5-1.08,3.75-1.63c0.52-1.05,1.1-2.07,1.72-3.06c1.87-0.87,3.38,0.81,4.91,1.59c-0.57,4.42-2.76,8.17-6.23,10.93
		c0.49,5.22,1.471,10.42,1.61,15.66c-1.75,3.32-5.3,5.01-8.5,6.64c-0.54-1.88-1.05-3.77-1.61-5.64c-1.25,1.46-2.42,2.99-3.479,4.59
		c-1.17-0.03-2.33-0.07-3.49-0.11c0.12-1.6,0.271-3.199,0.43-4.79c0.811-0.01,2.431-0.02,3.23-0.029
		c0.35-2.25,0.66-4.511,0.89-6.771c-0.95,0.2-1.899,0.4-2.84,0.61c-0.83,1.75-1.78,3.45-3.01,4.96c-0.78-1.24-1.521-2.47-2.28-3.7
		c0.16-3.52,0.62-7.39-2.05-10.149c0.84-0.15,1.69-0.28,2.55-0.421c0.61-1.529,1.21-3.06,1.83-4.59c-4.45,1.34-9.17,1.28-13.72,0.65
		c-5.94-3.44-11.51-7.99-18.41-9.3c-0.96-1.07-1.91-2.15-2.85-3.23c-1.86-0.13-3.71-0.26-5.57-0.39c0.04,0.49,0.11,1.46,0.14,1.95
		c2.74,0.55,5.44,1.52,6.101,4.59c-0.891,0.439-1.771,0.88-2.65,1.319c-3-1.81-6.04-3.659-8.26-6.439
		c-0.42,0.03-0.84,0.06-1.25,0.09c-3.04,2.98-7.66,2.71-11.59,2.35c-0.391-0.54-1.17-1.63-1.57-2.17c-0.7,0.431-2.09,1.29-2.79,1.73
		c1.101-1.33,2.25-2.61,3.41-3.88c-0.11-0.58-0.32-1.73-0.42-2.311c-1.84-0.04-3.68-0.09-5.51-0.149c-0.34,0.21-1,0.63-1.34,0.84
		c-8.66,2.63-17.881,3.13-26.79,1.64c-3.311-0.26-6.57-0.87-9.87-1.12c-2.62-0.18-4.601,1.91-5.57,4.141
		c0.92,0.13,2.76,0.39,3.68,0.52c0.971,1.08,1.931,2.16,2.9,3.24c-0.82,0.03-2.45,0.07-3.271,0.1c-1.09,0.37-2.17,0.73-3.26,1.07
		c-1.38-1.16-2.75-2.58-4.729-2.33c-0.94,2.24,0.29,4.4,1.05,6.47c2.64-0.239,5.479-2.399,7.92-0.42c1.26-0.17,2.52-0.34,3.78-0.5
		c0.21,1.521,0.43,3.051,0.66,4.57c-0.811,1.2-1.61,2.41-2.37,3.64c-0.4,0.07-1.21,0.2-1.62,0.271c-0.41-0.75-0.83-1.49-1.24-2.23
		c-0.2,0.69-0.39,1.38-0.59,2.08c-0.98,1.82-1.88,3.69-2.811,5.53c2.29,4.14,4.511,8.32,6.391,12.66c0.84-0.01,1.68-0.021,2.52-0.03
		c1.69-3.32,3.34-7.47,7.55-8.08c0.421,0.82,0.841,1.641,1.271,2.47c-1.2,1.5-2.37,3.03-3.56,4.551
		c-0.7,2.489-1.511,4.939-2.24,7.43c1.279,0.97,2.56,1.95,3.83,2.95c1.939-3.95,3.88-9.641,9.279-9.391
		c0.011,3.03-0.119,6.07-0.8,9.021c-1.62,0.43-3.229,0.84-4.85,1.21c-1.351,1.59-2.75,3.14-4.17,4.66
		c-2.09,0.12-4.17,0.22-6.25,0.27c0.29-1.67,0.62-3.33,0.979-4.979c-0.37-0.62-1.09-1.851-1.45-2.471
		c-2.409,0.351-4.79,0.801-7.159,1.301c-0.521,0.43-1.54,1.279-2.051,1.71l2.221-0.221l-0.45,1.04c3.02,2.5,7.99,4.28,7.229,9.13
		c-2.38,1.49-4.55,3.301-6.97,4.7c-1.53-0.1-2.88-0.89-4.25-1.47c-1.35,0.1-2.689,0.19-4.02,0.29c0.779,2.479,1.449,5,2,7.55
		c-0.75,0.34-2.25,1-3,1.34c-0.88-2.149-1.681-4.33-2.54-6.489c-0.66,0.18-1.99,0.55-2.66,0.739c0.359,1.45,0.729,2.91,1.109,4.37
		c-0.949,1.41-1.479,3.51-3.449,3.771c-4.04-1.87-7.33-5.101-11.521-6.721c-4.21-2.06-8.99-1.47-13.49-1.189
		c-5.67,0.16-11.34,1.01-17,0.3c-3.96-0.61-7.89,0.28-11.77,0.96c0.03,0.7,0.11,2.1,0.15,2.8c-4.86,0.17-9.62,1.25-14.46,1.53
		c-3.19,0.1-6.021,1.78-8.641,3.45c1.351,0.52,2.7,1.04,4.061,1.56c0.71-0.16,2.13-0.47,2.84-0.63c0.1,0.39,0.29,1.18,0.38,1.57
		c0.7-0.58,1.39-1.16,2.09-1.73c0.021-0.83,0.06-2.479,0.08-3.31c5.13,0.06,10.26-0.36,15.38-0.05
		c-0.76,5.689-3.16,11.01-3.9,16.729c-2.939-0.5-4.85-2.83-6.88-4.77c-1.649,1.38-3.43,2.569-5.35,3.54
		c1.24-2.86-0.05-5.38-2.271-7.23c-1.279,2.62,0.33,5.48-0.43,8.08c-3.01,1.521-6.28,2.5-9.53,3.36
		c-4.079,0.42-8.369-0.53-12.189,1.41c1.04,0.859,2.1,1.71,3.16,2.56c-0.79,0.77-1.57,1.54-2.351,2.32
		c2.41,0.3,4.82,0.109,7.09-0.79c0.54,1.88,1.11,3.76,1.641,5.649c-4.68-0.21-9.41,0.55-14.04-0.33c-0.79-1.05-1.41-2.199-2.08-3.31
		c-2.76-0.49-5.63-1.75-8.42-1.14c-3.38,2.04-4.78,6.199-5.42,9.92c-6-0.98-12.12-1.17-18.181-0.74
		c-2.489,0.04-3.14,2.78-3.979,4.63c-1.69,3.77-1.01,8.13-2.79,11.87c-0.62,0.06-1.85,0.2-2.47,0.27c2.55,2.07,1.83,5.45,2.04,8.341
		c1.47-1.221,2.92-2.45,4.35-3.711c1.83,0.45,3.66,0.921,5.49,1.391c-0.391,1.46-0.79,2.92-1.19,4.39
		c-1.84,1.37-3.87,2.84-4.239,5.28c-0.391,2.66-2.221,4.57-3.62,6.72c-0.65,1.34,0.97,2.351,2.09,2.15c2.62,0,5.24,0.02,7.85,0.21
		c-0.319-2.811-0.75-5.601-1.01-8.41c2.14,0.84,4.35,1.74,5.71,3.71c3.75-0.2,7.52,0.03,11.16,1.08
		c-0.74,5.75-7.82,3.64-11.811,3.32c-1.58,2.149-3.199,4.279-4.739,6.47c4.39,0.68,8.83,1.78,13.3,1.01
		c4.2-0.77,8.39,0.32,12.53,0.96c0.09,1.21,0.189,2.42,0.29,3.641c2.069,0.859,4.149,1.729,6.25,2.529
		c0.42-1.8,0.829-3.609,1.229-5.42c3.16-0.67,6.47-0.87,9.42,0.681c-1.88,2.449-4.32,4.35-6.689,6.29
		c-2.95-0.091-4.351,3.14-7.24,3.26c-2.08,0.2-4.72,1.859-6.4-0.03c-0.45-2.72-0.25-5.49-0.37-8.23
		c-2.96,1.051-6.359,2.131-7.6,5.381c-0.26,0.04-0.771,0.13-1.03,0.18c-0.33,1.79,0.29,4.13-1.45,5.32
		c-1.34,1.189-3.239,1.25-4.899,1.609c0.17-3.05,0.84-6.08,0.569-9.14c-3.38-1.5-6.869-2.74-10.52-3.42
		c-2.67,3.13-7.42,4.2-8.11,8.81c-1.029,0.67-2.069,1.351-3.1,2.03c-0.77-0.45-2.31-1.35-3.08-1.8c0.05,1.939,0.63,3.67,1.74,5.21
		c-0.54,0.79-1.08,1.58-1.61,2.38c-0.67-0.67-2.01-2-2.68-2.67c-0.32,2.91,0.07,5.82,0.91,8.61c-1.25,1.789-2.58,3.529-4,5.199
		c-3.67,0.33-7.17-0.949-9.261-4.09c3.521-0.53,7.091-0.57,10.65-0.56c0.03-0.42,0.09-1.261,0.12-1.681
		c-1.04-0.39-2.08-0.779-3.12-1.17c-1-1.06-1.99-2.1-2.96-3.18c-1.1-0.01-2.19-0.02-3.29-0.03c0.14,0.62,0.42,1.86,0.561,2.471
		c-2.221,0.35-4.421,0.77-6.631,1.189c-0.01,2.15,0.03,4.29,0.021,6.45c-2.64-0.94-5.21-2.07-7.88-2.92
		c0.029,2.75,0.189,5.5,0.069,8.26c-3.17-0.36-6.279-1.14-9.449-1.57c0.159,0.67,0.47,2.021,0.62,2.69
		c1.909,0.06,3.819,0.1,5.729,0.16c-0.08,1.17-0.15,2.34-0.229,3.52c1.069,0.011,2.14,0.03,3.21,0.05
		c0.159,1.66,0.47,3.33,0.39,5.011c-1.59,5.18-6.29,10.26-3.44,15.859c1.62,0.41,3.24,0.841,4.87,1.25
		c0.811,1.36,1.62,2.74,2.41,4.13c-1.06,0.681-2.11,1.37-3.17,2.061c0.5,1.189,0.99,2.39,1.46,3.6c0.84,0,2.51,0,3.35,0.011
		c2.91-2.49,5.58-5.261,7.87-8.33c4.221,1.3,7.2,5.54,11.891,5.479c3.58-1.83,3.609-6.34,4.729-9.68
		c1.15-0.141,2.311-0.28,3.47-0.38c0.91-0.75,1.82-1.5,2.73-2.24c0.54,0.39,1.6,1.17,2.13,1.56c0.75-0.64,1.5-1.27,2.25-1.89
		c0.4,2.06,0.83,4.11,1.33,6.16c2.25-1.05,2.08-3.7,2.76-5.69c0.86-0.67,1.721-1.33,2.58-1.989c0.271,0.26,0.82,0.79,1.09,1.05
		c0.051,2.24,0.23,4.479,0.45,6.72c1.82-0.27,3.29-1.13,3.84-2.979c-0.67-0.36-2-1.091-2.67-1.45c2.03-2.57,4.391-4.851,6.47-7.37
		c1.521,0.8,3.03,1.63,4.53,2.479c-0.149,0.841-0.46,2.53-0.609,3.38c-1.24,0.15-2.471,0.311-3.7,0.471
		c-0.021,1.51,0,3.029,0.04,4.56c3.819-1.359,5.3-5.58,8.3-8.03c2.89,0.551,5.78,1.11,8.67,1.671c-0.64,2.3-1.28,4.609-1.96,6.909
		c1.16,1.46,2.26,2.96,3.33,4.5c3.39,1.051,4.93,4.21,6.79,6.931c3.05,0.16,6.17,0.04,9.12,0.95c6.7,2.06,13.689,2.96,20.649,3.729
		c-1.33,1.35-2.77,2.59-4.149,3.89c-0.59-0.13-1.771-0.409-2.36-0.54c-1.16,1.69-2.39,3.341-3.67,4.95
		c-0.85-0.939-1.7-1.87-2.56-2.8c-0.62,1.54-1.261,3.07-1.721,4.67c1.391,1.38,3.261,0.17,4.65-0.55c3.45-2.07,6.81-4.37,9.66-7.22
		c3.06,0.199,8.29-1.54,8.739,2.989c-1.329,2.32-4.039,3.42-5.5,5.681c3.271-0.54,6.351-1.94,9.7-1.99c1.08,2.53,2.61,4.8,4.07,7.12
		c-0.14,2.08-2.79,1.53-4.17,2.29c-1.771,0.149-1.7,2.27-2.38,3.479c3.939-0.12,7.88-2.26,11.79-1.1
		c7.68,4.72,11.91,13.84,20.33,17.46c-0.16,2.75-2.36,4.37-4.341,5.93c7.65,0.28,15.4-0.3,23,0.67
		c5.091,2.45,11.07,2.41,15.87,5.521c1.15-1.04,2.261-2.13,3.58-2.96c4.021-1.021,8.03,0.77,12.07,0.649
		c4.43-0.35,7.78-3.52,11.58-5.449c7.74-3.99,15.649-8.061,24.34-9.431c2.85,0.37,5.53,1.5,8.26,2.391
		c8.95,3.35,15.29,10.88,23.431,15.58c1.709,1.13,3.169,2.92,5.31,3.229c3.76,0.521,7.35,1.8,11.08,2.5
		c3.05,3.71,6.31,7.33,8.399,11.71c1.87,3.73,4.41,7.521,8.551,8.97c6.84,3.471,14.699,0.75,21.96,1.96
		c5.81,2.771,10.96,6.73,16.6,9.811c5.77,3.83,12.56,5.92,17.9,10.41c1.06,3.76,1.51,7.64,2.3,11.449
		c1.989,0.9,4.14,1.61,6.239,0.51c6.5-2.6,13.37-4.119,20.271-5.189c7.521,0.62,15.13,4.31,22.62,1.85
		c7.29,3.16,12.37,9.721,16.15,16.5c3,6.59,6.25,13.141,7.75,20.271c0.64,0.33,1.93,0.99,2.579,1.33
		c-2.649,0.95-5.46,1.71-7.64,3.58c1.67,1.35,3.58,2.34,5.42,3.45c1.51-0.07,3.03-0.12,4.55-0.15c-0.06,3.02-0.609,6-1.609,8.859
		c4.319,3.541,10.149,3.521,15.21,5.33c5.97,1.801,10.16,6.75,13.83,11.521c3.46,6.78,5.21,14.45,4.439,22.07
		c-0.38,3.38-3.93,4.689-6.51,6.09c3.48,3.87,8.5,5.89,11.939,9.77c3.931,5.311,7.83,11.79,6.841,18.601
		c0.55,6.27,2.2,12.33,3.6,18.439c0.8,9.601,0.34,19.271,0.36,28.9c0.06,3.67,0.819,7.29,1.74,10.84
		c-1.171,0.77-2.341,1.53-3.521,2.27c-2.29-5.359-2.84-11.34-5.58-16.51c-2.54-3.72-5.44-7.189-8.46-10.52
		c-1.81-2.07-4.59-2.59-7.15-3.04c-0.939,2.41-1.83,4.85-2.529,7.35c1.22,1.32,2.449,2.65,3.68,3.99c0.58,0.05,1.73,0.15,2.3,0.2
		c2.54,5.46,6.53,10.359,7.511,16.45c1.1,4.35,0.199,9,1.77,13.25c2.56,7.119,3.95,14.579,5.86,21.89
		c1.26,6.24,1.05,12.64,1.12,18.97c0.199,11.54-0.11,23.09,0.119,34.641c0.41,7.47,2.521,14.699,3.381,22.119
		c1.1,3.591,3.479,6.7,4.149,10.46c1.2,7.48,1.271,15.101,2.66,22.561c1.07,9.3,4.53,18.189,5.02,27.58
		c-4.609,1.25-8.079-3.54-12.8-1.67c0.28,1.6,0.07,3.55,1.59,4.63c4.15,3.649,9.431,5.77,13.53,9.49
		c9.63,8.42,13.521,21.09,20.44,31.489c3.67,5.091,5.89,11.011,8.189,16.801c3.03,5.54,1.63,12.13,2.96,18.14
		c-0.42,0.08-1.25,0.229-1.67,0.3l1.98-0.04c-0.12,3.86-1.851,7.29-3.74,10.55c-1.95,3.381-0.5,7.29-0.89,10.931
		c-4.41,11.45-1.23,24.13-4.761,35.81c-0.1,1.87-0.17,3.74-0.239,5.63c-0.45-0.069-1.351-0.189-1.801-0.26
		c0.48,4.12-0.26,8.25-1.6,12.15c-0.61-5.351-0.79-10.73-0.71-16.101c-0.38,0.101-1.13,0.29-1.51,0.391
		c-0.87,4.01-0.99,8.119-1.05,12.22c0.02,1.77-1.381,3.06-2.311,4.43c0.12-2.38,0.561-4.729,0.96-7.06
		c-0.86,0.21-1.72,0.43-2.57,0.66c0.091-4.99-0.779-9.95-0.51-14.931c0.69-5.64,4.04-10.439,7.24-14.97
		c-5.19,2.94-8.14,8.48-9.93,13.95c-0.12,2.76,0.04,5.53-0.25,8.3c-3.12-4-3.83-9.49-7.771-12.88c-1.979-2.11-5.06-3.04-7.89-2.68
		c-2.55,1.01-2.96,4.109-3.69,6.43c1.141-2.04,2.17-4.13,3.351-6.14c5.359,0.8,8.029,6,9.939,10.47
		c1.63,4.76,3.73,10.35,0.91,15.109c-0.5,1.12-1.82,1.141-2.86,1.221c-0.22-3.41,1.82-6.88-0.47-10c-0.33,2.649-1.43,5-3.66,6.55
		c0.03-5.08-3.6-8.8-5.45-13.22c-0.329,5.12,0.16,10.27-0.42,15.38c-1.01-2.521-1.739-5.15-2.529-7.73
		c-1.261,4.391,0.029,8.971-0.7,13.44c-3.45-4.17-4.89-10.24-2.04-15.12c1.54-2.38,1.76-5.14,1.29-7.87
		c-1.48,4.64-4.61,8.5-6.4,13.01c-1.01-3.67-2.939-7.02-5.989-9.35c1.35,4.28,4.06,8.47,3.149,13.149
		c-0.99,3.801-3.66,6.971-6.8,9.25c0.04-3.59,1.03-7.06,1.93-10.51c-3.64,2.92-4.43,7.62-5.88,11.79
		c-0.399,0.021-1.21,0.05-1.61,0.061c-0.739-4.11-1.939-8.29-1.279-12.49c1.14-3.66,3.62-6.72,5.319-10.11l1.721,2.12
		c-0.58-0.91-1.15-1.81-1.75-2.67c-2.83,2.21-5.28,4.91-7.061,8.04c-1.76,3.14-1.84,6.84-2.149,10.35
		c-3.86-4.239-7.79-9.159-13.381-11.029c0.881,0.75,1.771,1.479,2.69,2.21c2.32,3.029,4.79,5.96,6.64,9.319
		c-0.399-0.01-1.199-0.02-1.6-0.029c-3.66-4.101-7.31-8.24-11.42-11.891c-4.69-3.54-8.94-7.979-14.72-9.699
		c5.229,4.829,11.479,8.649,15.76,14.439c2.38,3.18,5.36,6.2,6.06,10.28c-2.5-1.76-4.22-4.3-6.35-6.42
		c-3.061-2.25-6.52-3.88-9.84-5.71c0.08,0.34,0.229,1.01,0.31,1.34c4.59,2.33,8.851,5.7,10.9,10.58
		c-4.57-0.51-6.15-5.601-10.36-6.99c0.021,0.33,0.061,1.01,0.08,1.34c1.49,1.36,2.95,2.76,4.38,4.21
		c-2.58,2.23-4.17,5.271-6.06,8.04c-2.33-3.729-4.271-7.95-8.01-10.5c-3.7-2.5-7.351-5.35-11.75-6.45
		c5.46,6.311,15.449,9.601,16.409,19.011c-2.02-1.75-4-3.49-6.109-5.101c0.489,0.74,1,1.4,1.54,2.141
		c0.6,1.479,1.229,2.97,1.88,4.46c-0.9,0.85-1.79,1.739-2.71,2.58h247.82c-0.931-1.12-1.78-2.25-2.631-3.4
		C697.119,955.22,696.13,954.84,695.15,954.49z M986.85,293.75c2.71-1.261,5.07-3.36,8.09-3.9c2.79-0.45,5.65-0.49,8.49-0.439
		c-0.75,2.54-1.391,5.109-1.94,7.699c-3.229,1.301-6.26,3.051-9.489,4.311c-2.91,0.28-5.83-0.101-8.721-0.141
		c-0.04-1.079-0.05-2.159-0.029-3.229C984.4,296.58,984.92,294.43,986.85,293.75z M989.52,230.42c1.54,1.12,1.34,2.96,1.3,4.64
		c1.42,1,2.011,2.44,1.97,4.16c-2.35,0.69-4.539,2.41-7.069,2.1c-0.17-2.64-0.061-5.29-0.29-7.92
		C986.73,232.4,987.5,229.67,989.52,230.42z M730.9,107.93c-0.68,0.53-1.36,1.07-2.02,1.61c-1.04-0.63-2.07-1.28-3.08-1.931
		C727.5,107.18,729.22,107.47,730.9,107.93z M73.76,222.41c-0.3-0.37-0.89-1.12-1.19-1.49c0.141-1.92,0.46-3.82,1.061-5.65
		c1.16,0.5,2.33,1.021,3.49,1.55c1.029,1.83,2.409,3.551,2.689,5.7C77.79,222.57,75.77,222.52,73.76,222.41z M78.93,205.78
		c-2,1.801-2.85,4.44-4.57,6.46c-1.22,1.04-2.989,0.91-4.46,1.33c-1.22-2.46-2.89-4.75-3.399-7.5c-0.11-1.649-1.271-2.83-2.25-4.04
		c0.89-2.18,1.75-4.369,2.5-6.59c0.7,0.36,2.1,1.101,2.8,1.471c0.31,1.35,0.62,2.699,0.95,4.05c2.37-1.521,1.729-5.91,5.319-5.971
		c2.45,1.46,4.301,3.79,5.87,6.12C82.4,203.27,80.14,204.46,78.93,205.78z M105.56,201.64c-2.7-1.26-5.53-2.53-8.54-1.51
		c-0.3-0.13-0.899-0.4-1.2-0.54c-0.149-2.04-1.3-3.59-2.89-4.78c0.93-2.11,2.11-4.11,3.16-6.16c0.74-0.08,2.21-0.26,2.939-0.34
		c0.801,4.87,5.69,6.9,8.44,10.521C106.84,199.77,106.23,200.73,105.56,201.64z M31.19,300.4c-2.16,1.011-4.529,1.15-6.77,0.28
		c0.1-1.1,0.21-2.2,0.32-3.29c2.31-0.24,4.63,0.05,6.689,1.18C31.37,299.03,31.25,299.94,31.19,300.4z M66.48,257.54
		c-1.609,1.51-3.87,3.56-6.18,2.27c0.53-2.56,1.36-5.05,1.77-7.63c1.551-0.03,3.021,0.41,4.42,1.04
		C66.5,254.65,66.67,256.11,66.48,257.54z M113.55,310.86c-2.68-0.609-5.37-1.189-8.13-1.37c0.37-1.55,0.75-3.09,1.12-4.63
		c1.83-0.6,3.739-1.27,3.359-3.609c1.23,2.109,3.301,3.569,4.551,5.66C114.29,308.25,113.99,309.56,113.55,310.86z M745.13,356.37
		c-6.46,3.58-13.521,6.59-21.04,6.489c-5.36,4.7-12.12,7.28-17.69,11.67c-6.52,4.96-14.399,8.021-20.16,13.971
		c-0.3-0.03-0.899-0.08-1.2-0.101c-1.439-6.319-2.97-12.979-7.359-17.97c-2.04-5.17-4.79-10.229-8.79-14.16
		c-1.39,0.17-2.4,1.22-3.51,1.94c-3.811,2.99-8.96,3.41-12.69,6.529c-2.439-1.42-4.52-3.38-6.29-5.55c1.08-2.16,2.41-4.17,3.95-6.02
		c0.03-1.431,0.09-2.851,0.17-4.271c1.78-1.41,3.67-2.859,4.57-5.029c0.79-0.641,1.59-1.271,2.41-1.881
		c-0.28-6.68-1.221-13.31-1.341-20c0.351-4.779,1.33-9.5,2.62-14.109c5.221-7.37,10.49-14.83,17.141-21.03
		c1.729-2.31,4.31-3.72,6.909-4.84c3.421-3.64,7.61-6.47,10.931-10.21c9.43-6.1,17.229-14.43,26.939-20.14
		c6.78-5.07,14.09-9.391,21.7-13.11c3.851-2.18,8.61-1.54,12.45-3.79c0.82-0.021,2.479-0.061,3.31-0.08
		c3.471,1.52,7.21,2.65,11.03,2.74c2.1,3.109,7,5.42,6.25,9.68c-1.56,0.271-3.07,0.561-4.58,0.92c5.23,1.59,9.63,5.23,15.25,5.601
		c1.2,3.609,6.48,2.92,8.641,6.04c-1.091,1.71-1.5,4.35-3.78,4.899c-2.98,1-5.851,3.24-9.15,2.43c-4.8-0.84-9.63-1.899-14.52-1.159
		c0.109,0.29,0.35,0.88,0.46,1.18c3.81,1.13,7.569,2.5,11.52,3.15c5.271,0.6,10.851-0.11,15.83,2.1c1.88,0.44,2.65,2.39,3.58,3.87
		c3.05,6.3,8.811,10.59,13.76,15.33c1.36,1.439,3.141,2.34,4.851,3.319c-0.34,4.11-1.931,8.04-1.78,12.2
		c-0.03,4.391,0.83,8.73,1.17,13.101c-0.66,1.88-2.22,3.279-3.29,4.949c0.12-0.579,0.351-1.72,0.47-2.29
		c-2.6-0.25-5.109,0.37-7.619,0.9c-0.16-3.09,0.85-6.21,0.029-9.24c-1.5-0.43-1.85,1.58-2.71,2.36c0.04,2.479,0.23,4.95,0.311,7.44
		c-3.091,0.449-6.341,0.17-9.311,1.21c-2.64,1.649-5.09,3.609-7.75,5.229c-0.399,1.6-0.819,3.2-1.29,4.79
		c-7.45,3.021-14.8,6.29-21.67,10.51C757.289,348.85,751.8,353.66,745.13,356.37z M779.97,233.08c1.72,0.3,3.43,0.63,5.149,0.96
		c2.54,5.13,9.45,3.27,14.091,3.489c0.27-2.369,2.329-2.33,4.199-2.27c0.41,2.11,1.341,4.05,2.23,6
		c-0.28,2.83-3.021,3.979-5.521,3.06c-2.33-3.43-5.939,0.811-9.02-0.77c-3.54-1.08-6.28-3.521-9.32-5.48
		C780.61,236.64,780.1,234.9,779.97,233.08z M875.09,335.13c-0.91,0.16-2.721,0.49-3.63,0.649c-0.46-1.34-0.73-2.75-1.45-3.97
		c-2.74,0.42-2.58,4.28-5.141,5.021c-4.04,2.5-8.21-1.141-12.439-0.79c-0.07-0.73-0.19-2.21-0.26-2.95
		c1.39-1.33,2.619-2.78,3.88-4.24c-0.771-0.41-1.53-0.83-2.29-1.229c-3.34,1.319-6.99,1.47-10.471,2.189
		c-3.97,4.61-8.979,8.04-13.39,12.16c-5.51,3.69-10.89,7.63-15.63,12.28c-1.79,1.729-3.76,3.25-5.84,4.609
		c-6.82-3.5-15.05-2.699-22.47-1.96c-3.28,0.63-6.62,0.34-9.91,0.71c-3.95,2.21-8.88,1.051-13.061,2.83
		c1.021-1.97,1.65-4.489,3.87-5.479c4.22-2.34,8.41-4.73,12.38-7.48c2.33-1.8,5.641-1.609,7.75-3.779
		c7.75-1.4,15.2-4.131,23.03-5.181c2.76-1.59,4.81-4.25,7.16-6.399c0.72-1.17,0.979-2.82,2.2-3.591
		c4.79-0.739,9.92,1.511,14.489-0.779c2.25-1.351,5.91-0.61,6.95-3.42c3.061-0.08,6.05-1.341,9.13-0.94
		c2.271,1.39,4.54,2.8,6.99,3.91c0.75-1.45,2.11-2.38,3.36-3.35c0.43-0.82,0.88-1.631,1.33-2.44c1.72,1.27,3.649,2.17,5.79,2.49
		c0.02,0.64,0.08,1.93,0.1,2.569c0.74,0.851,1.5,1.721,2.27,2.58c2.101-0.02,4.221,0.16,6.29,0.63
		c0.171,0.771,0.511,2.32,0.681,3.091C876.34,333.44,875.5,334.56,875.09,335.13z M889.079,336.72c-1.149-0.65-2.34-1.28-3.489-1.87
		c0.02-1.24,0.08-2.47,0.16-3.7c1.159-2.04,1.01-4.43,1.119-6.68c2.931-0.34,6.25-0.86,8.841,0.93c-0.71,1.58-1.721,2.99-2.561,4.49
		c-0.84-0.02-2.5-0.08-3.33-0.1c0.65,1.35,2,1.89,3.32,2.439c0.16,0.4,0.479,1.21,0.64,1.61c1.44,1.36,2.83,2.79,4.141,4.3
		C895.329,340.37,890.05,340.79,889.079,336.72z M911.13,341.57c-2.91,0.261-5.591-0.93-7.86-2.619
		c-0.41-3.301-0.36-6.851,2.38-9.171c1.851,0.511,3.76,0.82,5.681,1.11C912.19,334.43,911.77,338.03,911.13,341.57z M948.24,301.85
		c0.49-4.2,3.29-7.71,7.63-8.31c0.971,0.069,2.9,0.199,3.86,0.26c-1.16,5.18-6.07,7.32-10.22,9.65c-0.101,0.71-0.301,2.14-0.41,2.85
		c-2.67,1.49-5.51,3.33-8.69,3.15c-1.39-0.82-1.27-2.471-1.359-3.83c-0.521-0.98-1.03-1.94-1.54-2.891
		C941.13,302.27,944.55,300.41,948.24,301.85z M936.659,304.51c-0.93,1.66-1.829,3.33-2.659,5.04c-1.95,0.42-4.381,0.47-5.67-1.311
		c1.3-2.56,2.52-5.17,3.709-7.789C934.25,301.12,933.58,305.03,936.659,304.51z M888.039,176.23c1.23,0.92,2.521,1.75,3.841,2.561
		c-1.561,1.01-2.95,2.239-4.12,3.67c-1.53-1.221-2.65-2.87-3.65-4.521C885.32,177.17,886.55,176.39,888.039,176.23z M864.15,257.31
		c0.46,0.101,1.38,0.311,1.84,0.42c0.49,1.141,1.011,2.29,1.55,3.431c-0.199,0.47-0.6,1.43-0.8,1.909
		c0.811,1.771,1.511,3.61,2.181,5.46c7.439-0.04,14.779,1.341,22.18,1.98c1.46,0.94,2.81,2.05,4.17,3.15
		c1.061-2.131,1.47-4.471,1.15-6.82c2.66-0.48,4.25-2.93,4.529-5.47c1.301-0.11,2.641-0.12,3.99-0.2
		c3.061-1.38,6.561-0.98,9.58,0.319c0.189,0.44,0.57,1.311,0.77,1.75c-3.569,2.9-7.739,4.91-11.33,7.801
		c-0.539,1.14-1.069,2.3-1.569,3.46c-2.61,1.27-5.36,2.229-8.3,1.939c-0.34,0.891-0.681,1.79-1,2.69c2.21,0.25,4.699,1.1,6.77-0.15
		c3.18-1.88,6.48-3.6,10.01-4.76c1.561,0.32,3.09,0.88,4.631,1.36c-0.051-0.37-0.15-1.11-0.211-1.48c-1.02-0.99-2.01-1.99-2.979-3
		c0.41-0.53,1.24-1.57,1.649-2.1c3.351-0.88,6.391-2.71,8.971-5.021c0.83-0.109,2.49-0.34,3.32-0.45
		c0.06-0.989,0.13-1.97,0.22-2.949c1.55-0.011,3.12-0.021,4.689,0c1.431,2.34,2.75,4.75,4.351,7c-0.021,1.64-0.021,3.39-1.721,4.199
		c-2.26,3.221-5.3,5.721-8.569,7.851c-3.07,0.35-6.17,1.08-9.22,0.28c-2.591,1.069-5.44-0.891-7.86,0.6
		c1.72,4.14,6.22,7.24,5.55,12.27c-1.25-0.079-2.49-0.17-3.71-0.27c-5.16-5.03-13.38-4.33-19.87-2.6
		c0.26-1.58-0.149-3.601,1.44-4.57c1.38-0.8,1.22-2.3,1.05-3.67c-0.82-0.641-1.62-1.29-2.41-1.94c-1.1-0.1-2.189-0.21-3.26-0.31
		c-0.68-3.15-4.28-4.061-7.061-4.04c-0.189,1.39-0.39,2.78-0.58,4.17c-4.76-0.87-9.539-1.021-14.359-1.05
		c-1.351-3.03-3.11-6.141-2.101-9.561c0.921-3.3-1.51-6.12-2.34-9.149C861.07,259.02,862.63,258.2,864.15,257.31z M821.159,249.45
		c3.721-0.591,7.49-0.86,11.181-1.671c0.439,0.78,0.899,1.561,1.37,2.351c1.46,1.7,2.979,3.35,4.659,4.84
		c-0.59,1.72-1.18,3.45-1.77,5.17c0.27,0.35,0.81,1.04,1.09,1.39c5.94-1.35,11.6-4.29,17.78-4.329
		c0.92,7.239,0.74,15.109,5.04,21.369c1.439,1.82,1.34,4.11,1.319,6.311c-2.909,2.34-2.27,5.899-2.619,9.16
		c-2.07,2.63-4.69,4.79-7.36,6.77c-1.69,1.34-3.95,0.58-5.89,0.69c-3.03-0.41-4.79,2.569-7.221,3.8
		c-5.83,2.55-10.359,8.13-17.06,8.52c0.27-1.39,0.57-2.77,0.89-4.14c2.62-2.46,2.72-6.93,0.05-9.39c-1.04-4.37-1.26-9.21-4.6-12.59
		c-1.63-3.57-3.85-6.75-6.43-9.69c-1.181-3.51-3.471-6.49-5.9-9.2c-1.83-0.899-3.75-1.56-5.66-2.2c-2.569,0.91-5.2,1.69-7.93,1.82
		c0.68-1.19,1.52-2.29,2.32-3.41c0.5-1.92,1.05-4.25,3.489-4.31c4.391-0.061,8.851,0.3,13.15-0.94c-1.03-2.85,0.49-6.2,3.41-7.12
		c-0.7,2.5,0.01,4.92,1.21,7.141c0.939-0.08,2.81-0.221,3.75-0.301c-0.7-2.14-1.48-4.25-2.21-6.369
		c-2.891-1.82-3.91-5.431-6.17-7.891c-0.44-0.05-1.32-0.149-1.771-0.189c0.51-0.79,1.03-1.57,1.55-2.351
		c0.351-0.01,1.051-0.029,1.4-0.04c1.19,0.891,2.4,1.79,3.61,2.69C818.829,244.69,820.449,246.85,821.159,249.45z M800.99,188.61
		c0.09,1.21,0.24,2.431,0.431,3.641c4.05,0.64,8.239-0.16,12.359,0.279c0.19,2.511-0.569,4.92-1.09,7.341
		c-2.74-0.271-7.38,1.88-8.53-1.71c-1.529-1.44-3.13-2.82-4.22-4.631c-1.04-0.06-2.07-0.1-3.09-0.13c-0.47-0.33-1.41-0.97-1.88-1.29
		c-0.48-1.51-1.11-2.96-1.96-4.29c-0.061-0.359-0.17-1.069-0.23-1.43C794.68,189.16,798.07,188.37,800.99,188.61z M771.869,214.33
		c3.78,0.529,8.131-0.32,11.15,2.58c-1.01,1.06-1.92,2.22-3.05,3.159c-2.59,0.601-5.271,0.2-7.891,0.19
		c-0.369-1.28-0.85-2.51-1.64-3.58C770.909,215.9,771.38,215.11,771.869,214.33z M766.19,227.49c0.061-0.439,0.19-1.31,0.25-1.739
		c1.47-0.86,2.84-1.91,3.29-3.66c7.1,0.01,14.26,1.649,21.31,0.18c0.66,0.061,1.98,0.16,2.641,0.21
		c-0.021,0.66-0.061,1.99-0.07,2.65c2.811,0.26,4.43,2.85,4.05,5.53c-5.729,0.159-11.489-0.811-16.79-2.99
		c-2.18-1.021-4.55-1.271-6.909-1.101c-3.37,2.91-7.44,4.78-11.25,7C763.46,231.33,764.659,229.29,766.19,227.49z M733.619,218.79
		c4.131-3.38,8.75-6.091,13.23-8.98c1.66-0.57,3.31-1.26,4.68-2.399c0.57,0,1.721,0.02,2.29,0.029c0.38,2.92-1.319,5.74-3.979,6.931
		c-2.681,1.189-4.91,3.119-7.311,4.77c-2.16-0.11-4.18,0.61-6.16,1.34c0.04,0.42,0.12,1.24,0.16,1.66c1.48,0.19,2.96,0.44,4.48,0.56
		c6.68-3.43,13.64-6.939,21.17-7.979c0.91,0.43,1.82,0.86,2.75,1.29c-1.521,2.99-4.33,5.02-5.93,7.96
		c-1.521,2.76-4.341,4.37-7.03,5.8c-2.76-0.43-5.271-1.79-8.03-2.17c-2.59,1.13-4.689,3.14-7.42,4c-3.76,2.78-7.38,5.78-11.46,8.09
		c-3.09-1.55-6-3.43-8.68-5.609c0.569-2.591,0.819-5.301,1.85-7.74c2.07-2.891,4.11-5.851,6.79-8.22
		c2.12,1.329,3.32,3.55,3.47,6.029c1.471,1.391,3.05,2.67,4.75,3.79c0.181-1.64,0.33-3.29,0.46-4.939
		C732.539,221.82,731.82,219.77,733.619,218.79z M733.05,212.25c-2.78-0.46-3.25,3.67-6,3.14c-1.521,0.46-3.601-1.36-2.29-2.8
		c1.45-2,2.479-4.83,5.069-5.58C732.01,207.8,732.35,210.35,733.05,212.25z M715.97,126.55c1.729,0.54,3.479,1.02,5.27,1.39
		c0.59,0.73,1.19,1.471,1.79,2.21c-2.13,0.641-4.189,1.511-6.26,2.29c-1.68-0.67-3.17-1.74-4.77-2.54
		C713.34,128.8,714.67,127.699,715.97,126.55z M710.13,203.17c1.89-1.59,4.159-2.58,6.409-3.58c1.131,1.01,2.41,1.85,3.82,2.439
		c0.521-1.109,1.04-2.21,1.561-3.319c0.58-0.12,1.739-0.36,2.319-0.471c0.54-1.01,1.08-2.01,1.63-3
		c1.681,0.311,3.36,0.761,4.931,1.5c-0.431,3.96-3.8,6.15-6.851,8.11c-2.08,0.58-4,1.59-6.02,2.311
		c-2.09-0.341-3.94-1.471-5.94-2.07c-0.08,1.95-1.149,3.26-2.87,3.97c-1.29-1.3-2.689-2.58-3.18-4.399
		C707.32,204.14,708.72,203.64,710.13,203.17z M705.46,224.11c-0.091-3.09,2.54-4.84,4.489-6.77c0.63,0.88,1.25,1.76,1.9,2.649
		c1.18,0.48,2.37,0.971,3.56,1.48c-1.14,3.85-1.09,7.86-0.64,11.81c-1.8,0.431-3.57,0.91-5.34,1.36c-2-1.95-4.311-3.51-6.48-5.24
		C703.31,227.46,702.69,224.28,705.46,224.11z M692.72,186.66c1.26,1.17,2.6,2.279,3.569,3.739c-6.35,0.59-13.479,3.311-19.369-0.18
		c-3.86-1.65-7.23-4.12-9.57-7.65c1.59-0.09,3.17-0.189,4.77-0.31c0.54,0.46,1.101,0.92,1.66,1.39c2.05-0.47,4.15-0.489,6.26-0.46
		c0.711-0.67,1.44-1.34,2.171-2.01C686.6,181.38,688.63,185.84,692.72,186.66z M660.5,148.32c1.909-1.12,3.77-2.319,5.539-3.649
		c2.841-0.53,5.65-1.25,8.54-1.58c1.801,2.77,7.46,0.88,6.971,5.04c-2.181,1.069-4.511,1.729-6.71,2.72
		c-1.891,0.75-2.801,2.84-4.66,3.63c-1.91,0.98-3.75,2.08-5.48,3.351c-2.3-2.351-0.689-6.021-2.51-8.67
		c-0.49,0.38-1.46,1.14-1.95,1.52C660.34,149.9,660.43,149.11,660.5,148.32z M667.3,185.73c1.6,0.79,2.72,2.09,3.479,3.73
		c-2.24,1.16-4.56,2.18-6.84,3.26c-1.33-0.8-2.68-1.55-4.02-2.3c-0.271,0.33-0.82,0.979-1.091,1.31
		c0.801,3.271-2.39,4.23-4.869,4.92c-2.521,0.11-4.96-0.75-7.391-1.26c0.771-3.63,1.29-7.32,2.3-10.9
		c1.42-1.479,3.25-2.609,5.19-3.319C658.619,182.18,662.5,185.35,667.3,185.73z M645.659,184.87c-0.14,1.09-0.27,2.17-0.39,3.26
		c-3.26,0.75-6.18,2.41-8.81,4.42c-0.46-0.03-1.381-0.08-1.83-0.101c-0.16-1.069-0.301-2.13-0.431-3.189
		c0.84-1.38,0.79-3.58,2.53-4.19C639.52,183.57,642.69,184.69,645.659,184.87z M638.09,158.96c3.58-0.721,7.14-2.42,10.859-1.471
		c-0.77,2.24-2.189,4.12-3.72,5.881C642.78,162.04,639.9,161.22,638.09,158.96z M644.039,203.22c2.891,0.51,5.79,0.62,8.721,0.35
		c-1.42,1.96-3,3.79-4.46,5.721c-0.94,0.02-2.83,0.069-3.78,0.1c-0.82-0.92-1.61-1.87-2.38-2.83c-0.62-0.16-1.851-0.49-2.47-0.66
		C640.449,204.22,642.05,202.83,644.039,203.22z M638.26,144.31c0.399-0.43,1.2-1.3,1.6-1.74c1.53,0.021,3.061,0.051,4.61,0.091
		c0.09,2.319,0.16,4.63,0.24,6.949c1.97,1.49,4.229,2.79,5.329,5.13c3.4,0.36,4.841-3.34,8.061-3.529
		c0.08,1.64,0.16,3.279,0.229,4.92c-2.38,0.97-4.56,3.55-7.319,2.55c-1.71-1.22-3.15-2.76-4.7-4.15c-3.06,1.62-6.45,2.23-9.78,2.971
		c-0.77,4.859-4.83,7.76-8.16,10.899c-1.97,1.65-4.71,0.83-6.84,0.011c0.021-0.45,0.07-1.36,0.09-1.811
		c1.62-0.16,3.24-0.31,4.881-0.46c-0.011-2.42-0.95-4.67-1.511-6.99c-4.25,1.011-6.31,8.061-11.6,5.94
		c2.86-1.75,2.38-5.641,3.25-8.49C624.119,153.01,629.84,145.86,638.26,144.31z M630.84,205.22c-0.521,1.33-1.08,2.66-1.57,4
		c-1.65,1-3.15,2.45-5.16,2.61c-3.649,0.55-7.3,2.029-10.97,0.77c0.1-1.61,0.32-3.22,0.56-4.81c2.471-0.841,4.931-1.761,7.23-3.03
		C624.22,205.11,627.52,205.44,630.84,205.22z M614.159,89.57c4.54,0.761,9.45-2.31,13.69,0.29c0.37,0.551,1.1,1.65,1.47,2.2
		c-4.47,1.74-9.37,2.4-14.149,2.42c-1.24-0.67-2.53-1.2-3.811-1.74C612.31,91.71,613.25,90.65,614.159,89.57z M609.69,213.41
		c2.45,1.739,5,3.34,7.69,4.689c-0.23-2.11,1.399-3.99,3.59-3.61c4.62,0.25,8.58-2.27,12.26-4.739c0.65,0.87,1.35,1.75,2.07,2.6
		c0.88,1.75,1.85,3.46,2.79,5.19c3.01-4.141,8.569-4.301,12.979-6.101c3.47,1.13,6.141,4.32,8.42,7.141
		c1.53-2.141,3.08-4.58,6.061-4.54c0.029-0.311,0.08-0.92,0.1-1.221c-1.96-0.08-3.91-0.14-5.85-0.12
		c-0.641-0.489-1.931-1.47-2.57-1.949c2.7-3.511,7.41-3.54,11.42-3.271c0.91,1.36,1.851,2.7,2.83,4.03
		c2.92-0.26,5.86-0.311,8.81-0.22c0.66-1.32,1.261-2.66,2.061-3.91c2.59-0.61,5.31-0.12,7.95,0.01c-0.011,1.49-0.021,2.98-0.04,4.48
		c-2.05,0.02-4.09-0.16-6.12,0.109c-1.851,1.47-3.24,3.67-5.76,4.07c0.04,0.45,0.12,1.36,0.159,1.81
		c2.65,1.351,5.57,2.011,8.37,2.95c0.44,1.09,0.91,2.17,1.41,3.25c0.92,3.88,1.561,7.82,2.311,11.74
		c5.71,5.729,14.37,3.979,21.52,5.99c0.86,2.109,0.11,4.33-1.61,5.729c-3.39,3.3-5.8,7.58-9.8,10.23
		c-4,2.729-6.029,7.689-10.819,9.37c-0.08,0.5-0.25,1.5-0.33,2c-3.49,3-6.95,6.05-10.23,9.29c-2.88,2.89-7.24,3.8-9.76,7.1
		c-3.33,3.4-6.97,6.49-10.5,9.69c-0.93,1.229-1.85,2.539-3.45,2.939c-0.28,0.38-0.85,1.14-1.14,1.521
		c-0.44,0-1.311-0.021-1.75-0.021c-2.61-2.84-5.5-5.54-7.04-9.15c-2.22-4.869-6.41-8.3-10.15-11.939c-2.53-3.6-6.51-5.57-10.03-8
		c-1.359-0.67-1.5-3.36-0.09-4.03c1.94-1.38,4.351-2.3,5.53-4.52c-1.32-0.42-2.61-0.86-3.89-1.311c-2.011,2.84-4.63,5.2-7.74,6.761
		c-3.96-0.641-7.34-2.79-11.09-4c0.67,5.579,7.52,7.47,12.29,6.989c3,3.48,7.14,5.57,10.779,8.29
		c1.671,3.54,3.91,6.771,5.771,10.221c1.67,5.409,5.689,9.739,7.2,15.199c0.739,4.061,2.01,8.32,0.54,12.391
		c-1.301,8.46,0.359,17.109-0.67,25.62c-0.78,3.14-1.87,6.64-5.311,7.71c-0.03,0.76-0.08,2.29-0.1,3.05
		c-1.58-0.72-3.15-1.45-4.75-2.09c-0.58,1.609-1.141,3.22-1.66,4.85c-0.63,0-1.89,0.021-2.521,0.03c-0.529,1.149-1.06,2.3-1.56,3.47
		c-1.71,1.44-3.34,2.98-5.14,4.3c1.08,2.641,1.97,5.431-0.21,7.86c0.369,0.08,1.109,0.25,1.489,0.34
		c-3.63,3.32-4.529,9.05-9.5,10.95c-0.35-0.65-1.05-1.96-1.399-2.61c3.05-5.479,4.359-11.97,3.01-18.14
		c-1.11-5.32-0.13-11.01-2.25-16.09c-0.97-2.34-0.86-4.9-0.95-7.38c-1.62-2.28-3.06-4.73-5.02-6.74
		c-5.23-4.12-10.9-7.67-16.13-11.771c-6.28-4.41-10.631-10.83-15.7-16.47c-3.66-4.47-8.63-7.63-13.7-10.27
		c-1.38-0.83-2.37-2.101-3.45-3.24c1.16-1.01,2.37-1.98,3.601-2.92c2.97-5.11,5.1-10.61,7.689-15.91c0.11-1.271,0.17-2.54,0.16-3.8
		c-0.42-0.28-1.26-0.83-1.68-1.11c-1.271-3.81-5.73-4.75-7.311-8.38c-2.33-1.34-4.37-3.19-5.41-5.71c4.23-3.48,7.67-7.91,12.5-10.66
		c1.931-0.11,3.87-0.09,5.82-0.14c-0.07,3.069-0.49,6.62,1.85,9.05c3.33,3.49,6.57,7.07,9.53,10.87c1.94-0.71,3.99-0.891,6.05-0.891
		c2.57-1.68,6.91-2.52,6.891-6.29c-3.57,2.471-8.99,5.48-12.891,2.101c2.051-2.03,4.79-3.59,5.721-6.5
		c0.71-0.49,1.42-0.99,2.149-1.48c0.561-1.109,1.15-2.2,1.771-3.279c1.77,1.529,3.64,3.319,6.22,2.88
		c5.09-0.521,10.12,1.76,15.15,0.47c-2.37-1.39-4.971-2.35-7.2-3.96c-0.37,0.31-1.101,0.92-1.47,1.229
		c-1.9-1.529-4.45-0.899-6.66-1.399c-3.351-0.71-6.75-1.09-10.11-1.65c-0.08-0.66-0.25-1.979-0.33-2.63
		c1.74-0.149,3.641-0.29,3.73-2.56c0.39,0.109,1.16,0.34,1.54,0.449c0.779-2.189,1.26-4.479,1.29-6.8
		c0.89-6.08,5.109-10.7,8.54-15.52C607.27,214.47,608.17,212.78,609.69,213.41z M546.829,257.46c-1.579,1.6-3.3,3.04-5.1,4.38
		c-1.05,1.88-2.46,3.52-4.11,4.89c-1.479,3.471-3.83,6.45-5.729,9.681c-5.3-0.2-10.57-1.311-15.88-0.79
		c-5.19,0.5-10.221-1.17-15.09-2.7c-5.311-2.3-8.301-7.98-14.03-9.51c-0.23-1.811-0.51-3.61-0.771-5.41
		c-3.3-3.12-6.42-6.45-8.75-10.37c-2.59-2.181-3.619-5.36-5.38-8.12c5.03,0.39,8.16,4.74,12.13,7.29c1.12-1.47,2.011-3.08,2.61-4.82
		c1.53,0.17,3.06,0.36,4.6,0.58c0.25,5.4-0.3,10.811,0.061,16.2c2.06-0.74,4.069-1.63,6.069-2.55c1.171-2.29,2.44-4.69,4.49-6.33
		c1.98-0.63,4.03,1.18,6.04,0.35c2.79-0.95,5.761-0.859,8.681-0.92c0.84-2.83-0.71-5.05-2.65-6.899c-0.94,1.5-1.65,4.72-4.01,4.02
		c-1.54-1.91-2.57-4.2-4.891-5.37c0.04-0.52,0.12-1.57,0.16-2.09c2.5-0.05,4.67-1.2,6.721-2.51c1.939,0.72,3.789,1.81,5.92,1.859
		c-1.11-0.949-2.33-1.779-3.69-2.31l-0.15-1.38c1.811-0.17,3.631-0.311,5.46-0.38c0.381-1.19,0.79-2.36,1.2-3.54
		c0.891-0.2,1.78-0.391,2.69-0.58c0.49,2.12,1.21,4.26,1.12,6.46c-1.15,1.28-2.561,2.28-3.761,3.5
		c0.04,4.17,2.021,7.979,4.211,11.439c4.52-3.6,10.369-5.47,13.859-10.3c3.19,4.34,6.08,9.15,10.59,12.271
		c5.29,3.91,8.771,9.689,13.721,13.91c0.34,2.239,1.229,4.359,1.63,6.59c-0.261,2.239-0.95,4.42-1.57,6.58
		c-2.55,1.989-4.8,4.31-6.61,6.989c-6.5-1.229-11.89-5.71-18.489-6.58c-1.96-0.27-3.341-1.81-4.851-2.93
		c4.08-3.62,6.55-8.55,10.3-12.45c1.86-2.479,3.221-5.3,5-7.84C548.14,257.69,547.27,257.54,546.829,257.46z M502.17,240.88
		c-2.301,3.42-1.87,10.26-7.341,10.12c-1.01-1.96-1.3-4.061-0.59-6.181c-1.81-3.43-3.3-7.05-1.97-10.939
		c1.88,0.62,3.67,1.66,5.68,1.87c1.03-0.66,1.98-1.44,2.96-2.181c0.32,0.091,0.96,0.271,1.29,0.36
		C500.69,236.04,500.69,238.76,502.17,240.88z M525.199,181.22c1.391,0.13,2.79,0.24,4.2,0.31c1.12-2.35,2.94-4.09,5.58-4.52
		c2.45-3.1,6.34-4.62,10.26-4.39c0.17,0.59,0.53,1.779,0.7,2.369c-2.07,1.631-4.229,3.15-6.51,4.48c-2.78,1.55-4.59,4.39-7.521,5.72
		c-1.649,0.29-3.35,0.26-5,0.12C526.03,184.08,525.46,182.72,525.199,181.22z M549.31,247.199c1.03-2.42,2.63-4.5,4.63-6.21
		c1.51-0.22,2.97-0.68,4.09-1.79c1.5-0.02,3,0,4.51,0.051c-0.06,2.02-0.479,3.79-2.819,3.449c-0.01,1.23-0.021,2.461-0.021,3.69
		C556.27,247.29,552.75,249.22,549.31,247.199z M594.72,63.81c2.02-0.02,3.87-0.689,5.24-2.22c2.17,1.64,5.29,1.88,6.869,4.25
		c-2.18,1.32-5.26,2.05-5.869,4.92c-1.171-0.88-2.181-1.93-3.021-3.12c-1.21-0.479-2.42-0.94-3.62-1.41
		C594.44,65.42,594.579,64.62,594.72,63.81z M588.02,146.85c-0.83,3.03-4.1,4.41-4.99,7.45c-0.49,0.16-1.479,0.47-1.97,0.62
		c-0.93,1.27-1.59,2.91-3.11,3.58c-3.75,1.88-7.08,4.59-10.92,6.26c-0.859-0.09-2.569-0.28-3.42-0.38
		c-0.109,1.83-0.28,3.729-1.96,4.84c-0.12,1.58-0.18,3.17-0.26,4.75c-1.71,0.25-3.39,0.75-4.64,2c1.529,1.15,2.85,2.54,4.119,3.979
		c1.91-1.229,3.95-2.21,5.92-3.319c4.641-2.97,7.74-7.67,12.061-11.021c1.25-0.109,2.51-0.1,3.77,0.03c1.761-3.57,4.91-6.24,6-10.21
		c2.341,0.05,4.841-0.6,7.07,0.36c-2.7,4.25-5.51,8.43-9.65,11.439c-2.029,0.44-4.01,1.05-6.02,1.521c0.27,2.729,0.88,5.41,1.8,8
		c-0.63,0.819-1.26,1.64-1.87,2.47c-1.5,0.1-2.979,0.24-4.449,0.4c-1.521,1.819-3.171,3.529-5.11,4.899
		c-3.29-1.3-7.29-0.52-9.32,2.53c-4.149,1.25-10.58,2.45-12.43-2.8c0.78-1.771,1.53-3.561,2.18-5.391
		c1.271-0.649,2.561-1.29,3.86-1.91c-0.21-0.81-0.641-2.42-0.86-3.229c0.62-0.13,1.87-0.41,2.49-0.55c0.21-0.92,0.42-1.84,0.63-2.75
		c-2.51-0.16-5.02-0.101-7.53-0.01c0.341-1.5,0.761-2.98,1.24-4.44c2.101-0.35,4.83-0.62,5.16-3.271c2.41-0.279,4.82-0.6,7.26-0.56
		c2.12-2.479,5.08-3.84,7.82-5.479c1.32-0.58,2.67-1.131,4.01-1.7c1.3-2.59,3.601-4.391,6.34-5.261
		C582.01,147.1,585.86,143.9,588.02,146.85z M545.18,128.11c0.79,1.08,1.439,2.271,2.229,3.351c-0.01-0.91-0.04-2.75-0.06-3.66
		c0.87-0.07,2.62-0.21,3.49-0.28c-0.87-1.84-1.58-4.229-4.21-3.25c0.02-0.88,0.069-2.63,0.1-3.51c0.86-1.68,2.86-1,4.35-0.97
		c3.101-0.011,5.48,2.13,7.9,3.76c1.53-0.03,3.07-0.16,4.6-0.39c0.08-2.261-1.34-4-2.329-5.881c1.829-0.84,3.779-1.989,5.88-1.42
		c1.58,0.61,1.89,2.45,2.71,3.761c3.63,0.75,7.439,0.29,10.92,1.81c-0.061,1.39-0.12,2.78-0.19,4.17c-1.91,0.09-3.81,0.22-5.7,0.21
		c-1.909-1.12-3.52-2.66-5.18-4.09c-2.61,1.61-4.25,4.229-5.75,6.81c-0.479,0.04-1.43,0.12-1.91,0.16
		c-0.22-0.569-0.649-1.7-0.87-2.27c-1.05,0.45-2.09,0.92-3.109,1.38c-0.63,3.45-4.4,5.56-3.65,9.29c-1.47,1.05-2.91,2.13-4.33,3.22
		c-1.81-1.3-3.64-2.58-5.29-4.06c-1.62,1.54-3.109,3.779-5.68,3.37c-1.82,0.63-2.82-0.98-3.561-2.32c0.391-1.72,0.91-3.4,1.311-5.12
		c2.03,1.69,4.52,2.39,7.16,2.06c-0.9-1.399-1.76-2.819-2.65-4.21C542.619,129.37,543.89,128.73,545.18,128.11z M529.27,119.58
		c0.21,0.25,0.65,0.729,0.86,0.97c0.88,1.31,1.81,2.59,2.72,3.88c0.99-0.4,1.97-0.8,2.97-1.18c-0.08-0.94-0.25-2.811-0.34-3.75
		c2.45-0.391,4.271,1.35,6.24,2.47c-0.47,0.74-0.94,1.49-1.4,2.24c-2.95,1.359-4.49,4.33-2.979,7.43
		c-1.811,0.01-3.63,0.12-5.431,0.03c-1.699-1.21-0.979-3.59-1.239-5.36c-0.521-0.07-1.551-0.21-2.07-0.28
		c-0.57,2.15-1.12,4.82-3.84,4.931c-1-2.181-1.391-4.54-1.42-6.92C525.789,123.29,527.61,121.449,529.27,119.58z M515.23,143.46
		c0-0.69,0-2.07,0-2.761c3.14-0.89,6.21-2.079,9.46-2.539c-0.53,2.529-1.979,4.789-2.12,7.42c-1.59,0.35-3.16,0.77-4.72,1.199
		c-0.46-0.39-1.39-1.18-1.85-1.58c-0.561,0.051-1.69,0.131-2.25,0.181c-0.58,1.12-1.15,2.24-1.711,3.359
		c-2.08-0.329-4.13-0.75-6.17-1.21c-0.39-0.409-1.17-1.25-1.55-1.67C505.92,141.25,511.61,142.12,515.23,143.46z M505.61,222.64
		c-2.62,0.28-5.2-1.13-6.88-3.06c-1.74-0.24-3.5,0-5.22-0.141c-1.09,0.971-1.92,2.141-2.15,3.61c-0.82,0.56-1.63,1.11-2.43,1.68
		c-0.601-0.399-1.79-1.21-2.391-1.609c-0.369-3.91-0.229-7.841,0.391-11.71c1.56,0.13,3.32-0.16,4.57,1.05
		c2.439,1.93,5.449,2.779,8.43,3.479C501.67,218.26,505.869,219.25,505.61,222.64z M483.789,156.84
		c1.271-3.561,2.551-7.12,3.79-10.7c0.95,0.1,1.9,0.21,2.87,0.32c2.9,2.41,2.95,6.3,4.07,9.609c-0.69,1.36-1.67,2.53-2.38,3.87
		c0.52,1.4,1.979,2.181,2.91,3.311c0.45,0.1,1.35,0.29,1.79,0.39c1.109,1.21,2.26,2.38,3.439,3.53c-0.229,0.33-0.67,0.979-0.89,1.3
		c-4.061,1.44-7.89,3.42-11.67,5.47c-0.84-2.59-2.91-4.229-5.13-5.6C483.659,164.64,483.199,160.36,483.789,156.84z
		 M480.659,142.449c0.53,0.9,0.94,1.87,1.38,2.82c-0.899,0.74-1.779,1.5-2.649,2.28c-1.16-0.34-2.3-0.67-3.45-1
		c-0.56-1.01-1.12-2-1.68-2.99C476.31,142.86,478.449,142.11,480.659,142.449z M469.97,151.77c0.939-0.39,1.87-0.79,2.81-1.21
		c2.26-0.03,4.471,0.42,6.561,1.271c-0.98,0.25-1.95,0.479-2.92,0.699c0.01,1.21,0.02,2.41,0.039,3.62
		c-0.359,0.681-1.1,2.04-1.47,2.721c-2.12,0.13-4.069-0.561-5.88-1.601C469.43,155.44,469.74,153.61,469.97,151.77z M465.209,163.03
		c1.971-1.319,4.101-2.369,6.181-3.52c0.3,1.8,0.59,3.61,0.899,5.42c-0.859,1.06-1.699,2.12-2.539,3.2
		c0.659,0.13,1.959,0.39,2.609,0.52c0.76,3.03,0.43,6.181-0.78,9.04c-1.449-0.229-3.579,0.471-4.01-1.479
		c-0.09-2.83,0.851-5.561,0.9-8.38C466.86,166.63,464.13,165.58,465.209,163.03z M454.459,213.54c2.291-3.53,4.7-7.011,6.58-10.801
		c2.471-0.01,4.94-0.069,7.42-0.109c0.791,3.27-0.55,6.28-1.3,9.37c-0.31,3.149,3.62,2.069,5.55,2.479
		c0.041-0.439,0.12-1.34,0.15-1.79c-2.2-0.06-3.479-2.069-2.16-3.939c2.181-3.03-0.859-7.681,3.4-9.38
		c0.85,0.909,2.31,1.42,2.74,2.67c-0.32,2.35-0.94,4.64-1.28,6.989c1.55-0.04,2.97-0.39,3.21-2.14c2.65-0.51,5.12-1.6,7.64-2.52
		c0.141,2.31,0.431,4.89-1.02,6.89c-1.65,2.01-3.84,3.53-5.36,5.67c1.01,0.89,2.01,1.8,3,2.71c0.48,0.08,1.42,0.25,1.891,0.34
		c-2.03,3.69-6.7,5.28-10.65,5.72c0.2-1.899,1.2-3.439,2.48-4.779c-0.931-0.8-1.82-1.601-2.74-2.4c-1.16,1.45-4.04,2.851-2.811,5.12
		c0.391,0.34,1.16,1.021,1.551,1.36c1.069,0.63,2.189,1.199,3.35,1.689c-1.38,2.59-2.63,5.25-3.85,7.92
		c-2.061,0.221-3.841-0.54-4.931-2.3c0.32-0.7,0.96-2.11,1.28-2.81c0.7,0.01,2.09,0.029,2.79,0.04c0.55-0.88,1.18-1.721,1.5-2.721
		c-0.62-0.21-1.851-0.63-2.46-0.84l0.439-1.609c-1.529-0.511-2.55,0.619-3.08,1.979c-4.539-0.16-10.439,3.04-13.84-1.4
		C451.44,221.54,453.24,217.09,454.459,213.54z M450.57,201.84c-0.55,2.229-1.17,4.439-1.47,6.729
		c-1.86-1.649-4.12-2.649-6.44-3.439c-0.189-1.4-0.359-2.8-0.489-4.2C444.869,200.31,448.57,199.29,450.57,201.84z M433.82,205.15
		c0.76-1.37,2.4-1.609,3.771-1.979c1,1.979,3.97,4.21,2.06,6.51C437.18,209.61,433.17,208.33,433.82,205.15z M426.17,222.43
		c1.319-4.21,1.85-10.1,6.899-11.43c0.87,1.46,1.79,2.899,2.74,4.319c-1.521,0.811-5.01,1.181-4.18,3.66c1.5,2.54,3.72,4.601,5,7.3
		c3.81,0.17,7.39,1.57,10.89,2.99c-0.04,0.46-0.11,1.391-0.15,1.86c-1.439,1.06-2.869,2.13-4.26,3.26
		c-3.99,0.75-8.02,1.32-11.99,2.15c-5.64,1.279-11.449,0.27-17.16,0.79c-1.05,0.699-2.01,1.51-3.029,2.229
		c-2.44-0.61-1.21-3.37-1.44-5.149c2.931-2.5,6.5-4.141,9.24-6.87C420.85,225.33,423.909,224.43,426.17,222.43z M401.69,214.97
		c1.35-1.15,2.38-2.6,3.36-4.06c2.649,0.289,3.97,2.779,6.09,3.949c3.399,0.641,6.59,1.971,9.86,3.07
		c-0.521,1.67-1.58,3.07-2.721,4.36c-1.46,1.159-2.56,2.68-3.49,4.279c-0.539-0.01-1.619-0.02-2.159-0.029
		c-0.521,2.989-3.28,4.229-5.801,5.26c-2.56-1.82-4.27-4.47-6.239-6.851C399.92,221.53,401.44,218.33,401.69,214.97z M368.32,210.22
		c-0.01-0.56-0.05-1.67-0.069-2.23c2.55-1.029,3.699-3.92,6.369-4.72c0.08,3.01-0.21,6.03,0.03,9.04c-1,0.53-2,1.07-3,1.61
		c-0.37,1.77-0.71,3.56-1.08,5.33c-1.84,1.17-3.49,2.62-4.979,4.21c3.35,0.34,6.04-1.82,8.81-3.29c0.79-2.2,0.82-4.49,0.311-6.75
		c2.84-0.58,5.609,0.06,8,1.67c2.1-0.79,4.42-0.141,6.529-0.891c-1.03-3.289,0.63-8.05,4.73-7.739c0.56,1.47,1.26,2.899,1.68,4.43
		c-0.94,1.58-2.14,2.99-3.28,4.42c-3.01,0.58-4.859,3.05-7.029,4.95c-1.4,0.18-2.801,0.39-4.2,0.61
		c-1.33,4.01,4.899,8.1,0.18,11.239c0.53,0.511,1.07,1.03,1.61,1.54c3.75-0.8,7.56-0.16,11.34-0.02c-0.89-0.99-1.811-1.96-2.72-2.91
		c0.659-2.76,1.5-5.47,2.52-8.11c2.73-0.77,2.771,1.74,2.771,3.7c1.67,1.44,3.479,2.74,5.449,3.771c1.131,2.68,0,5.38-0.899,7.939
		c-1.181-0.189-2.36-0.38-3.53-0.57c-3.76,2.87-8.63,3.11-13.16,3.4c-2.66-1.96-3.75-4.85-4.34-7.979
		c-2.439,1.609-4.74,3.529-7.46,4.659c-2.149,0.37-2.87-2-3.86-3.35c-2.06,1.94-4.47,1.61-6.93,0.71
		c-3.14,1.33-5.859,3.76-9.399,3.99c-1.16-1.351-2.381-2.63-3.591-3.91c-1.439-0.24-2.88-0.46-4.29-0.81
		c-1.029-1.4-0.31-3.141,1.28-3.54c2.94-1.011,5.32-3.03,7.41-5.261c0.12,0.62,0.37,1.851,0.49,2.471l0.29-1.761
		c2.8,0.38,5.029,1.811,6.35,4.301c2.021,0.029,4.01-0.391,5.96-0.87c-0.56-1.98-1.25-3.92-2.09-5.801
		c-3.08-0.21-7.94,0.44-8.87-3.409c2.17-0.03,4.37,0,6.55,0.069C364.07,216.87,366.18,213.54,368.32,210.22z M381.19,244.43
		c1.11,0.44,2.22,0.89,3.34,1.36c0.391,3.6-1.47,7.43-5.149,8.43c-1.511-0.63-3.2-1.47-4.841-0.73
		c-0.5,1.261-0.819,2.57-1.199,3.881c-0.57-0.15-1.7-0.44-2.271-0.591c-2.81,0.65-5.7,0.86-8.569,1.021
		c-0.091-1.21-0.16-2.42-0.2-3.63c1.84-1.431,2.939-3.47,3.66-5.65c0.819,0.04,2.46,0.12,3.27,0.16c0.07-2.42,0.19-5.28,2.3-6.89
		c1.74-0.87,3.53-1.801,5.44-2.2c2.1,0.56,4.14,1.3,6.16,2.1c-1.94,1.83-4.62,2.311-7.07,3.12c-1.11,3.13-4.63,2.521-6.92,4.15
		C373.85,250.77,378.74,248.61,381.19,244.43z M344.61,113.91c0.271-0.561,0.82-1.681,1.101-2.24c2.63-0.311,6.409,1.17,7.859-1.95
		c-0.14,1.91,0.311,3.84,0.07,5.75c-1.39,4.01-5.93,5.96-6.561,10.37c-0.76-1.641-1.609-3.23-2.54-4.771
		C344.699,118.68,345.84,116.199,344.61,113.91z M344.73,101.66c1.35-0.391,2.73-0.73,4.06-1.211c0.82-1.17,1.23-2.569,1.811-3.869
		c0.479-0.061,1.45-0.19,1.93-0.25c-0.08,0.67-0.229,2.01-0.3,2.68c1.22,0.65,2.46,1.31,3.71,1.939
		c-0.52-1.489-1.12-2.949-1.67-4.42c1.98-0.17,3.97-0.27,5.96-0.369c0.19,1.659,0.37,3.319,0.54,4.979
		c-0.62,0.42-1.87,1.271-2.49,1.7c0.44,1.77,1.05,3.5,1.54,5.27c-1.649,1.601-3.43,3.16-5.77,3.63c0.09-2.1,0.45-4.17,0.8-6.239
		c-3.85-1.431-7.84,0.479-11.78-0.09C343.59,104.15,344.159,102.91,344.73,101.66z M325.49,223.15c1.07,3.54,2.101,7.101,2.96,10.7
		c1.54,3.71-3.449,5.28-6.26,4.72c-2.91-2.479-6.83-2-10.36-2.239c-0.109-1.591-0.21-3.181-0.3-4.771
		c0.62-0.07,1.86-0.229,2.48-0.31C316.97,227.44,320.93,224.69,325.49,223.15z M291.02,93.13c2.641,1.39,5.23,2.89,8.1,3.8
		c1.4,1.9,2.721,3.9,2.86,6.34c1.68,1.73,5.4-1.07,6.35,2.19c1.24-1.851,3.23-1.96,5.16-1.15c0.8,2.601,1.761,5.15,2.32,7.811
		c-2.44,0.239-4.88,0.439-7.33,0.55c-0.82-0.87-1.64-1.73-2.479-2.58c-0.561,0.189-1.69,0.57-2.25,0.77
		c-0.841-1.939-0.74-4.729-2.591-5.979c-3.989-0.811-7.649-2.681-11.619-3.59c-0.521-2.261-1.101-4.511-1.87-6.7
		C288.75,94.04,289.81,93.4,291.02,93.13z M277.31,100.03c-0.01-1.779,1.58-2.779,2.75-3.819c2.32,2.069,3.5,5.21,6.7,6.21
		c-1.9,1.14-3.99,1.899-5.99,2.84C279.38,103.699,276.81,102.52,277.31,100.03z M266.51,92.71c3.02-0.16,9.63,0.27,8.65,4.46
		c-3.48,0.479-6.99,0.79-10.48,1.17C261.84,97.07,263.61,92.58,266.51,92.71z M255.99,248.98c0.381-0.279,1.15-0.85,1.54-1.14
		c0.57-0.061,1.7-0.18,2.271-0.24c3.85-4.33,9.68-6.18,15.34-6.33c-0.43,1.38,1.25,4.54-1.04,4.851c-2.47,0.17-4.97,0.42-7.14,1.739
		c-0.79,1.15-1.32,2.58-2.48,3.431c-2.22,1.109-4.779,0.84-7.16,1.229c-1.239,1.181-1.43,3.03-2.1,4.54
		c-2.19,1.141-4.14,2.66-6.01,4.25c-1.53,0.01-3.061,0.021-4.58,0.03c-0.141-0.351-0.43-1.04-0.58-1.39
		c0.13-0.851,0.27-1.7,0.41-2.551c0.93-0.38,1.88-0.76,2.819-1.13c0.091-0.819,0.181-1.63,0.28-2.439
		c-0.979-0.54-1.97-1.07-2.95-1.601c-0.159-0.359-0.479-1.069-0.64-1.43c0.22-1.47,0.37-2.95,0.53-4.43
		c2.229,0.119,4.479,0.109,6.72,0.119c-0.44,1.5-1.53,2.58-2.7,3.551c0.021,1.01,0.061,2.02,0.101,3.04
		c0.85-0.771,1.67-1.57,2.489-2.37C252.69,250.03,254.31,249.42,255.99,248.98z M244.39,225.72c2.5,0.39,5.57-0.07,7.39,2.15
		c-3.39,2.489-7.149,4.529-10.1,7.59c-3.33-2.25,0.36-4.99,2.41-6.41C244.18,227.94,244.28,226.83,244.39,225.72z M234.44,111.09
		c-1.04,0.729-2.08,1.46-3.12,2.189c-1.159-1.159-2.39-2.27-3.699-3.27c-0.181-0.42-0.53-1.25-0.71-1.67
		c-0.881,1.32-1.771,2.64-2.671,3.95c-2.369,0.47-4.92,1.939-7.26,0.62c-1.27-0.37-1.17-2.311-0.109-2.921
		c1.76-1.75,3.71-3.35,5.08-5.449c2.75-1.87,6.029-1.351,9.1-0.9c-0.51-1.26-1.04-2.52-1.59-3.76c1.17-2.601,3.68-3.5,6.31-3.88
		c0.75-4.28-6.03-0.69-6.89-4.46c0.92-0.641,1.84-1.28,2.77-1.91c1.771-0.061,3.54-0.19,5.311-0.37c0.47-0.29,1.43-0.86,1.899-1.15
		c0.051,2.63-0.699,5.13-2.649,6.971c0.2,3.13,0.83,6.199,1.51,9.25c-1.42,0.27-3.19-0.101-4.07,1.35
		C233.77,107.5,234.12,109.3,234.44,111.09z M236.36,140.29c0.471-1.74,1.08-3.44,1.7-5.13c1.87,0.6,3.72,1.26,5.59,1.859
		c-1.31,1.48-2.54,3.07-4.09,4.311c-1.479,0.609-3.149-0.11-4.68-0.131C235.25,140.97,235.99,140.52,236.36,140.29z M225.96,142.44
		c0.689,0.01,1.38,0.021,2.08,0.03c1.67,1.79,3.649,3.29,5.229,5.17c0.94,1.78,0.12,3.8-0.069,5.67c-1.471,0.4-2.95,0.78-4.44,1.14
		c-0.15-0.75-0.46-2.26-0.62-3.01c-0.72,0.48-1.45,0.96-2.17,1.45c-0.22-2.1-1.34-3.8-2.86-5.2
		C223.95,145.88,224.97,144.16,225.96,142.44z M214.63,246.199c-0.44-1.539-0.92-3.06-1.391-4.59c1.561-0.37,3.11-0.75,4.681-1.08
		c0.87,1.221,1.77,2.44,2.7,3.641c-0.28,0.6-0.83,1.819-1.101,2.43c-1.83-0.05-3.64,0.18-5.3,0.99c0.12,0.39,0.36,1.18,0.48,1.57
		c3.81,0.229,7.619,0.63,11.439,0.399c-1.92,1.84-3.52,3.97-5.25,5.98c-1.97,0.42-3.979-0.141-5.96-0.23
		c-2.42-1.78-4.52-3.93-5.94-6.6C210.88,247.88,212.75,247.04,214.63,246.199z M210.67,253.78c-1.04,1.931-1.98,3.921-3.13,5.79
		c-1.351,0.69-2.811-0.08-4.16-0.3c-0.141-1.89-0.21-3.79-0.21-5.68C205.51,252.26,208.49,251.97,210.67,253.78z M181.6,166.88
		c2.101-0.2,4.18-0.5,6.26-0.79c-0.54,2.5-0.659,5.05-0.609,7.6c-2.221,0.12-4.45,0.11-6.67,0.03
		C180.61,171.39,180.91,169.09,181.6,166.88z M170.3,158.78c2.25-1.34,4.78-1.09,7.11-0.109c-0.2,1.27-0.23,2.6-0.86,3.76
		c-2.12-0.14-4.21-0.6-6.32-0.86C170.24,160.87,170.28,159.48,170.3,158.78z M154.16,263.21c0.92-1.71,2.109-3.17,4.31-2.681
		c-0.12,3.5-2.26,6.511-4.45,9.101c-1.62-0.53-3.25-1.03-4.87-1.521C149.43,265.36,152.05,264.34,154.16,263.21z M149.15,293.75
		c-1.609-0.29-2.17-1.971-3.05-3.11c1.94-0.35,3.061-1.91,4.11-3.38c1.939,0.2,2.899,1.87,3.81,3.38c1.28,0.03,2.561,0.04,3.84,0.03
		c1.931,3.29,0.79,7.51-2.3,9.6c-3.57,2.08-7.899,1.561-11.689,3c-0.78-0.58-1.551-1.149-2.33-1.72c0.25-1.3-0.11-2.92,1.109-3.811
		c3.69-1.329,7.66-1.1,11.521-1.27C153.51,294.13,150.91,294.52,149.15,293.75z M144.9,270.32c0.84,0,2.521-0.01,3.36-0.02
		c0.67,1.87,1.19,3.8,1.41,5.78c-2.37,0.189-4.75,0.37-7.12,0.5C142.58,274.27,142.27,271.36,144.9,270.32z M136.09,316.54
		c-2.55,0.439-5.12,0.739-7.71,0.779c0.03-0.92,0.109-2.77,0.14-3.689c2.78-1.61,6-1,9.05-0.92
		C137.06,313.98,136.56,315.25,136.09,316.54z M136.48,289.82c2.86-1.09,5.91-2.05,8.82-0.529c-0.021,1.05-0.05,2.1-0.08,3.16
		c-2.4,1.109-4.83,2.239-7.51,2.329C137.27,293.13,136.84,291.48,136.48,289.82z M140.79,312.36c-0.04-0.909-0.08-1.819-0.12-2.729
		c3.79-1.44,8.46-1.98,12.01,0.32c-0.729,1.09-1.27,2.399-2.46,3.09C147.08,313.4,143.87,313.05,140.79,312.36z M145.21,321.51
		c-0.33-1.7-0.01-3.39,0.279-5.07c1.48-0.31,2.961-0.62,4.44-0.89c0.49,0.89,0.99,1.78,1.5,2.67c-0.22,0.76-0.44,1.52-0.65,2.29
		C148.91,320.78,147.07,321.16,145.21,321.51z M151.63,328.62c-0.521-1.341-1.95-2.7-1.101-4.21
		c1.061-1.421,2.391-2.601,3.551-3.931c1.029-0.109,2.069-0.21,3.109-0.31c0.5-1.67,0.29-4.03,2.57-4.2
		c1.8,2.27,4.95,2.27,7.35,3.57c-2,2.85-5.699,3.739-8.159,6.21C156.98,327.76,154.61,329.46,151.63,328.62z M280.07,345.06
		c-0.59,1.96-1.17,3.94-1.72,5.92c-2.99-2.29-6.83-1.16-10.27-1.66c-8.341-0.88-17.63-2.189-25.21,2.141
		c-0.49,0.13-1.48,0.399-1.971,0.529c-2.16,2.841-5.63,4.33-7.46,7.44c-1.279,1.28-2.09,3.84-4.3,3.5
		c-2.979-0.27-5.2-2.82-8.16-3.29c-4.96-0.9-9.8-2.76-14.91-2.31c-7.06,0.64-14.149,0.05-21.109-1.21
		c-1.431-0.49-2.74-1.23-4.061-1.92c-0.21-0.53-0.64-1.591-0.859-2.12c-3.761-2.54-7.42-5.261-10.87-8.21
		c-2.34-1.44-4.561-3.061-6.7-4.78c2.82-3.37,5.52-6.83,8.12-10.36c2.63-3.71,6.66-6.09,9.35-9.75c1.521-2.06,3.08-4.1,4.561-6.189
		c-5.54,1.069-9.21,5.63-12.4,9.89c-1.06-0.03-3.2-0.08-4.27-0.1c1.18-2.83,1.55-6.04,3.27-8.601c2.11-1.56,4.58-2.59,7.01-3.55
		c2.37-1.16,4.25,2.021,6.66,0.86c1.5-2.21-0.38-4.58-2.45-5.391c-3.14-0.439-6.369-0.58-9.29-1.949
		c2.171-2.16,5.41-2.891,8.391-2.421c-0.3-1.279-0.61-2.55-0.9-3.819c-6.939-0.061-14.439,2.399-20.75-1.62
		c1.47-1.87,3.42-3.24,5.44-4.46c-1.92-0.74-3.91-1.24-5.971-1.17c-0.56-1.3-1.14-2.57-1.739-3.83
		c1.16-0.51,2.319-1.021,3.479-1.521c2.61-1.38,5.37-2.489,8.29-3.01c0.09-0.47,0.28-1.399,0.37-1.86
		c-2.229,0.16-4.49,0.33-6.62,1.08c-3.85,1.051-6.77,4.471-10.93,4.561c0.35-2.92,2.18-5.311,3.51-7.83
		c-0.55-2.09-2.54-2.72-4.5-2.84c0.08-0.33,0.24-0.98,0.32-1.3c3.29-0.07,2.91-4.29,5.83-4.721c1.3-0.899,2.59-1.83,3.84-2.8
		c1.93,0.17,3.85,0.521,5.71,1.09c1.95,2.811,3.939,6.891,7.189,7.79c1.221-2.96,1.851-6.229,3.971-8.81
		c-2.28-0.061-4.51,0.359-6.69,0.96c0.29-0.311,0.891-0.931,1.19-1.24c0-1.52-0.01-3.04-0.04-4.55
		c4.609-2.141,9.71-1.21,14.609-1.26c2.28-0.101,4.45,0.67,6.61,1.279c0.05,0.601,0.15,1.79,0.21,2.391
		c-3.14,2.13-5.62,4.949-8.149,7.72c-3.261,3.52-8.921,2.36-12.421,5.26c1.74,2.36,3.221,6.271,6.811,5.58
		c0.53-1.229,1.08-2.439,1.649-3.64c4.771-3.32,6.48-9.79,12.061-12.13c3.77-1.75,5.189-6.69,9.52-7.301
		c0.62,2.601,0.08,5.181-1.109,7.521c2.29,1.6,4.27,0.189,5.689-1.811c-0.18-0.899-0.529-2.71-0.71-3.619
		c0.511,0.79,1,1.58,1.48,2.39c4,0.25,5.79,4.479,9.319,5.79c-1.02,0.49-2.069,0.89-3.159,1.189c-0.141,0.74-0.41,2.221-0.54,2.961
		c3.68,2.5,6.449,6.039,9.66,9.079c-2.811,0.311-5.75,0.53-8.221,2.08c5.601,0.521,11.19-2.149,16.75-0.38
		c4,2.471,7.021,6.471,11.45,8.25c6.54,0.7,13.11,1.45,19.54,2.88c3.58,1.351,7.71,0.7,10.97,2.931
		c1.13,9.87-1.18,19.93,1.07,29.699c0.58,0.08,1.74,0.24,2.32,0.32c1.649,0.78,3.37,1.391,5.14,1.87
		C282.44,335.54,281.58,340.39,280.07,345.06z M285.3,324.47c-1.4,0.12-2.811,0.15-4.21,0.08c-0.24-1.85-0.78-3.62-2.38-4.73
		c-0.36-3.859-0.23-7.739,0.05-11.6c1.07,0.61,2.15,1.22,3.24,1.82c1.479,1.68,2.83,3.489,4.25,5.229
		c-0.101,1.25-0.2,2.51-0.32,3.771C286.02,320.85,286.99,323.11,285.3,324.47z M300.18,360.82c-3.82-0.779-5.13-5.06-7.06-7.949
		c-0.73-1.631-1.44-3.261-2.181-4.87c-0.859-0.63-1.689-1.28-2.5-1.96c-0.689-1.801,0.721-3.4,1.28-5
		c2.41,0.13,4.65,0.979,6.74,2.149c-0.92,4.11,2.859,7.03,3.739,10.761C300.55,356.19,302.13,358.9,300.18,360.82z M303.21,322.23
		c1.26,2.9,2.109,6.12,4.689,8.181c-2.72,0.529-6.62,3.819-8.26,0C299.34,327.23,299.64,323.31,303.21,322.23z M379.92,405.01
		c-2.42-1.83-5.551-2.24-8.07-3.87c-1.771-1.54-2.66-4.1-5.021-4.91c-6.96-2.859-13.649-6.319-20.869-8.49
		c-3.051-0.1-5.95,1.181-9,0.98c-3.24,0.12-6.25-1.38-9.04-2.85c-0.62-0.051-1.86-0.15-2.48-0.2c-0.439-2.25,1.78-3.061,3.41-3.5
		c3.88-1.391,8.14,0.01,12-1.51c2.24,0.479,4.5,0.829,6.79,0.92c0.36-1.301,0.7-2.61,1.03-3.9c1.71-0.28,3.59-1.11,5.239-0.06
		c7.62,3.35,15.471,7.109,20.91,13.609c0.75,0.57,1.54,1.101,2.36,1.59c1.29,2.811,3.35,5.021,5.729,6.931
		c0.32,3.52,2.57,6.01,4.94,8.39C384.61,409.27,382.35,406.59,379.92,405.01z M465,380.12c-0.9,3.02-3.4,5.06-5.351,7.409
		c-1.02,1.341-2.67,1.841-4.22,2.25c-0.61,3.44-0.7,6.931-0.58,10.421c1.06,4.579,0.85,10.06,5.24,12.949
		c-0.42,1.78-2.2,2.5-3.54,3.48c-1.681-1.92-3.061-4.07-4.341-6.26c-1.38-0.381-2.779-0.67-4.199-0.82
		c-3.551,1.9-7.33,3.51-11.19,4.65c-9.78,0.159-18.38-5.23-26.49-10.051c-0.659,2.73,0.71,5.011,2.48,6.94
		c1.3,0.729,2.64,1.53,3.36,2.899c-1.511,0.711-3,1.471-4.461,2.261c-4.97-3.33-8.039-8.521-12.26-12.62
		c-3.05-2.71-2.899-7.33-5.819-10.101c-3.79-4.6-8.57-8.199-12.7-12.46c-4.75-2.84-9.811-5.13-14.37-8.31
		c-5.39-1.34-10.31-3.81-15.39-5.96c-8.65-1.41-17.381-3.19-26.19-2.4c-3.56,0.58-6.82-0.949-10-2.279c-2.46-3.74-4.78-7.58-7-11.46
		c-1.3-3.171-2.979-6.16-5.12-8.841c-0.43-1.699-0.87-3.399-1.29-5.09c5.59-2.8,11.67,0.9,17.311-1.55
		c0.34-4.14-3.96-5.97-4.94-9.58c-2.32-0.79-5.18-0.54-6.96-2.47c-2.67-2.29-4.03-5.61-5.77-8.57
		c-4.73-7.08-10.46-13.439-16.99-18.899c-5.5-4.12-11.49-7.71-18.19-9.46c-5.05-3.69-11.71-4.12-17.71-3.11
		c0.37-1.57,0.28-3.311,1.08-4.74c1.74-2.03,4.34-3.01,6.641-4.25c-1.641-1.04-3.261-2.12-4.95-3.07
		c0.27-2.869,2.54-4.869,3.649-7.409c0.79-1.271,1.53-3.23,3.341-3.141c4.949-0.04,9.93,0.101,14.85,0.7
		c3.67-0.79,7.57-0.64,11.03-2.28c0.58-0.109,1.729-0.33,2.31-0.439c1.4-1.42,3.12-2.431,4.94-3.23c1.16-1.359,2.64-2.649,2.62-4.6
		c-1.301-0.15-2.601-0.29-3.891-0.41c-0.739,3.31-3.71,5.24-5.85,7.61c-3-0.03-6-0.561-9-0.28c-4.16,0.21-8.22,1.55-12.41,1.18
		c1.75-2.87,4.55-5.13,7.82-5.97c4.939-1.16,8.76-4.78,13.59-6.23c7.3-2.05,13.13-7.42,20.51-9.25c0.53,3.07-2.061,5.04-2.94,7.69
		c-0.1,1.32-0.13,2.65-0.1,3.99c-2.23,0.689-4.359,1.67-6.3,2.979c0.77,0.55,1.55,1.11,2.33,1.67c5-0.279,6.83-5.819,11.37-7.08
		c6.369-1.949,12.739,1.24,19.04,2.12c1.47-2.149,3.539-3.76,5.649-5.229c1.79,2.55,5.16,1.899,7.83,2.359
		c-1.41-1.77-2.79-3.55-4.41-5.119c1.07-2.73,4.16-2.971,6.65-3.431c1.79,1.561,3.96,2.521,6.17,3.34
		c-0.12,0.87-0.23,1.74-0.34,2.61c-1.44,1.1-2.851,2.23-4.2,3.43c-1.62,0.011-3.22-0.1-4.811-0.33l1.66,1.75
		c-2.26,1.96-7.35,1.511-7.02,5.54c5.62-1.35,10.42-5.47,16.41-5.22c-0.28-0.93-0.83-2.8-1.11-3.729
		c1.53-2.46,4.24-4.141,7.21-3.931c-0.39,1.811-0.96,3.57-1.47,5.351c-2.25,0.949-4.521,2.21-5.12,4.819
		c0.65,0.69,1.3,1.4,1.96,2.101c2.15-1.45,4.22-3.061,6.55-4.23c-0.07,2.21,0.021,4.54-1.17,6.53c1.22,1.2,2.41,2.45,3.55,3.729
		c-0.399,1.761-0.87,3.511-1.6,5.171c-4.061,1.52-8.36,2.52-12.72,2.25c-0.051-1.601-0.091-3.2-0.12-4.79
		c1.34-1.83,3.06-3.32,4.95-4.561c-0.23-0.81-0.7-2.43-0.931-3.24c-0.53-0.449-1.05-0.899-1.569-1.34
		c-1.37,4.38-5.03,7.41-7.591,11.08c-2.779,2.61-5.439,5.97-9.43,6.59c-1.45,0.33-2.94,0.48-4.39,0.73
		c-0.07,0.87-0.2,2.6-0.261,3.47c5.53,1.29,9.881-3.21,15.24-3.61c5.22-2.569,11.36-2.09,16.33-5.279
		c7.851-2.32,15.45-5.811,22.12-10.61c3.3-2.1,2.86-7.28,6.689-8.85c2.23-0.561,4.591-0.42,6.881-0.54
		c1.439,1.069,2.779,2.319,4.41,3.109c2.05,0.851,3.959-0.659,5.779-1.38c-0.26-0.529-0.77-1.609-1.02-2.149
		c0.399-1.08,0.8-2.17,1.189-3.261c4.271-1.119,8.76-1.439,13.141-0.88c2.859,0.41,4.67,2.83,6.75,4.57
		c0.6,0.08,1.79,0.24,2.38,0.32c0.45,1.189,0.89,2.38,1.34,3.569c6.97-0.17,13.77,1.9,20.75,1.41c1.46,2.22,2.79,4.58,4.79,6.38
		c2.78-0.05,5.5-1.09,8.2-1.75c5.77,6.45,10.229,13.96,15.88,20.511c2.5,3.05,7.04,2.489,9.8,5.18c2.229,2.56,6.12,0.14,8.43,2.479
		c8.05,6.141,17.88,9.07,27.29,12.381c-0.27,3.39-3.18,6.26-2.29,9.75c0.82,4.85,2.58,9.63,1.98,14.63
		c-1.771,2.12-2.68,4.739-4.12,7.06c-2.36,2.92-4.48,6.061-7.22,8.66c-2.73,2.32-4.21,5.74-7.101,7.91
		c-2.68,2.64-6.26,4.17-8.729,7.04c-2.16,2.43-4.891,4.2-7.57,5.979c-4.99,4.521-10.6,8.33-15.32,13.15
		c-1.689,2.37-3.62,4.609-6.239,6.01C467.079,377.48,466.05,378.8,465,380.12z M529.1,508.03c-2.11,2.86-4.55,5.44-7.41,7.561
		c0.38-6.2-2.22-12.07-4.67-17.62c-3.37-5.431-7.03-10.84-12-14.94c-3.54-4.27-8.63-6.74-12.6-10.51
		c-3.23-3.4-1.681-8.34-1.08-12.41c0.88-3.72,0.77-7.65,2.239-11.21c3.12-7.81,6.24-15.63,9.61-23.34c1.78-8.42,6-16.68,4.26-25.49
		c-2.18-5.939-6.68-10.6-11.54-14.479c-0.81,0.46-1.62,0.91-2.42,1.37c1.15,2.6,2.181,5.24,3.13,7.92c0.9,1.01,1.69,2.109,2.48,3.22
		c1.17,4.55,2.13,9.26,1.03,13.93c-1.7,6.011,0.34,13.05-3.671,18.4c-3.85,5.5-7.18,11.54-12.239,16.07
		c-1.141,1.359-3.061,1.13-4.62,1.489c-1.78-6.35-3.811-12.649-5.26-19.08c-0.681-5.659-1.471-11.3-2.011-16.97
		c-0.67-7.149-4.79-13.68-3.96-21.02c0.36-7.66,7.271-12.311,11.29-18.12c1.851-0.66,3.101-2.09,4.13-3.69
		c4.681-3.26,8.461-7.569,12.73-11.31c4.75-2.87,8.939-6.54,13.01-10.29c6.75-7.38,11.221-16.59,18.59-23.44
		c1.61-1.26,2.551-3.069,3.36-4.899c-1.64-2.73-1.66-5.97-2.08-9.021c-0.439-3.649-1.399-7.199-1.939-10.83
		c4.439,0,8.55,1.91,12.42,3.92c5.729,1.65,10.1,5.83,15.31,8.511c1.35,0.989,2.72,1.979,4.13,2.92c3.49,2.04,6.91,4.31,9.66,7.31
		c5.61,6.101,13.2,10.3,17.74,17.4c1.67,2.41,3.939,4.39,5.2,7.09l0.26-0.12c0.38,0.34,1.12,1.03,1.49,1.37l-0.181,0.75l1.141-0.03
		l-0.141,0.851c2.25,2.899,3.92,6.27,4.73,9.859c1,4.24-0.08,8.57,0.38,12.87c0.41,12.67-6.54,24.74-17,31.67
		c-2.34,4.44-1.85,9.521-1.771,14.351c0.19,3.97-2.56,7.21-3.399,10.97c-0.92,4.08-1.95,8.14-3.32,12.1
		c-1.09,2.29-2.05,4.641-2.85,7.05c-4,8.851-8.36,17.681-14.431,25.32c-3.939,5.771-7.97,11.47-12.47,16.82
		C540.09,496.89,533.88,501.84,529.1,508.03z M466.5,954.51c-0.101-1.92-0.19-3.83-0.211-5.721c2.87,1.03,2.5,5.12,4.551,7.211
		C469.38,955.51,467.94,955.02,466.5,954.51z M471.23,946.199c3.63-0.77,4.37,3.5,4.35,6.15
		C473.59,950.8,471.13,949.02,471.23,946.199z M647.42,924.92c-0.37,4.659-0.92,9.6-3.681,13.54c-0.26-3.94-0.989-8.141-4.01-10.96
		c-0.39,4.289,1.5,8.699-0.51,12.81c-2.73-2.95-0.36-6.75-0.46-10.2c0.18-4.07,2.899-7.34,5.41-10.29
		C645.42,921.329,647.869,922.6,647.42,924.92z M681.159,947.369c-0.75,0-2.229,0-2.97-0.01c1.24-2.79,3.23-5.42,6.29-6.31
		C683.99,943.449,682.949,945.659,681.159,947.369z"/>
</g>
</svg>
